<svg width="13" height="14" viewBox="0 0 13 14" fill="none" xmlns="http://www.w3.org/2000/svg">
<path d="M12.6106 0.889399C12.0914 0.370201 11.2496 0.370201 10.7304 0.889399L6.5 5.11981L2.26958 0.889399C1.75039 0.3702 0.908598 0.3702 0.389399 0.889399C-0.129799 1.4086 -0.1298 2.25038 0.389399 2.76958L4.61982 7L0.389399 11.2304C-0.129799 11.7496 -0.1298 12.5914 0.389399 13.1106C0.908598 13.6298 1.75038 13.6298 2.26958 13.1106L6.5 8.88019L10.7304 13.1106C11.2496 13.6298 12.0914 13.6298 12.6106 13.1106C13.1298 12.5914 13.1298 11.7496 12.6106 11.2304L8.38018 7L12.6106 2.76958C13.1298 2.25039 13.1298 1.4086 12.6106 0.889399Z" fill="white"/>
</svg>
