<svg width="13" height="14" viewBox="0 0 13 14" fill="none" xmlns="http://www.w3.org/2000/svg">
<path fill-rule="evenodd" clip-rule="evenodd" d="M10.8333 12.4168C10.2349 12.4168 9.74992 11.9318 9.74992 11.3335C9.74992 10.7352 10.2349 10.2502 10.8333 10.2502C11.4316 10.2502 11.9166 10.7352 11.9166 11.3335C11.9166 11.9318 11.4316 12.4168 10.8333 12.4168ZM10.8333 8.0835C10.2349 8.0835 9.74992 7.59847 9.74992 7.00016C9.74992 6.40185 10.2349 5.91683 10.8333 5.91683C11.4316 5.91683 11.9166 6.40185 11.9166 7.00016C11.9166 7.59847 11.4316 8.0835 10.8333 8.0835ZM10.8333 3.75016C10.2349 3.75016 9.74992 3.26514 9.74992 2.66683C9.74992 2.06852 10.2349 1.5835 10.8333 1.5835C11.4316 1.5835 11.9166 2.06852 11.9166 2.66683C11.9166 3.26514 11.4316 3.75016 10.8333 3.75016ZM6.49992 12.4168C5.90161 12.4168 5.41658 11.9318 5.41658 11.3335C5.41658 10.7352 5.90161 10.2502 6.49992 10.2502C7.09823 10.2502 7.58325 10.7352 7.58325 11.3335C7.58325 11.9318 7.09823 12.4168 6.49992 12.4168ZM6.49992 8.0835C5.90161 8.0835 5.41658 7.59847 5.41658 7.00016C5.41658 6.40185 5.90161 5.91683 6.49992 5.91683C7.09823 5.91683 7.58325 6.40185 7.58325 7.00016C7.58325 7.59847 7.09823 8.0835 6.49992 8.0835ZM6.49992 3.75016C5.90161 3.75016 5.41658 3.26514 5.41658 2.66683C5.41658 2.06852 5.90161 1.5835 6.49992 1.5835C7.09823 1.5835 7.58325 2.06852 7.58325 2.66683C7.58325 3.26514 7.09823 3.75016 6.49992 3.75016ZM2.16659 12.4168C1.56828 12.4168 1.08325 11.9318 1.08325 11.3335C1.08325 10.7352 1.56828 10.2502 2.16659 10.2502C2.76489 10.2502 3.24992 10.7352 3.24992 11.3335C3.24992 11.9318 2.76489 12.4168 2.16659 12.4168ZM2.16659 8.0835C1.56828 8.0835 1.08325 7.59847 1.08325 7.00016C1.08325 6.40185 1.56828 5.91683 2.16659 5.91683C2.76489 5.91683 3.24992 6.40185 3.24992 7.00016C3.24992 7.59847 2.76489 8.0835 2.16659 8.0835ZM2.16659 3.75016C1.56828 3.75016 1.08325 3.26514 1.08325 2.66683C1.08325 2.06852 1.56828 1.5835 2.16659 1.5835C2.76489 1.5835 3.24992 2.06852 3.24992 2.66683C3.24992 3.26514 2.76489 3.75016 2.16659 3.75016Z" fill="#1455FD"/>
</svg>
