<svg width="148" height="71" viewBox="0 0 148 71" fill="none" xmlns="http://www.w3.org/2000/svg">
<path d="M4.70094 15.2212C3.74894 15.2212 2.96494 15.0672 2.34894 14.7592C1.73294 14.4512 1.29194 14.0662 1.02594 13.6042C0.773941 13.1422 0.675941 12.6872 0.731941 12.2392C0.787941 11.9032 0.941941 11.6232 1.19394 11.3992C1.45994 11.1612 1.76794 11.0422 2.11794 11.0422C2.28594 11.0422 2.43994 11.0842 2.57994 11.1682C2.71994 11.2382 2.87394 11.3362 3.04194 11.4622C3.20994 11.5742 3.39194 11.6932 3.58794 11.8192C3.78394 11.9312 4.00794 12.0292 4.25994 12.1132C4.52594 12.1832 4.81994 12.2182 5.14194 12.2182C5.75794 12.2182 6.35994 12.0922 6.94794 11.8402C7.54994 11.5882 8.09594 11.2172 8.58594 10.7272C9.08994 10.2372 9.51694 9.64923 9.86694 8.96323C10.2309 8.26323 10.4689 7.47223 10.5809 6.59023C10.7209 5.79223 10.6999 5.13423 10.5179 4.61623C10.3359 4.08423 10.0209 3.69223 9.57294 3.44023C9.13894 3.17423 8.59294 3.04123 7.93494 3.04123C7.30494 3.04123 6.76594 3.12523 6.31794 3.29323C5.88394 3.46123 5.51294 3.65723 5.20494 3.88123C4.91094 4.09123 4.63794 4.28023 4.38594 4.44823C4.13394 4.61623 3.87494 4.70023 3.60894 4.70023C3.28694 4.70023 3.04194 4.52523 2.87394 4.17523C2.70594 3.82523 2.66394 3.44723 2.74794 3.04123C2.80394 2.78923 2.90894 2.53723 3.06294 2.28523C3.23094 2.03323 3.44794 1.79523 3.71394 1.57123C3.96594 1.34723 4.31594 1.11623 4.76394 0.878233C5.21194 0.640234 5.75094 0.437234 6.38094 0.269234C7.01094 0.101233 7.72494 0.0172331 8.52294 0.0172331C9.25094 0.0172331 9.96494 0.129233 10.6649 0.353234C11.3789 0.577233 11.9949 0.948233 12.5129 1.46623C13.0449 1.97023 13.4229 2.64923 13.6469 3.50323C13.8709 4.34323 13.8779 5.37923 13.6679 6.61123C13.4579 7.96923 13.0659 9.18023 12.4919 10.2442C11.9179 11.3082 11.2179 12.2112 10.3919 12.9532C9.56594 13.6812 8.66294 14.2412 7.68294 14.6332C6.70294 15.0252 5.70894 15.2212 4.70094 15.2212ZM12.3659 9.23623C12.1139 9.23623 11.8619 9.22223 11.6099 9.19423C11.3719 9.15223 11.1129 9.10323 10.8329 9.04723C10.5529 8.99123 10.2239 8.94223 9.84594 8.90023C9.48194 8.85823 9.03394 8.83723 8.50194 8.83723C7.88594 8.83723 7.37494 8.87223 6.96894 8.94223C6.57694 8.99823 6.22694 9.06123 5.91894 9.13123C5.61094 9.18723 5.30994 9.21523 5.01594 9.21523C4.58194 9.21523 4.29494 9.06123 4.15494 8.75323C4.01494 8.43123 3.97994 8.08823 4.04994 7.72423C4.13394 7.31823 4.35094 6.98923 4.70094 6.73723C5.06494 6.47123 5.51994 6.28923 6.06594 6.19123C6.38794 6.12123 6.73094 6.06523 7.09494 6.02323C7.47294 5.96723 7.87194 5.92523 8.29194 5.89723C8.71194 5.86923 9.13894 5.85523 9.57294 5.85523C10.4829 5.85523 11.3089 5.92523 12.0509 6.06523C12.7929 6.20523 13.3599 6.43623 13.7519 6.75823C14.1439 7.08023 14.2839 7.51423 14.1719 8.06023C14.0879 8.49423 13.8639 8.80223 13.4999 8.98423C13.1499 9.15223 12.7719 9.23623 12.3659 9.23623ZM23.1716 15.2632C22.7516 15.2632 22.2546 15.1442 21.6806 14.9062C21.1206 14.6542 20.5466 14.3462 19.9586 13.9822C19.3846 13.6042 18.8526 13.2052 18.3626 12.7852C17.8726 12.3652 17.4946 11.9872 17.2286 11.6512C17.0186 11.3852 16.8576 11.0982 16.7456 10.7902C16.6476 10.4822 16.6336 10.1672 16.7036 9.84523C16.7596 9.57923 16.8646 9.30623 17.0186 9.02623C17.1866 8.73223 17.4246 8.44523 17.7326 8.16523C17.9286 7.98323 18.2366 7.72423 18.6566 7.38823C19.0906 7.03823 19.5876 6.66723 20.1476 6.27523C20.7076 5.88323 21.2956 5.51223 21.9116 5.16223C22.5416 4.79823 23.1576 4.50423 23.7596 4.28023C24.3756 4.05623 24.9356 3.94423 25.4396 3.94423C25.7476 3.94423 25.9996 4.02823 26.1956 4.19623C26.3916 4.35023 26.5246 4.54623 26.5946 4.78423C26.6786 5.00823 26.6996 5.23923 26.6576 5.47723C26.5876 5.88323 26.3636 6.24023 25.9856 6.54823C25.6076 6.85623 25.1736 7.10123 24.6836 7.28323C23.8296 7.59123 23.0526 7.92723 22.3526 8.29123C21.6526 8.65523 21.0996 8.98423 20.6936 9.27823C20.2876 9.55823 20.0706 9.75423 20.0426 9.86623C20.0286 9.95023 20.1196 10.0832 20.3156 10.2652C20.5116 10.4332 20.7846 10.6292 21.1346 10.8532C21.4846 11.0632 21.8976 11.2802 22.3736 11.5042C22.8496 11.7142 23.3466 11.9172 23.8646 12.1132C24.1166 12.2112 24.3406 12.3372 24.5366 12.4912C24.7466 12.6452 24.9076 12.8342 25.0196 13.0582C25.1316 13.2822 25.1596 13.5342 25.1036 13.8142C25.0476 14.0942 24.9286 14.3462 24.7466 14.5702C24.5786 14.7942 24.3616 14.9622 24.0956 15.0742C23.8296 15.2002 23.5216 15.2632 23.1716 15.2632ZM15.5066 15.2002C15.0166 15.2002 14.6596 15.0392 14.4356 14.7172C14.2116 14.3952 14.0926 13.9262 14.0786 13.3102C14.0786 12.6942 14.1766 11.9452 14.3726 11.0632C14.4986 10.4332 14.6386 9.83123 14.7926 9.25723C14.9466 8.66923 15.0936 8.11623 15.2336 7.59823C15.3736 7.06623 15.4786 6.59723 15.5486 6.19123C15.5766 6.07923 15.5976 5.96023 15.6116 5.83423C15.6396 5.69423 15.6676 5.56123 15.6956 5.43523C15.7656 5.09923 15.9056 4.81923 16.1156 4.59523C16.3256 4.37123 16.5566 4.21023 16.8086 4.11223C17.0746 4.00023 17.3266 3.94423 17.5646 3.94423C18.0826 3.94423 18.4396 4.13323 18.6356 4.51123C18.8456 4.88923 18.8946 5.37223 18.7826 5.96023C18.6846 6.43623 18.5586 6.93323 18.4046 7.45123C18.2506 7.96923 18.0966 8.47323 17.9426 8.96323C17.8026 9.43923 17.6906 9.87323 17.6066 10.2652C17.4666 10.9512 17.3756 11.5252 17.3336 11.9872C17.3056 12.4352 17.2916 12.8132 17.2916 13.1212C17.2916 13.4292 17.2706 13.7022 17.2286 13.9402C17.1586 14.2202 17.0396 14.4582 16.8716 14.6542C16.7176 14.8362 16.5216 14.9692 16.2836 15.0532C16.0456 15.1512 15.7866 15.2002 15.5066 15.2002ZM31.8075 15.2422C30.5195 15.2422 29.4345 14.9692 28.5525 14.4232C27.6705 13.8632 27.0405 13.1212 26.6625 12.1972C26.2845 11.2592 26.2075 10.2302 26.4315 9.11023C26.5855 8.39623 26.8655 7.73123 27.2715 7.11523C27.6775 6.49923 28.1675 5.96023 28.7415 5.49823C29.3155 5.03623 29.9105 4.67923 30.5265 4.42723C31.1565 4.16123 31.7585 4.02823 32.3325 4.02823C32.5705 4.02823 32.8015 4.07023 33.0255 4.15423C33.2635 4.22423 33.4455 4.34323 33.5715 4.51123C33.7115 4.66523 33.7535 4.88223 33.6975 5.16223C33.5855 5.66623 33.3895 6.10723 33.1095 6.48523C32.8295 6.86323 32.3605 7.15723 31.7025 7.36723C31.3665 7.47923 31.0445 7.64723 30.7365 7.87123C30.4425 8.09523 30.1905 8.35423 29.9805 8.64823C29.7705 8.94223 29.6305 9.26423 29.5605 9.61423C29.3925 10.4122 29.5185 11.0562 29.9385 11.5462C30.3725 12.0362 31.0375 12.2812 31.9335 12.2812C32.6895 12.2812 33.3545 12.0362 33.9285 11.5462C34.5165 11.0562 34.8945 10.4052 35.0625 9.59323C35.1885 8.89323 35.0905 8.33323 34.7685 7.91323C34.4605 7.47923 33.9775 7.26223 33.3195 7.26223C32.9835 7.26223 32.6895 7.34623 32.4375 7.51423C32.1995 7.68223 31.9125 7.90623 31.5765 8.18623C31.3245 8.39623 31.1145 8.56423 30.9465 8.69023C30.7785 8.81623 30.6105 8.91423 30.4425 8.98423C30.2885 9.04023 30.0995 9.06823 29.8755 9.06823C29.6235 9.06823 29.3925 8.94223 29.1825 8.69023C28.9725 8.43823 28.9235 8.03923 29.0355 7.49323C29.1195 7.10123 29.3085 6.70923 29.6025 6.31723C29.9105 5.92523 30.2745 5.57523 30.6945 5.26723C31.1285 4.95923 31.5765 4.71423 32.0385 4.53223C32.5145 4.33623 32.9695 4.23823 33.4035 4.23823C34.6495 4.23823 35.6575 4.48323 36.4275 4.97323C37.2115 5.46323 37.7505 6.13523 38.0445 6.98923C38.3525 7.82923 38.3945 8.78823 38.1705 9.86623C37.9605 10.9582 37.5475 11.9102 36.9315 12.7222C36.3155 13.5202 35.5665 14.1432 34.6845 14.5912C33.8025 15.0252 32.8435 15.2422 31.8075 15.2422ZM40.6387 15.2212C40.1767 15.2212 39.7917 15.0742 39.4837 14.7802C39.1897 14.4862 38.9937 14.0802 38.8957 13.5622C38.8117 13.0302 38.8397 12.4072 38.9797 11.6932C39.1617 10.8252 39.4347 10.1462 39.7987 9.65623C40.1767 9.15223 40.5197 8.80223 40.8277 8.60623C40.9957 8.49423 41.1917 8.41723 41.4157 8.37523C41.6397 8.31923 41.8637 8.29123 42.0877 8.29123C43.1097 8.29123 44.1597 8.24223 45.2377 8.14423C46.3297 8.04623 47.3657 7.82223 48.3457 7.47223L48.8287 9.99223C48.0727 10.3002 47.2677 10.5382 46.4137 10.7062C45.5737 10.8602 44.7197 10.9652 43.8517 11.0212C42.9977 11.0632 42.1647 11.0842 41.3527 11.0842L39.6307 10.5172C39.7987 9.69123 39.9807 8.85823 40.1767 8.01823C40.3727 7.17823 40.5407 6.39423 40.6807 5.66623C40.7927 5.21823 40.9607 4.82623 41.1847 4.49023C41.4227 4.14023 41.7517 3.96523 42.1717 3.96523C42.8577 3.96523 43.3267 4.17523 43.5787 4.59523C43.8307 5.00123 43.8867 5.56823 43.7467 6.29623C43.6767 6.63223 43.5857 7.01023 43.4737 7.43023C43.3757 7.83623 43.2637 8.25623 43.1377 8.69023C43.0257 9.12423 42.9137 9.53723 42.8017 9.92923C42.7037 10.3072 42.6267 10.6292 42.5707 10.8952C42.4867 11.3852 42.3957 11.8752 42.2977 12.3652C42.1997 12.8412 42.0877 13.3802 41.9617 13.9822C41.9057 14.3322 41.7517 14.6262 41.4997 14.8642C41.2477 15.1022 40.9607 15.2212 40.6387 15.2212ZM48.1567 15.2212C47.6387 15.2212 47.2537 15.0112 47.0017 14.5912C46.7637 14.1712 46.6307 13.6112 46.6027 12.9112C46.5887 12.2112 46.6657 11.4342 46.8337 10.5802C47.0997 9.23623 47.3517 8.14423 47.5897 7.30423C47.8417 6.46423 48.0517 5.80623 48.2197 5.33023C48.3737 4.92423 48.6187 4.58823 48.9547 4.32223C49.2907 4.05623 49.6687 3.92323 50.0887 3.92323C50.4807 3.92323 50.8097 4.07023 51.0757 4.36423C51.3417 4.64423 51.4397 4.97323 51.3697 5.35123C51.2717 5.85523 51.1037 6.42923 50.8657 7.07323C50.6417 7.70323 50.4387 8.46623 50.2567 9.36223C50.1167 10.0482 50.0257 10.6572 49.9837 11.1892C49.9557 11.7212 49.9347 12.1972 49.9207 12.6172C49.9067 13.0232 49.8647 13.4152 49.7947 13.7932C49.7107 14.1712 49.5287 14.5072 49.2487 14.8012C48.9827 15.0812 48.6187 15.2212 48.1567 15.2212ZM57.1773 15.2422C55.8893 15.2422 54.8043 14.9692 53.9223 14.4232C53.0403 13.8632 52.4103 13.1212 52.0323 12.1972C51.6543 11.2592 51.5773 10.2302 51.8013 9.11023C51.9553 8.39623 52.2353 7.73123 52.6413 7.11523C53.0473 6.49923 53.5373 5.96023 54.1113 5.49823C54.6853 5.03623 55.2803 4.67923 55.8963 4.42723C56.5263 4.16123 57.1283 4.02823 57.7023 4.02823C57.9403 4.02823 58.1713 4.07023 58.3953 4.15423C58.6333 4.22423 58.8153 4.34323 58.9413 4.51123C59.0813 4.66523 59.1233 4.88223 59.0673 5.16223C58.9553 5.66623 58.7593 6.10723 58.4793 6.48523C58.1993 6.86323 57.7303 7.15723 57.0723 7.36723C56.7363 7.47923 56.4143 7.64723 56.1063 7.87123C55.8123 8.09523 55.5603 8.35423 55.3503 8.64823C55.1403 8.94223 55.0003 9.26423 54.9303 9.61423C54.7623 10.4122 54.8883 11.0562 55.3083 11.5462C55.7423 12.0362 56.4073 12.2812 57.3033 12.2812C58.0593 12.2812 58.7243 12.0362 59.2983 11.5462C59.8863 11.0562 60.2643 10.4052 60.4323 9.59323C60.5583 8.89323 60.4603 8.33323 60.1383 7.91323C59.8303 7.47923 59.3473 7.26223 58.6893 7.26223C58.3533 7.26223 58.0593 7.34623 57.8073 7.51423C57.5693 7.68223 57.2823 7.90623 56.9463 8.18623C56.6943 8.39623 56.4843 8.56423 56.3163 8.69023C56.1483 8.81623 55.9803 8.91423 55.8123 8.98423C55.6583 9.04023 55.4693 9.06823 55.2453 9.06823C54.9933 9.06823 54.7623 8.94223 54.5523 8.69023C54.3423 8.43823 54.2933 8.03923 54.4053 7.49323C54.4893 7.10123 54.6783 6.70923 54.9723 6.31723C55.2803 5.92523 55.6443 5.57523 56.0643 5.26723C56.4983 4.95923 56.9463 4.71423 57.4083 4.53223C57.8843 4.33623 58.3393 4.23823 58.7733 4.23823C60.0193 4.23823 61.0273 4.48323 61.7973 4.97323C62.5813 5.46323 63.1203 6.13523 63.4143 6.98923C63.7223 7.82923 63.7643 8.78823 63.5403 9.86623C63.3303 10.9582 62.9173 11.9102 62.3013 12.7222C61.6853 13.5202 60.9363 14.1432 60.0543 14.5912C59.1723 15.0252 58.2133 15.2422 57.1773 15.2422ZM65.5875 15.2212C64.9575 15.2212 64.5025 15.0462 64.2225 14.6962C63.9565 14.3322 63.8935 13.8212 64.0335 13.1632C64.1035 12.7852 64.2295 12.2252 64.4115 11.4832C64.6075 10.7412 64.8735 9.96423 65.2095 9.15223C65.7695 7.79423 66.2735 6.74423 66.7215 6.00223C67.1835 5.24623 67.6175 4.72123 68.0235 4.42723C68.4295 4.13323 68.8355 3.98623 69.2415 3.98623C69.6755 3.98623 70.0325 4.04923 70.3125 4.17523C70.6065 4.30123 70.8375 4.50423 71.0055 4.78423C71.1735 5.06423 71.2925 5.41423 71.3625 5.83423C71.4045 6.14223 71.4745 6.57623 71.5725 7.13623C71.6845 7.68223 71.8105 8.27023 71.9505 8.90023C72.0905 9.51623 72.2445 10.1042 72.4125 10.6642C72.5805 11.2242 72.7485 11.6582 72.9165 11.9662L71.2155 12.1762C71.6635 11.4062 72.1045 10.6712 72.5385 9.97123C72.9865 9.25723 73.4275 8.57823 73.8615 7.93423C74.2955 7.27623 74.7155 6.66023 75.1215 6.08623C75.5695 5.42823 76.0175 4.92423 76.4655 4.57423C76.9135 4.22423 77.3125 4.04923 77.6625 4.04923C77.9985 4.04923 78.2925 4.10523 78.5445 4.21723C78.8105 4.32923 79.0135 4.45523 79.1535 4.59523C79.4055 4.79123 79.5805 5.02223 79.6785 5.28823C79.7905 5.54023 79.8185 5.89023 79.7625 6.33823C79.6365 7.34623 79.5525 8.25623 79.5105 9.06823C79.4825 9.88023 79.4755 10.5872 79.4895 11.1892C79.4895 11.8892 79.5595 12.4912 79.6995 12.9952C79.8395 13.4992 79.8815 13.8912 79.8255 14.1712C79.7555 14.4652 79.5665 14.7102 79.2585 14.9062C78.9505 15.1022 78.5655 15.2002 78.1035 15.2002C77.6835 15.2002 77.3195 15.0462 77.0115 14.7382C76.7175 14.4162 76.5215 13.9682 76.4235 13.3942C76.3815 13.0162 76.3395 12.5472 76.2975 11.9872C76.2695 11.4132 76.2695 10.7342 76.2975 9.95023C76.3255 9.16623 76.4095 8.26323 76.5495 7.24123L77.5365 7.01023C77.2285 7.50023 76.8925 8.02523 76.5285 8.58523C76.1645 9.14523 75.8005 9.71223 75.4365 10.2862C75.0865 10.8462 74.7365 11.3922 74.3865 11.9242C74.0505 12.4562 73.7495 12.9392 73.4835 13.3732C73.2735 13.7232 73.0285 13.9962 72.7485 14.1922C72.4825 14.3742 72.1605 14.4652 71.7825 14.4652C71.3625 14.4652 71.0265 14.3952 70.7745 14.2552C70.5365 14.1012 70.3405 13.8842 70.1865 13.6042C70.0465 13.3242 69.9065 12.9882 69.7665 12.5962C69.6965 12.4142 69.6055 12.1482 69.4935 11.7982C69.3955 11.4342 69.2835 11.0282 69.1575 10.5802C69.0455 10.1182 68.9405 9.65623 68.8425 9.19423C68.7585 8.73223 68.6955 8.30523 68.6535 7.91323C68.6115 7.50723 68.5975 7.17823 68.6115 6.92623L69.7245 6.86323C69.4585 7.19923 69.1785 7.63323 68.8845 8.16523C68.6045 8.69723 68.3455 9.27823 68.1075 9.90823C67.8695 10.5242 67.6805 11.1472 67.5405 11.7772C67.4565 12.2392 67.3865 12.6662 67.3305 13.0582C67.2885 13.4362 67.2465 13.7302 67.2045 13.9402C67.1345 14.3042 66.9455 14.6122 66.6375 14.8642C66.3295 15.1022 65.9795 15.2212 65.5875 15.2212ZM83.6706 15.2422C83.0826 15.2422 82.5996 15.1302 82.2216 14.9062C81.8436 14.6682 81.5636 14.3532 81.3816 13.9612C81.1996 13.5552 81.0946 13.1072 81.0666 12.6172C81.0386 12.1132 81.0806 11.5952 81.1926 11.0632C81.2766 10.6292 81.3886 10.1532 81.5286 9.63523C81.6686 9.10323 81.8156 8.57823 81.9696 8.06023C82.1236 7.54223 82.2776 7.05923 82.4316 6.61123C82.5856 6.16323 82.7116 5.80623 82.8096 5.54023C82.9916 5.05023 83.2156 4.68623 83.4816 4.44823C83.7616 4.19623 84.0416 4.07023 84.3216 4.07023C84.6576 4.07023 84.9516 4.14723 85.2036 4.30123C85.4696 4.44123 85.6656 4.63023 85.7916 4.86823C85.9316 5.10623 85.9736 5.37223 85.9176 5.66623C85.8756 5.87623 85.7846 6.17023 85.6446 6.54823C85.5186 6.91223 85.3786 7.31823 85.2246 7.76623C85.0706 8.20023 84.9166 8.64823 84.7626 9.11023C84.6226 9.55823 84.5106 9.99223 84.4266 10.4122C84.3706 10.6642 84.3286 10.9162 84.3006 11.1682C84.2726 11.4062 84.2726 11.6092 84.3006 11.7772C84.3426 11.9452 84.4406 12.0292 84.5946 12.0292C84.9306 12.0292 85.3436 11.7562 85.8336 11.2102C86.3236 10.6642 86.8346 9.97123 87.3666 9.13123C87.8006 8.50123 88.1786 7.88523 88.5006 7.28323C88.8366 6.68123 89.1446 6.14223 89.4246 5.66623C89.7186 5.17623 90.0056 4.78423 90.2856 4.49023C90.5796 4.19623 90.9156 4.04923 91.2936 4.04923C91.8676 4.04923 92.2666 4.21023 92.4906 4.53223C92.7286 4.84023 92.8336 5.23223 92.8056 5.70823C92.7916 6.08623 92.7776 6.54823 92.7636 7.09423C92.7636 7.62623 92.7636 8.15823 92.7636 8.69023C92.7776 9.20823 92.7916 9.61423 92.8056 9.90823C92.8616 10.5522 92.9456 11.0772 93.0576 11.4832C93.1836 11.8892 93.2886 12.2462 93.3726 12.5542C93.4706 12.8622 93.4916 13.1772 93.4356 13.4992C93.3796 13.7932 93.2536 14.0662 93.0576 14.3182C92.8616 14.5702 92.6236 14.7802 92.3436 14.9482C92.0776 15.1022 91.7906 15.1792 91.4826 15.1792C90.8806 15.1792 90.4606 14.8642 90.2226 14.2342C89.9986 13.6042 89.8516 12.7362 89.7816 11.6302C89.7396 11.1122 89.7116 10.5872 89.6976 10.0552C89.6976 9.52323 89.7046 8.99823 89.7186 8.48023C89.7326 7.96223 89.7536 7.47923 89.7816 7.03123L90.9156 7.59823C90.7476 7.93423 90.5026 8.40323 90.1806 9.00523C89.8586 9.59323 89.3896 10.3982 88.7736 11.4202C88.3676 12.1202 87.8776 12.7642 87.3036 13.3522C86.7436 13.9262 86.1486 14.3882 85.5186 14.7382C84.9026 15.0742 84.2866 15.2422 83.6706 15.2422ZM95.8587 15.2212C95.2287 15.2212 94.7737 15.0462 94.4937 14.6962C94.2277 14.3322 94.1647 13.8212 94.3047 13.1632C94.3607 12.9112 94.4307 12.5752 94.5147 12.1552C94.6127 11.7352 94.7387 11.2662 94.8927 10.7482C95.0607 10.2302 95.2567 9.69823 95.4807 9.15223C96.0407 7.79423 96.5447 6.74423 96.9927 6.00223C97.4547 5.24623 97.8887 4.72123 98.2947 4.42723C98.7007 4.13323 99.1067 3.98623 99.5127 3.98623C99.9467 3.98623 100.304 4.04923 100.584 4.17523C100.878 4.30123 101.109 4.50423 101.277 4.78423C101.445 5.06423 101.564 5.41423 101.634 5.83423C101.676 6.14223 101.746 6.57623 101.844 7.13623C101.956 7.68223 102.082 8.27023 102.222 8.90023C102.362 9.51623 102.516 10.1042 102.684 10.6642C102.852 11.2242 103.02 11.6582 103.188 11.9662L101.487 12.1762C101.935 11.4062 102.376 10.6712 102.81 9.97123C103.258 9.25723 103.699 8.57823 104.133 7.93423C104.567 7.27623 104.987 6.66023 105.393 6.08623C105.841 5.42823 106.289 4.92423 106.737 4.57423C107.185 4.22423 107.584 4.04923 107.934 4.04923C108.27 4.04923 108.564 4.10523 108.816 4.21723C109.082 4.32923 109.285 4.45523 109.425 4.59523C109.677 4.79123 109.852 5.02223 109.95 5.28823C110.062 5.54023 110.09 5.89023 110.034 6.33823C109.908 7.34623 109.824 8.25623 109.782 9.06823C109.754 9.88023 109.747 10.5872 109.761 11.1892C109.761 11.8892 109.831 12.4912 109.971 12.9952C110.111 13.4992 110.153 13.8912 110.097 14.1712C110.027 14.4652 109.838 14.7102 109.53 14.9062C109.222 15.1022 108.837 15.2002 108.375 15.2002C107.955 15.2002 107.591 15.0462 107.283 14.7382C106.989 14.4162 106.793 13.9682 106.695 13.3942C106.653 13.0162 106.611 12.5472 106.569 11.9872C106.541 11.4132 106.541 10.7342 106.569 9.95023C106.597 9.16623 106.681 8.26323 106.821 7.24123L107.808 7.01023C107.5 7.50023 107.164 8.02523 106.8 8.58523C106.436 9.14523 106.072 9.71223 105.708 10.2862C105.358 10.8462 105.008 11.3922 104.658 11.9242C104.322 12.4562 104.021 12.9392 103.755 13.3732C103.545 13.7232 103.3 13.9962 103.02 14.1922C102.754 14.3742 102.432 14.4652 102.054 14.4652C101.634 14.4652 101.298 14.3952 101.046 14.2552C100.808 14.1012 100.612 13.8842 100.458 13.6042C100.318 13.3242 100.178 12.9882 100.038 12.5962C99.9677 12.4142 99.8767 12.1482 99.7647 11.7982C99.6667 11.4342 99.5547 11.0282 99.4287 10.5802C99.3167 10.1182 99.2117 9.65623 99.1137 9.19423C99.0297 8.73223 98.9667 8.30523 98.9247 7.91323C98.8827 7.50723 98.8687 7.17823 98.8827 6.92623L99.9957 6.86323C99.7297 7.19923 99.4497 7.63323 99.1557 8.16523C98.8757 8.69723 98.6167 9.27823 98.3787 9.90823C98.1407 10.5242 97.9517 11.1472 97.8117 11.7772C97.7277 12.2392 97.6577 12.6662 97.6017 13.0582C97.5597 13.4362 97.5177 13.7302 97.4757 13.9402C97.4057 14.3042 97.2167 14.6122 96.9087 14.8642C96.6007 15.1022 96.2507 15.2212 95.8587 15.2212ZM5.16294 40.3892C4.40694 40.3892 3.76294 40.2702 3.23094 40.0322C2.71294 39.7942 2.29994 39.4582 1.99194 39.0242C1.68394 38.5762 1.48094 38.0652 1.38294 37.4912C1.29894 36.9032 1.32694 36.2592 1.46694 35.5592C1.57894 35.0132 1.73994 34.3832 1.94994 33.6692C2.15994 32.9552 2.41894 32.2622 2.72694 31.5902C3.03494 30.9042 3.37094 30.3302 3.73494 29.8682C3.88894 29.6722 4.09194 29.5042 4.34394 29.3642C4.59594 29.2242 4.86894 29.1192 5.16294 29.0492C5.47094 28.9652 5.76494 28.9232 6.04494 28.9232C6.33894 28.9232 6.55594 29.0142 6.69594 29.1962C6.84994 29.3642 6.89194 29.6442 6.82194 30.0362C6.76594 30.2882 6.63994 30.6032 6.44394 30.9812C6.24794 31.3452 6.02394 31.7792 5.77194 32.2832C5.51994 32.7732 5.27494 33.3262 5.03694 33.9422C4.79894 34.5442 4.60294 35.2092 4.44894 35.9372C4.33694 36.4972 4.35794 36.9802 4.51194 37.3862C4.66594 37.7782 5.00894 37.9742 5.54094 37.9742C5.94694 37.9742 6.35294 37.8832 6.75894 37.7012C7.16494 37.5052 7.53594 37.2392 7.87194 36.9032C8.20794 36.5672 8.47394 36.1892 8.66994 35.7692L8.81694 36.1892C8.63494 36.1192 8.35494 36.0422 7.97694 35.9582C7.61294 35.8742 7.20694 35.8042 6.75894 35.7482C6.32494 35.6922 5.89094 35.6432 5.45694 35.6012C5.02294 35.5592 4.63794 35.5452 4.30194 35.5592L4.82694 33.8162C5.24694 33.8162 5.68794 33.7532 6.14994 33.6272C6.61194 33.4872 7.05294 33.3262 7.47294 33.1442C7.89294 32.9482 8.23594 32.7452 8.50194 32.5352C8.78194 32.3112 8.94294 32.1012 8.98494 31.9052C9.01294 31.7652 8.94994 31.6602 8.79594 31.5902C8.65594 31.5062 8.43194 31.4642 8.12394 31.4642C7.60594 31.4642 7.11594 31.5272 6.65394 31.6532C6.20594 31.7652 5.79294 31.8912 5.41494 32.0312C5.05094 32.1712 4.70794 32.2622 4.38594 32.3042C4.10594 32.3182 3.88194 32.2412 3.71394 32.0732C3.55994 31.9052 3.51094 31.6672 3.56694 31.3592C3.63694 31.0092 3.83294 30.7082 4.15494 30.4562C4.49094 30.1902 4.87594 29.9872 5.30994 29.8472C6.13594 29.5672 6.91294 29.3852 7.64094 29.3012C8.36894 29.2032 9.04094 29.1542 9.65694 29.1542C10.2729 29.1542 10.8049 29.2312 11.2529 29.3852C11.7149 29.5252 12.0579 29.7562 12.2819 30.0782C12.5059 30.3862 12.5689 30.7782 12.4709 31.2542C12.3729 31.6602 12.1629 32.0662 11.8409 32.4722C11.5189 32.8782 11.0849 33.2632 10.5389 33.6272C9.99294 33.9772 9.35594 34.2922 8.62794 34.5722C7.89994 34.8522 7.09494 35.0692 6.21294 35.2232L6.96894 33.7532C7.62694 33.7532 8.25694 33.7812 8.85894 33.8372C9.46094 33.8932 9.99294 34.0122 10.4549 34.1942C10.9169 34.3762 11.2669 34.6352 11.5049 34.9712C11.7429 35.2932 11.8059 35.7272 11.6939 36.2732C11.6099 36.8332 11.3649 37.3582 10.9589 37.8482C10.5529 38.3382 10.0419 38.7792 9.42594 39.1712C8.80994 39.5492 8.13094 39.8432 7.38894 40.0532C6.66094 40.2772 5.91894 40.3892 5.16294 40.3892ZM18.0556 40.1792C17.2296 40.1792 16.5226 40.0322 15.9346 39.7382C15.3466 39.4442 14.9126 39.0592 14.6326 38.5832C14.3526 38.0932 14.2686 37.5682 14.3806 37.0082C14.4226 36.7562 14.5486 36.5322 14.7586 36.3362C14.9826 36.1402 15.2136 36.0422 15.4516 36.0422C15.6756 36.0422 15.8716 36.0982 16.0396 36.2102C16.2076 36.3082 16.3826 36.4272 16.5646 36.5672C16.7466 36.6932 16.9566 36.8052 17.1946 36.9032C17.4466 37.0012 17.7686 37.0502 18.1606 37.0502C18.7766 37.0502 19.2946 36.9242 19.7146 36.6722C20.1486 36.4062 20.4286 35.9652 20.5546 35.3492C20.6526 34.8872 20.6456 34.4672 20.5336 34.0892C20.4216 33.7112 20.2186 33.3892 19.9246 33.1232C19.6446 32.8432 19.3016 32.6332 18.8956 32.4932C18.5036 32.3392 18.0766 32.2622 17.6146 32.2622C17.3906 32.2622 17.1596 32.2832 16.9216 32.3252C16.6976 32.3672 16.4106 32.3882 16.0606 32.3882C15.7666 32.3882 15.5076 32.3182 15.2836 32.1782C15.0596 32.0242 14.8846 31.8282 14.7586 31.5902C14.6326 31.3382 14.5976 31.0652 14.6536 30.7712C14.7936 30.1132 15.1226 29.6652 15.6406 29.4272C16.1586 29.1752 16.8866 29.0492 17.8246 29.0492C18.8606 29.0492 19.7916 29.2102 20.6176 29.5322C21.4436 29.8542 22.1296 30.3162 22.6756 30.9182C23.2216 31.5202 23.5926 32.2412 23.7886 33.0812C23.9986 33.9212 23.9986 34.8452 23.7886 35.8532C23.6626 36.4972 23.4316 37.0782 23.0956 37.5962C22.7596 38.1142 22.3326 38.5692 21.8146 38.9612C21.2966 39.3392 20.7156 39.6402 20.0716 39.8642C19.4416 40.0742 18.7696 40.1792 18.0556 40.1792ZM13.1206 45.4712C12.8406 45.4712 12.5886 45.3942 12.3646 45.2402C12.1406 45.1002 11.9726 44.8832 11.8606 44.5892C11.7346 44.2952 11.7206 43.9242 11.8186 43.4762C11.8746 43.1822 11.9446 42.9162 12.0286 42.6782C12.0986 42.4542 12.1756 42.2232 12.2596 41.9852C12.3576 41.7612 12.4486 41.5022 12.5326 41.2082C12.6306 40.9282 12.7216 40.5782 12.8056 40.1582C12.9736 39.3742 13.0856 38.6252 13.1416 37.9112C13.1976 37.1832 13.2256 36.4692 13.2256 35.7692C13.2396 35.0692 13.2606 34.3622 13.2886 33.6482C13.3166 32.9342 13.3796 32.2062 13.4776 31.4642C13.5056 31.2402 13.5756 31.0512 13.6876 30.8972C13.8136 30.7432 13.9676 30.6242 14.1496 30.5402C14.3316 30.4562 14.5276 30.4142 14.7376 30.4142C15.1296 30.4142 15.4866 30.5052 15.8086 30.6872C16.1446 30.8692 16.3966 31.1072 16.5646 31.4012C16.7326 31.6812 16.7886 32.0032 16.7326 32.3672C16.5646 33.1652 16.4596 33.9282 16.4176 34.6562C16.3756 35.3842 16.3476 36.0912 16.3336 36.7772C16.3336 37.4492 16.3126 38.1282 16.2706 38.8142C16.2426 39.5002 16.1586 40.2142 16.0186 40.9562C15.8926 41.5162 15.7526 42.0622 15.5986 42.5942C15.4586 43.1262 15.2766 43.6092 15.0526 44.0432C14.8286 44.4772 14.5556 44.8202 14.2336 45.0722C13.9256 45.3382 13.5546 45.4712 13.1206 45.4712ZM29.489 40.2002C28.145 40.2002 27.095 39.9762 26.339 39.5282C25.597 39.0662 25.107 38.4572 24.869 37.7012C24.631 36.9452 24.603 36.1122 24.785 35.2022C24.925 34.4462 25.205 33.7112 25.625 32.9972C26.059 32.2692 26.598 31.6112 27.242 31.0232C27.886 30.4352 28.607 29.9662 29.405 29.6162C30.217 29.2662 31.085 29.0912 32.009 29.0912C33.241 29.0912 34.165 29.4202 34.781 30.0782C35.397 30.7362 35.593 31.6462 35.369 32.8082C35.215 33.5922 34.851 34.2292 34.277 34.7192C33.703 35.2092 33.017 35.5662 32.219 35.7902C31.421 36.0002 30.602 36.1052 29.762 36.1052C28.796 36.1052 28.117 35.9652 27.725 35.6852C27.347 35.3912 27.186 35.0762 27.242 34.7402C27.284 34.5442 27.361 34.3972 27.473 34.2992C27.599 34.1872 27.767 34.1312 27.977 34.1312C28.117 34.1312 28.292 34.1522 28.502 34.1942C28.712 34.2362 28.999 34.2572 29.363 34.2572C29.811 34.2572 30.259 34.1942 30.707 34.0682C31.155 33.9422 31.533 33.7672 31.841 33.5432C32.163 33.3192 32.352 33.0672 32.408 32.7872C32.464 32.4932 32.429 32.2762 32.303 32.1362C32.177 31.9822 31.932 31.9052 31.568 31.9052C30.98 31.9052 30.42 32.0732 29.888 32.4092C29.356 32.7452 28.901 33.2002 28.523 33.7742C28.145 34.3482 27.879 34.9782 27.725 35.6642C27.669 35.9862 27.683 36.2942 27.767 36.5882C27.851 36.8822 28.033 37.1132 28.313 37.2812C28.593 37.4492 28.999 37.5332 29.531 37.5332C30.315 37.5332 30.973 37.4632 31.505 37.3232C32.037 37.1692 32.478 36.9942 32.828 36.7982C33.192 36.5882 33.514 36.4062 33.794 36.2522C34.074 36.0982 34.333 36.0212 34.571 36.0212C34.977 36.0212 35.243 36.1682 35.369 36.4622C35.495 36.7562 35.523 37.0782 35.453 37.4282C35.369 37.7922 35.166 38.1422 34.844 38.4782C34.522 38.8142 34.095 39.1082 33.563 39.3602C33.031 39.6122 32.415 39.8152 31.715 39.9692C31.029 40.1232 30.287 40.2002 29.489 40.2002ZM37.8183 40.2212C37.1883 40.2212 36.7333 40.0462 36.4533 39.6962C36.1873 39.3322 36.1243 38.8212 36.2643 38.1632C36.3343 37.7852 36.4603 37.2252 36.6423 36.4832C36.8383 35.7412 37.1043 34.9642 37.4403 34.1522C38.0003 32.7942 38.5043 31.7442 38.9523 31.0022C39.4143 30.2462 39.8483 29.7212 40.2543 29.4272C40.6603 29.1332 41.0663 28.9862 41.4723 28.9862C41.9063 28.9862 42.2633 29.0492 42.5433 29.1752C42.8373 29.3012 43.0683 29.5042 43.2363 29.7842C43.4043 30.0642 43.5233 30.4142 43.5933 30.8342C43.6353 31.1422 43.7053 31.5762 43.8033 32.1362C43.9153 32.6822 44.0413 33.2702 44.1813 33.9002C44.3213 34.5162 44.4753 35.1042 44.6433 35.6642C44.8113 36.2242 44.9793 36.6582 45.1473 36.9662L43.4463 37.1762C43.8943 36.4062 44.3353 35.6712 44.7693 34.9712C45.2173 34.2572 45.6583 33.5782 46.0923 32.9342C46.5263 32.2762 46.9463 31.6602 47.3523 31.0862C47.8003 30.4282 48.2483 29.9242 48.6963 29.5742C49.1443 29.2242 49.5433 29.0492 49.8933 29.0492C50.2293 29.0492 50.5233 29.1052 50.7753 29.2172C51.0413 29.3292 51.2443 29.4552 51.3843 29.5952C51.6363 29.7912 51.8113 30.0222 51.9093 30.2882C52.0213 30.5402 52.0493 30.8902 51.9933 31.3382C51.8673 32.3462 51.7833 33.2562 51.7413 34.0682C51.7133 34.8802 51.7063 35.5872 51.7203 36.1892C51.7203 36.8892 51.7903 37.4912 51.9303 37.9952C52.0703 38.4992 52.1123 38.8912 52.0563 39.1712C51.9863 39.4652 51.7973 39.7102 51.4893 39.9062C51.1813 40.1022 50.7963 40.2002 50.3343 40.2002C49.9143 40.2002 49.5503 40.0462 49.2423 39.7382C48.9483 39.4162 48.7523 38.9682 48.6543 38.3942C48.6123 38.0162 48.5703 37.5472 48.5283 36.9872C48.5003 36.4132 48.5003 35.7342 48.5283 34.9502C48.5563 34.1662 48.6403 33.2632 48.7803 32.2412L49.7673 32.0102C49.4593 32.5002 49.1233 33.0252 48.7593 33.5852C48.3953 34.1452 48.0313 34.7122 47.6673 35.2862C47.3173 35.8462 46.9673 36.3922 46.6173 36.9242C46.2813 37.4562 45.9803 37.9392 45.7143 38.3732C45.5043 38.7232 45.2593 38.9962 44.9793 39.1922C44.7133 39.3742 44.3913 39.4652 44.0133 39.4652C43.5933 39.4652 43.2573 39.3952 43.0053 39.2552C42.7673 39.1012 42.5713 38.8842 42.4173 38.6042C42.2773 38.3242 42.1373 37.9882 41.9973 37.5962C41.9273 37.4142 41.8363 37.1482 41.7243 36.7982C41.6263 36.4342 41.5143 36.0282 41.3883 35.5802C41.2763 35.1182 41.1713 34.6562 41.0733 34.1942C40.9893 33.7322 40.9263 33.3052 40.8843 32.9132C40.8423 32.5072 40.8283 32.1782 40.8423 31.9262L41.9553 31.8632C41.6893 32.1992 41.4093 32.6332 41.1153 33.1652C40.8353 33.6972 40.5763 34.2782 40.3383 34.9082C40.1003 35.5242 39.9113 36.1472 39.7713 36.7772C39.6873 37.2392 39.6173 37.6662 39.5613 38.0582C39.5193 38.4362 39.4773 38.7302 39.4353 38.9402C39.3653 39.3042 39.1763 39.6122 38.8683 39.8642C38.5603 40.1022 38.2103 40.2212 37.8183 40.2212ZM61.211 40.2422C60.721 40.2422 60.35 40.1092 60.098 39.8432C59.86 39.5632 59.727 39.1992 59.699 38.7512C59.685 38.5132 59.685 38.2472 59.699 37.9532C59.713 37.6592 59.741 37.3512 59.783 37.0292C59.825 36.6932 59.874 36.3712 59.93 36.0632C59.972 35.8252 60.042 35.5452 60.14 35.2232C60.238 34.8872 60.336 34.5442 60.434 34.1942C60.546 33.8302 60.644 33.4872 60.728 33.1652C60.812 32.8432 60.875 32.5772 60.917 32.3672C60.987 32.1012 60.973 31.9262 60.875 31.8422C60.791 31.7442 60.63 31.6952 60.392 31.6952C60.168 31.6952 59.895 31.7232 59.573 31.7792C59.251 31.8212 58.95 31.8842 58.67 31.9682C58.25 32.0802 57.851 32.2482 57.473 32.4722C57.109 32.6962 56.899 32.9342 56.843 33.1862C56.815 33.3682 56.871 33.5362 57.011 33.6902C57.165 33.8442 57.41 33.9702 57.746 34.0682C58.082 34.1522 58.523 34.1942 59.069 34.1942C59.391 34.1942 59.748 34.1802 60.14 34.1522C60.532 34.1102 60.91 34.0682 61.274 34.0262C61.652 33.9702 61.981 33.9282 62.261 33.9002C62.555 33.8722 62.765 33.8582 62.891 33.8582C63.283 33.8582 63.612 33.9212 63.878 34.0472C64.158 34.1592 64.263 34.4182 64.193 34.8242C64.109 35.2022 63.906 35.5032 63.584 35.7272C63.262 35.9372 62.856 36.0912 62.366 36.1892C61.89 36.2872 61.365 36.3362 60.791 36.3362H58.04C57.116 36.3362 56.311 36.2102 55.625 35.9582C54.939 35.7062 54.428 35.3422 54.092 34.8662C53.756 34.3762 53.658 33.7952 53.798 33.1232C53.868 32.7452 54.057 32.3252 54.365 31.8632C54.687 31.4012 55.163 30.9532 55.793 30.5192C56.437 30.0852 57.256 29.7352 58.25 29.4692C58.894 29.3012 59.503 29.1892 60.077 29.1332C60.665 29.0772 61.225 29.0492 61.757 29.0492C62.443 29.0492 62.982 29.1332 63.374 29.3012C63.78 29.4692 64.053 29.7072 64.193 30.0152C64.333 30.3092 64.354 30.6802 64.256 31.1282C64.214 31.3662 64.13 31.6672 64.004 32.0312C63.878 32.3952 63.745 32.7872 63.605 33.2072C63.465 33.6132 63.353 34.0402 63.269 34.4882C63.199 34.8242 63.129 35.2092 63.059 35.6432C63.003 36.0772 62.954 36.4832 62.912 36.8612C62.884 37.2392 62.87 37.5262 62.87 37.7222C62.87 37.9322 62.87 38.1422 62.87 38.3522C62.87 38.5622 62.856 38.7512 62.828 38.9192C62.758 39.2552 62.583 39.5632 62.303 39.8432C62.023 40.1092 61.659 40.2422 61.211 40.2422ZM53.798 40.2422C53.378 40.2422 53.063 40.0952 52.853 39.8012C52.657 39.4932 52.601 39.1292 52.685 38.7092C52.741 38.4572 52.86 38.2402 53.042 38.0582C53.238 37.8622 53.553 37.6732 53.987 37.4912C54.715 37.1972 55.45 36.8472 56.192 36.4412C56.934 36.0352 57.62 35.5662 58.25 35.0342L60.119 36.3992C59.643 36.8052 59.104 37.2322 58.502 37.6802C57.914 38.1282 57.319 38.5482 56.717 38.9402C56.115 39.3182 55.555 39.6332 55.037 39.8852C54.533 40.1232 54.12 40.2422 53.798 40.2422ZM63.5085 43.7282C63.1585 43.7282 62.9135 43.6442 62.7735 43.4762C62.6195 43.3082 62.5705 43.0772 62.6265 42.7832C62.6685 42.6012 62.7385 42.4052 62.8365 42.1952C62.9345 41.9852 63.0675 41.7262 63.2355 41.4182C63.5435 40.9002 63.7745 40.4102 63.9285 39.9482C64.0965 39.4722 64.2155 39.0382 64.2855 38.6462C64.3555 38.2542 64.4185 37.9322 64.4745 37.6802C64.5865 37.1482 64.7895 36.7282 65.0835 36.4202C65.3915 36.0982 65.7975 35.9372 66.3015 35.9372C67.0015 35.9372 67.5125 36.1262 67.8345 36.5042C68.1705 36.8682 68.2825 37.3652 68.1705 37.9952C68.0725 38.4572 67.9185 38.9472 67.7085 39.4652C67.5125 39.9692 67.2675 40.4662 66.9735 40.9562C66.6795 41.4462 66.3645 41.8942 66.0285 42.3002C65.7065 42.6922 65.3145 43.0282 64.8525 43.3082C64.3905 43.5882 63.9425 43.7282 63.5085 43.7282ZM76.7062 38.0162C76.8042 37.8342 76.9652 37.5262 77.1892 37.0922C77.4272 36.6582 77.7072 36.1612 78.0292 35.6012C78.3652 35.0272 78.7152 34.4532 79.0792 33.8792C79.4432 33.3052 79.8072 32.7732 80.1712 32.2832C80.8152 31.4292 81.3752 30.7712 81.8512 30.3092C82.3272 29.8332 82.7612 29.5042 83.1532 29.3222C83.5592 29.1262 83.9582 29.0282 84.3502 29.0282C84.7142 29.0282 85.0572 29.1612 85.3792 29.4272C85.7152 29.6792 86.0022 30.1902 86.2402 30.9602C86.3662 31.3382 86.4922 31.8002 86.6182 32.3462C86.7442 32.8782 86.8562 33.4592 86.9542 34.0892C87.0662 34.7052 87.1572 35.3352 87.2272 35.9792C87.2972 36.6232 87.3392 37.2462 87.3532 37.8482L84.3082 38.2892C84.3082 37.6172 84.2592 36.9312 84.1612 36.2312C84.0632 35.5172 83.9512 34.8382 83.8252 34.1942C83.6992 33.5502 83.5592 32.9902 83.4052 32.5142C83.2652 32.0382 83.1462 31.7022 83.0482 31.5062L84.4762 31.6742C84.0422 31.9962 83.6012 32.4232 83.1532 32.9552C82.7192 33.4732 82.2362 34.1452 81.7042 34.9712C81.3682 35.5032 81.0462 36.0282 80.7382 36.5462C80.4302 37.0502 80.1572 37.5122 79.9192 37.9322C79.6952 38.3522 79.5202 38.6882 79.3942 38.9402L76.7062 38.0162ZM86.4712 43.3082C85.9812 43.3082 85.5962 43.1402 85.3162 42.8042C85.0502 42.4682 84.9592 42.0902 85.0432 41.6702C85.0992 41.4462 85.1832 41.1662 85.2952 40.8302C85.4072 40.5082 85.5262 40.1722 85.6522 39.8222C85.7782 39.4722 85.8692 39.1502 85.9252 38.8562L87.6262 39.9482C87.4162 39.9482 87.1082 39.9412 86.7022 39.9272C86.3102 39.8992 85.7712 39.8852 85.0852 39.8852C84.4972 39.8852 83.8672 39.8922 83.1952 39.9062C82.5372 39.9062 81.8652 39.9202 81.1792 39.9482C80.4932 39.9622 79.8352 39.9832 79.2052 40.0112C78.5752 40.0532 77.9942 40.0952 77.4622 40.1372C76.9442 40.1932 76.5102 40.2562 76.1602 40.3262L77.8612 39.0032C77.8192 39.1572 77.7842 39.3812 77.7562 39.6752C77.7422 39.9692 77.7212 40.2772 77.6932 40.5992C77.6652 40.9352 77.6372 41.2502 77.6092 41.5442C77.5952 41.8522 77.5672 42.0972 77.5252 42.2792C77.4832 42.5872 77.3292 42.8252 77.0632 42.9932C76.7972 43.1612 76.5032 43.2452 76.1812 43.2452C75.6352 43.2452 75.2292 43.0632 74.9632 42.6992C74.6832 42.3492 74.5432 41.9152 74.5432 41.3972C74.5572 41.1172 74.5852 40.8232 74.6272 40.5152C74.6552 40.2212 74.6972 39.9342 74.7532 39.6542C74.8092 39.3462 74.8932 39.0522 75.0052 38.7722C75.1032 38.4782 75.2572 38.2332 75.4672 38.0372C75.6912 37.8272 75.9852 37.6872 76.3492 37.6172C76.7272 37.5332 77.2242 37.4632 77.8402 37.4072C78.4562 37.3372 79.1352 37.2812 79.8772 37.2392C80.6332 37.1832 81.4032 37.1482 82.1872 37.1342C82.9712 37.1062 83.7272 37.0922 84.4552 37.0922C84.6932 37.0922 84.9802 37.0992 85.3162 37.1132C85.6662 37.1132 86.0372 37.1202 86.4292 37.1342C86.8212 37.1482 87.2062 37.1762 87.5842 37.2182C88.2282 37.2742 88.6762 37.4492 88.9282 37.7432C89.1802 38.0372 89.2362 38.5482 89.0962 39.2762C89.0122 39.7382 88.8792 40.2002 88.6972 40.6622C88.5292 41.1382 88.3262 41.5722 88.0882 41.9642C87.8642 42.3702 87.6122 42.6922 87.3322 42.9302C87.0662 43.1822 86.7792 43.3082 86.4712 43.3082ZM94.4216 40.2002C93.4136 40.2002 92.5736 40.0672 91.9016 39.8012C91.2436 39.5352 90.7256 39.1712 90.3476 38.7092C89.9836 38.2472 89.7526 37.7152 89.6546 37.1132C89.5566 36.5112 89.5776 35.8742 89.7176 35.2022C89.8576 34.4462 90.1376 33.7112 90.5576 32.9972C90.9916 32.2692 91.5306 31.6112 92.1746 31.0232C92.8186 30.4352 93.5396 29.9662 94.3376 29.6162C95.1496 29.2662 96.0176 29.0912 96.9416 29.0912C97.7676 29.0912 98.4536 29.2382 98.9996 29.5322C99.5456 29.8262 99.9376 30.2532 100.176 30.8132C100.414 31.3592 100.456 32.0242 100.302 32.8082C100.176 33.3962 99.9306 33.9072 99.5666 34.3412C99.2166 34.7612 98.7756 35.1042 98.2436 35.3702C97.7256 35.6222 97.1586 35.8112 96.5426 35.9372C95.9406 36.0492 95.3246 36.1052 94.6946 36.1052C93.7286 36.1052 93.0496 35.9652 92.6576 35.6852C92.2796 35.3912 92.1186 35.0762 92.1746 34.7402C92.2166 34.5442 92.2936 34.3972 92.4056 34.2992C92.5316 34.1872 92.6996 34.1312 92.9096 34.1312C93.0496 34.1312 93.2246 34.1522 93.4346 34.1942C93.6446 34.2362 93.9316 34.2572 94.2956 34.2572C94.7436 34.2572 95.1916 34.1942 95.6396 34.0682C96.0876 33.9422 96.4656 33.7672 96.7736 33.5432C97.0956 33.3192 97.2846 33.0672 97.3406 32.7872C97.3966 32.4932 97.3616 32.2762 97.2356 32.1362C97.1096 31.9822 96.8646 31.9052 96.5006 31.9052C96.0666 31.9052 95.6396 32.0032 95.2196 32.1992C94.7996 32.3812 94.4146 32.6472 94.0646 32.9972C93.7286 33.3472 93.4346 33.7532 93.1826 34.2152C92.9446 34.6632 92.7696 35.1462 92.6576 35.6642C92.6016 35.9862 92.6156 36.2942 92.6996 36.5882C92.7836 36.8822 92.9656 37.1132 93.2456 37.2812C93.5256 37.4492 93.9316 37.5332 94.4636 37.5332C95.2476 37.5332 95.9056 37.4632 96.4376 37.3232C96.9696 37.1692 97.4106 36.9942 97.7606 36.7982C98.1246 36.5882 98.4466 36.4062 98.7266 36.2522C99.0066 36.0982 99.2656 36.0212 99.5036 36.0212C99.9096 36.0212 100.176 36.1682 100.302 36.4622C100.428 36.7562 100.456 37.0782 100.386 37.4282C100.302 37.7922 100.099 38.1422 99.7766 38.4782C99.4546 38.8142 99.0276 39.1082 98.4956 39.3602C97.9636 39.6122 97.3476 39.8152 96.6476 39.9692C95.9616 40.1232 95.2196 40.2002 94.4216 40.2002ZM103.213 40.2212C102.527 40.2212 102.023 39.8992 101.701 39.2552C101.393 38.6112 101.344 37.7572 101.554 36.6932C101.736 35.8252 102.009 35.1462 102.373 34.6562C102.751 34.1522 103.094 33.8022 103.402 33.6062C103.57 33.4942 103.766 33.4172 103.99 33.3752C104.214 33.3192 104.438 33.2912 104.662 33.2912C105.684 33.2912 106.734 33.2422 107.812 33.1442C108.904 33.0462 109.94 32.8222 110.92 32.4722L111.403 34.9922C110.647 35.3002 109.842 35.5382 108.988 35.7062C108.148 35.8602 107.294 35.9652 106.426 36.0212C105.572 36.0632 104.739 36.0842 103.927 36.0842L102.205 35.5172C102.373 34.6912 102.555 33.8582 102.751 33.0182C102.947 32.1782 103.115 31.3942 103.255 30.6662C103.367 30.2182 103.535 29.8262 103.759 29.4902C103.997 29.1402 104.326 28.9652 104.746 28.9652C105.432 28.9652 105.901 29.1752 106.153 29.5952C106.405 30.0012 106.461 30.5682 106.321 31.2962C106.251 31.6322 106.16 32.0102 106.048 32.4302C105.95 32.8362 105.838 33.2562 105.712 33.6902C105.6 34.1242 105.488 34.5372 105.376 34.9292C105.278 35.3072 105.201 35.6292 105.145 35.8952C105.061 36.3852 104.97 36.8752 104.872 37.3652C104.774 37.8412 104.662 38.3802 104.536 38.9822C104.48 39.3322 104.326 39.6262 104.074 39.8642C103.822 40.1022 103.535 40.2212 103.213 40.2212ZM110.731 40.2212C110.213 40.2212 109.828 40.0112 109.576 39.5912C109.338 39.1712 109.205 38.6112 109.177 37.9112C109.163 37.2112 109.24 36.4342 109.408 35.5802C109.674 34.2362 109.926 33.1442 110.164 32.3042C110.416 31.4642 110.626 30.8062 110.794 30.3302C110.948 29.9242 111.193 29.5882 111.529 29.3222C111.865 29.0562 112.243 28.9232 112.663 28.9232C113.055 28.9232 113.384 29.0702 113.65 29.3642C113.916 29.6442 114.014 29.9732 113.944 30.3512C113.846 30.8552 113.678 31.4292 113.44 32.0732C113.216 32.7032 113.013 33.4662 112.831 34.3622C112.691 35.0482 112.6 35.6572 112.558 36.1892C112.53 36.7212 112.509 37.1972 112.495 37.6172C112.481 38.0232 112.439 38.4152 112.369 38.7932C112.285 39.1712 112.103 39.5072 111.823 39.8012C111.557 40.0812 111.193 40.2212 110.731 40.2212ZM117.715 40.2002C116.931 40.2002 116.294 40.0812 115.804 39.8432C115.314 39.5912 114.936 39.2692 114.67 38.8772C114.418 38.4712 114.264 38.0302 114.208 37.5542C114.166 37.0782 114.194 36.6022 114.292 36.1262C114.446 35.3562 114.649 34.6072 114.901 33.8792C115.167 33.1512 115.342 32.5772 115.426 32.1572C115.51 31.7092 115.559 31.3522 115.573 31.0862C115.587 30.8062 115.629 30.5052 115.699 30.1832C115.741 29.9872 115.839 29.7912 115.993 29.5952C116.147 29.3992 116.35 29.2382 116.602 29.1122C116.868 28.9722 117.148 28.9022 117.442 28.9022C117.974 28.9022 118.366 29.0842 118.618 29.4482C118.87 29.8122 118.926 30.3232 118.786 30.9812C118.716 31.3032 118.618 31.6602 118.492 32.0522C118.38 32.4442 118.261 32.8432 118.135 33.2492C118.009 33.6552 117.89 34.0402 117.778 34.4042C117.666 34.7542 117.582 35.0692 117.526 35.3492C117.47 35.6712 117.428 35.9862 117.4 36.2942C117.372 36.6022 117.421 36.8612 117.547 37.0712C117.687 37.2672 117.967 37.3652 118.387 37.3652C118.653 37.3652 118.94 37.3022 119.248 37.1762C119.556 37.0502 119.85 36.8892 120.13 36.6932C120.424 36.4832 120.662 36.2592 120.844 36.0212C121.04 35.7692 121.152 35.5242 121.18 35.2862C121.208 35.1462 121.145 35.0482 120.991 34.9922C120.851 34.9362 120.634 34.9082 120.34 34.9082C119.976 34.9082 119.556 34.9292 119.08 34.9712C118.604 35.0132 118.149 35.0622 117.715 35.1182C117.295 35.1742 116.987 35.2092 116.791 35.2232C116.511 35.2232 116.252 35.1882 116.014 35.1182C115.776 35.0482 115.587 34.9222 115.447 34.7402C115.321 34.5582 115.286 34.3202 115.342 34.0262C115.426 33.6342 115.594 33.3682 115.846 33.2282C116.098 33.0742 116.427 32.9342 116.833 32.8082C117.043 32.7382 117.337 32.6612 117.715 32.5772C118.107 32.4932 118.541 32.4162 119.017 32.3462C119.493 32.2622 119.969 32.1922 120.445 32.1362C120.921 32.0802 121.348 32.0522 121.726 32.0522C122.44 32.0522 123.007 32.1642 123.427 32.3882C123.847 32.6122 124.127 32.9482 124.267 33.3962C124.407 33.8302 124.421 34.3762 124.309 35.0342C124.197 35.6782 123.931 36.3152 123.511 36.9452C123.105 37.5612 122.587 38.1142 121.957 38.6042C121.341 39.0942 120.662 39.4862 119.92 39.7802C119.192 40.0602 118.457 40.2002 117.715 40.2002ZM126.34 40.2002C125.808 40.2002 125.402 40.0182 125.122 39.6542C124.856 39.2902 124.751 38.8562 124.807 38.3522C124.821 38.1142 124.856 37.7992 124.912 37.4072C124.982 37.0152 125.052 36.5882 125.122 36.1262C125.206 35.6502 125.29 35.1812 125.374 34.7192C125.472 34.2572 125.556 33.8302 125.626 33.4382C125.696 33.0322 125.759 32.6962 125.815 32.4302C125.983 31.5482 126.235 30.8342 126.571 30.2882C126.907 29.7282 127.383 29.3922 127.999 29.2802C128.461 29.2102 128.979 29.1612 129.553 29.1332C130.141 29.1052 130.743 29.0912 131.359 29.0912C131.793 29.0912 132.234 29.0982 132.682 29.1122C133.144 29.1262 133.564 29.1682 133.942 29.2382C134.334 29.3082 134.642 29.4132 134.866 29.5532C135.132 29.7212 135.307 29.9312 135.391 30.1832C135.489 30.4212 135.51 30.6662 135.454 30.9182C135.37 31.3522 135.132 31.6742 134.74 31.8842C134.348 32.0802 133.935 32.1782 133.501 32.1782C133.207 32.1782 132.913 32.1712 132.619 32.1572C132.325 32.1292 132.01 32.1012 131.674 32.0732C131.338 32.0312 130.967 32.0102 130.561 32.0102C130.001 32.0102 129.497 32.0452 129.049 32.1152C128.601 32.1852 128.125 32.2762 127.621 32.3882L129.385 31.1702C129.273 31.5202 129.161 31.9122 129.049 32.3462C128.951 32.7662 128.846 33.2212 128.734 33.7112C128.622 34.1872 128.51 34.6982 128.398 35.2442C128.286 35.8182 128.188 36.3572 128.104 36.8612C128.034 37.3652 127.971 37.8132 127.915 38.2052C127.859 38.5832 127.817 38.8772 127.789 39.0872C127.719 39.4652 127.558 39.7452 127.306 39.9272C127.068 40.1092 126.746 40.2002 126.34 40.2002ZM137.201 40.2422C136.613 40.2422 136.13 40.1302 135.752 39.9062C135.374 39.6682 135.094 39.3532 134.912 38.9612C134.73 38.5552 134.625 38.1072 134.597 37.6172C134.569 37.1132 134.611 36.5952 134.723 36.0632C134.807 35.6292 134.919 35.1532 135.059 34.6352C135.199 34.1032 135.346 33.5782 135.5 33.0602C135.654 32.5422 135.808 32.0592 135.962 31.6112C136.116 31.1632 136.242 30.8062 136.34 30.5402C136.522 30.0502 136.746 29.6862 137.012 29.4482C137.292 29.1962 137.572 29.0702 137.852 29.0702C138.188 29.0702 138.482 29.1472 138.734 29.3012C139 29.4412 139.196 29.6302 139.322 29.8682C139.462 30.1062 139.504 30.3722 139.448 30.6662C139.406 30.8762 139.315 31.1702 139.175 31.5482C139.049 31.9122 138.909 32.3182 138.755 32.7662C138.601 33.2002 138.447 33.6482 138.293 34.1102C138.153 34.5582 138.041 34.9922 137.957 35.4122C137.901 35.6642 137.859 35.9162 137.831 36.1682C137.803 36.4062 137.803 36.6092 137.831 36.7772C137.873 36.9452 137.971 37.0292 138.125 37.0292C138.461 37.0292 138.874 36.7562 139.364 36.2102C139.854 35.6642 140.365 34.9712 140.897 34.1312C141.331 33.5012 141.709 32.8852 142.031 32.2832C142.367 31.6812 142.675 31.1422 142.955 30.6662C143.249 30.1762 143.536 29.7842 143.816 29.4902C144.11 29.1962 144.446 29.0492 144.824 29.0492C145.398 29.0492 145.797 29.2102 146.021 29.5322C146.259 29.8402 146.364 30.2322 146.336 30.7082C146.322 31.0862 146.308 31.5482 146.294 32.0942C146.294 32.6262 146.294 33.1582 146.294 33.6902C146.308 34.2082 146.322 34.6142 146.336 34.9082C146.392 35.5522 146.476 36.0772 146.588 36.4832C146.714 36.8892 146.819 37.2462 146.903 37.5542C147.001 37.8622 147.022 38.1772 146.966 38.4992C146.91 38.7932 146.784 39.0662 146.588 39.3182C146.392 39.5702 146.154 39.7802 145.874 39.9482C145.608 40.1022 145.321 40.1792 145.013 40.1792C144.411 40.1792 143.991 39.8642 143.753 39.2342C143.529 38.6042 143.382 37.7362 143.312 36.6302C143.27 36.1122 143.242 35.5872 143.228 35.0552C143.228 34.5232 143.235 33.9982 143.249 33.4802C143.263 32.9622 143.284 32.4792 143.312 32.0312L144.446 32.5982C144.278 32.9342 144.033 33.4032 143.711 34.0052C143.389 34.5932 142.92 35.3982 142.304 36.4202C141.898 37.1202 141.408 37.7642 140.834 38.3522C140.274 38.9262 139.679 39.3882 139.049 39.7382C138.433 40.0742 137.817 40.2422 137.201 40.2422ZM4.23894 65.2422C3.65094 65.2422 3.16794 65.1302 2.78994 64.9062C2.41194 64.6682 2.13194 64.3532 1.94994 63.9612C1.76794 63.5552 1.66294 63.1072 1.63494 62.6172C1.60694 62.1132 1.64894 61.5952 1.76094 61.0632C1.84494 60.6292 1.95694 60.1532 2.09694 59.6352C2.23694 59.1032 2.38394 58.5782 2.53794 58.0602C2.69194 57.5422 2.84594 57.0592 2.99994 56.6112C3.15394 56.1632 3.27994 55.8062 3.37794 55.5402C3.55994 55.0502 3.78394 54.6862 4.04994 54.4482C4.32994 54.1962 4.60994 54.0702 4.88994 54.0702C5.22594 54.0702 5.51994 54.1472 5.77194 54.3012C6.03794 54.4412 6.23394 54.6302 6.35994 54.8682C6.49994 55.1062 6.54194 55.3722 6.48594 55.6662C6.44394 55.8762 6.35294 56.1702 6.21294 56.5482C6.08694 56.9122 5.94694 57.3182 5.79294 57.7662C5.63894 58.2002 5.48494 58.6482 5.33094 59.1102C5.19094 59.5582 5.07894 59.9922 4.99494 60.4122C4.93894 60.6642 4.89694 60.9162 4.86894 61.1682C4.84094 61.4062 4.84094 61.6092 4.86894 61.7772C4.91094 61.9452 5.00894 62.0292 5.16294 62.0292C5.49894 62.0292 5.91194 61.7562 6.40194 61.2102C6.89194 60.6642 7.40294 59.9712 7.93494 59.1312C8.36894 58.5012 8.74694 57.8852 9.06894 57.2832C9.40494 56.6812 9.71294 56.1422 9.99294 55.6662C10.2869 55.1762 10.5739 54.7842 10.8539 54.4902C11.1479 54.1962 11.4839 54.0492 11.8619 54.0492C12.4359 54.0492 12.8349 54.2102 13.0589 54.5322C13.2969 54.8402 13.4019 55.2322 13.3739 55.7082C13.3599 56.0862 13.3459 56.5482 13.3319 57.0942C13.3319 57.6262 13.3319 58.1582 13.3319 58.6902C13.3459 59.2082 13.3599 59.6142 13.3739 59.9082C13.4299 60.5522 13.5139 61.0772 13.6259 61.4832C13.7519 61.8892 13.8569 62.2462 13.9409 62.5542C14.0389 62.8622 14.0599 63.1772 14.0039 63.4992C13.9479 63.7932 13.8219 64.0662 13.6259 64.3182C13.4299 64.5702 13.1919 64.7802 12.9119 64.9482C12.6459 65.1022 12.3589 65.1792 12.0509 65.1792C11.4489 65.1792 11.0289 64.8642 10.7909 64.2342C10.5669 63.6042 10.4199 62.7362 10.3499 61.6302C10.3079 61.1122 10.2799 60.5872 10.2659 60.0552C10.2659 59.5232 10.2729 58.9982 10.2869 58.4802C10.3009 57.9622 10.3219 57.4792 10.3499 57.0312L11.4839 57.5982C11.3159 57.9342 11.0709 58.4032 10.7489 59.0052C10.4269 59.5932 9.95794 60.3982 9.34194 61.4202C8.93594 62.1202 8.44594 62.7642 7.87194 63.3522C7.31194 63.9262 6.71694 64.3882 6.08694 64.7382C5.47094 65.0742 4.85494 65.2422 4.23894 65.2422ZM23.2677 65.2212C22.8057 65.2212 22.4207 65.0742 22.1127 64.7802C21.8187 64.4862 21.6227 64.0802 21.5247 63.5622C21.4407 63.0302 21.4687 62.4072 21.6087 61.6932C21.7907 60.8252 22.0637 60.1462 22.4277 59.6562C22.8057 59.1522 23.1487 58.8022 23.4567 58.6062C23.6247 58.4942 23.8207 58.4172 24.0447 58.3752C24.2687 58.3192 24.4927 58.2912 24.7167 58.2912C25.7387 58.2912 26.7887 58.2422 27.8667 58.1442C28.9587 58.0462 29.9947 57.8222 30.9747 57.4722L31.4577 59.9922C30.7017 60.3002 29.8967 60.5382 29.0427 60.7062C28.2027 60.8602 27.3487 60.9652 26.4807 61.0212C25.6267 61.0632 24.7937 61.0842 23.9817 61.0842L22.2597 60.5172C22.4277 59.6912 22.6097 58.8582 22.8057 58.0182C23.0017 57.1782 23.1697 56.3942 23.3097 55.6662C23.4217 55.2182 23.5897 54.8262 23.8137 54.4902C24.0517 54.1402 24.3807 53.9652 24.8007 53.9652C25.4867 53.9652 25.9557 54.1752 26.2077 54.5952C26.4597 55.0012 26.5157 55.5682 26.3757 56.2962C26.3057 56.6322 26.2147 57.0102 26.1027 57.4302C26.0047 57.8362 25.8927 58.2562 25.7667 58.6902C25.6547 59.1242 25.5427 59.5372 25.4307 59.9292C25.3327 60.3072 25.2557 60.6292 25.1997 60.8952C25.1157 61.3852 25.0247 61.8752 24.9267 62.3652C24.8287 62.8412 24.7167 63.3802 24.5907 63.9822C24.5347 64.3322 24.3807 64.6262 24.1287 64.8642C23.8767 65.1022 23.5897 65.2212 23.2677 65.2212ZM30.7857 65.2212C30.2677 65.2212 29.8827 65.0112 29.6307 64.5912C29.3927 64.1712 29.2597 63.6112 29.2317 62.9112C29.2177 62.2112 29.2947 61.4342 29.4627 60.5802C29.7287 59.2362 29.9807 58.1442 30.2187 57.3042C30.4707 56.4642 30.6807 55.8062 30.8487 55.3302C31.0027 54.9242 31.2477 54.5882 31.5837 54.3222C31.9197 54.0562 32.2977 53.9232 32.7177 53.9232C33.1097 53.9232 33.4387 54.0702 33.7047 54.3642C33.9707 54.6442 34.0687 54.9732 33.9987 55.3512C33.9007 55.8552 33.7327 56.4292 33.4947 57.0732C33.2707 57.7032 33.0677 58.4662 32.8857 59.3622C32.7457 60.0482 32.6547 60.6572 32.6127 61.1892C32.5847 61.7212 32.5637 62.1972 32.5497 62.6172C32.5357 63.0232 32.4937 63.4152 32.4237 63.7932C32.3397 64.1712 32.1577 64.5072 31.8777 64.8012C31.6117 65.0812 31.2477 65.2212 30.7857 65.2212ZM38.9644 65.2002C37.9564 65.2002 37.1164 65.0672 36.4444 64.8012C35.7864 64.5352 35.2684 64.1712 34.8904 63.7092C34.5264 63.2472 34.2954 62.7152 34.1974 62.1132C34.0994 61.5112 34.1204 60.8742 34.2604 60.2022C34.4004 59.4462 34.6804 58.7112 35.1004 57.9972C35.5344 57.2692 36.0734 56.6112 36.7174 56.0232C37.3614 55.4352 38.0824 54.9662 38.8804 54.6162C39.6924 54.2662 40.5604 54.0912 41.4844 54.0912C42.3104 54.0912 42.9964 54.2382 43.5424 54.5322C44.0884 54.8262 44.4804 55.2532 44.7184 55.8132C44.9564 56.3592 44.9984 57.0242 44.8444 57.8082C44.7184 58.3962 44.4734 58.9072 44.1094 59.3412C43.7594 59.7612 43.3184 60.1042 42.7864 60.3702C42.2684 60.6222 41.7014 60.8112 41.0854 60.9372C40.4834 61.0492 39.8674 61.1052 39.2374 61.1052C38.2714 61.1052 37.5924 60.9652 37.2004 60.6852C36.8224 60.3912 36.6614 60.0762 36.7174 59.7402C36.7594 59.5442 36.8364 59.3972 36.9484 59.2992C37.0744 59.1872 37.2424 59.1312 37.4524 59.1312C37.5924 59.1312 37.7674 59.1522 37.9774 59.1942C38.1874 59.2362 38.4744 59.2572 38.8384 59.2572C39.2864 59.2572 39.7344 59.1942 40.1824 59.0682C40.6304 58.9422 41.0084 58.7672 41.3164 58.5432C41.6384 58.3192 41.8274 58.0672 41.8834 57.7872C41.9394 57.4932 41.9044 57.2762 41.7784 57.1362C41.6524 56.9822 41.4074 56.9052 41.0434 56.9052C40.6094 56.9052 40.1824 57.0032 39.7624 57.1992C39.3424 57.3812 38.9574 57.6472 38.6074 57.9972C38.2714 58.3472 37.9774 58.7532 37.7254 59.2152C37.4874 59.6632 37.3124 60.1462 37.2004 60.6642C37.1444 60.9862 37.1584 61.2942 37.2424 61.5882C37.3264 61.8822 37.5084 62.1132 37.7884 62.2812C38.0684 62.4492 38.4744 62.5332 39.0064 62.5332C39.7904 62.5332 40.4484 62.4632 40.9804 62.3232C41.5124 62.1692 41.9534 61.9942 42.3034 61.7982C42.6674 61.5882 42.9894 61.4062 43.2694 61.2522C43.5494 61.0982 43.8084 61.0212 44.0464 61.0212C44.4524 61.0212 44.7184 61.1682 44.8444 61.4622C44.9704 61.7562 44.9984 62.0782 44.9284 62.4282C44.8444 62.7922 44.6414 63.1422 44.3194 63.4782C43.9974 63.8142 43.5704 64.1082 43.0384 64.3602C42.5064 64.6122 41.8904 64.8152 41.1904 64.9692C40.5044 65.1232 39.7624 65.2002 38.9644 65.2002ZM51.1577 65.1792C50.3317 65.1792 49.6247 65.0322 49.0367 64.7382C48.4487 64.4442 48.0147 64.0592 47.7347 63.5832C47.4547 63.0932 47.3707 62.5682 47.4827 62.0082C47.5247 61.7562 47.6507 61.5322 47.8607 61.3362C48.0847 61.1402 48.3157 61.0422 48.5537 61.0422C48.7777 61.0422 48.9737 61.0982 49.1417 61.2102C49.3097 61.3082 49.4847 61.4272 49.6667 61.5672C49.8487 61.6932 50.0587 61.8052 50.2967 61.9032C50.5487 62.0012 50.8707 62.0502 51.2627 62.0502C51.8787 62.0502 52.3967 61.9242 52.8167 61.6722C53.2507 61.4062 53.5307 60.9652 53.6567 60.3492C53.7547 59.8872 53.7477 59.4672 53.6357 59.0892C53.5237 58.7112 53.3207 58.3892 53.0267 58.1232C52.7467 57.8432 52.4037 57.6332 51.9977 57.4932C51.6057 57.3392 51.1787 57.2622 50.7167 57.2622C50.4927 57.2622 50.2617 57.2832 50.0237 57.3252C49.7997 57.3672 49.5127 57.3882 49.1627 57.3882C48.8687 57.3882 48.6097 57.3182 48.3857 57.1782C48.1617 57.0242 47.9867 56.8282 47.8607 56.5902C47.7347 56.3382 47.6997 56.0652 47.7557 55.7712C47.8957 55.1132 48.2247 54.6652 48.7427 54.4272C49.2607 54.1752 49.9887 54.0492 50.9267 54.0492C51.9627 54.0492 52.8937 54.2102 53.7197 54.5322C54.5457 54.8542 55.2317 55.3162 55.7777 55.9182C56.3237 56.5202 56.6947 57.2412 56.8907 58.0812C57.1007 58.9212 57.1007 59.8452 56.8907 60.8532C56.7647 61.4972 56.5337 62.0782 56.1977 62.5962C55.8617 63.1142 55.4347 63.5692 54.9167 63.9612C54.3987 64.3392 53.8177 64.6402 53.1737 64.8642C52.5437 65.0742 51.8717 65.1792 51.1577 65.1792ZM46.2227 70.4712C45.9427 70.4712 45.6907 70.3942 45.4667 70.2402C45.2427 70.1002 45.0747 69.8832 44.9627 69.5892C44.8367 69.2952 44.8227 68.9242 44.9207 68.4762C44.9767 68.1822 45.0467 67.9162 45.1307 67.6782C45.2007 67.4542 45.2777 67.2232 45.3617 66.9852C45.4597 66.7612 45.5507 66.5022 45.6347 66.2082C45.7327 65.9282 45.8237 65.5782 45.9077 65.1582C46.1177 64.1082 46.2367 63.1142 46.2647 62.1762C46.3067 61.2242 46.3347 60.2862 46.3487 59.3622C46.3627 58.4382 46.4397 57.4722 46.5797 56.4642C46.6217 56.1422 46.7547 55.8902 46.9787 55.7082C47.2167 55.5122 47.5037 55.4142 47.8397 55.4142C48.2317 55.4142 48.5887 55.5052 48.9107 55.6872C49.2467 55.8692 49.4987 56.1072 49.6667 56.4012C49.8347 56.6812 49.8907 57.0032 49.8347 57.3672C49.6667 58.1652 49.5617 58.9282 49.5197 59.6562C49.4777 60.3842 49.4497 61.0912 49.4357 61.7772C49.4357 62.4492 49.4147 63.1282 49.3727 63.8142C49.3447 64.5002 49.2607 65.2142 49.1207 65.9562C48.9947 66.5162 48.8547 67.0622 48.7007 67.5942C48.5607 68.1262 48.3787 68.6092 48.1547 69.0432C47.9307 69.4772 47.6577 69.8202 47.3357 70.0722C47.0277 70.3382 46.6567 70.4712 46.2227 70.4712ZM61.6251 65.3892C60.8691 65.3892 60.2251 65.2702 59.6931 65.0322C59.1751 64.7942 58.7621 64.4582 58.4541 64.0242C58.1461 63.5762 57.9431 63.0652 57.8451 62.4912C57.7611 61.9032 57.7891 61.2592 57.9291 60.5592C58.0411 60.0132 58.2021 59.3832 58.4121 58.6692C58.6221 57.9552 58.8811 57.2622 59.1891 56.5902C59.4971 55.9042 59.8331 55.3302 60.1971 54.8682C60.3511 54.6722 60.5541 54.5042 60.8061 54.3642C61.0581 54.2242 61.3311 54.1192 61.6251 54.0492C61.9331 53.9652 62.2271 53.9232 62.5071 53.9232C62.8011 53.9232 63.0181 54.0142 63.1581 54.1962C63.3121 54.3642 63.3541 54.6442 63.2841 55.0362C63.2281 55.2882 63.1021 55.6032 62.9061 55.9812C62.7101 56.3452 62.4861 56.7792 62.2341 57.2832C61.9821 57.7732 61.7371 58.3262 61.4991 58.9422C61.2611 59.5442 61.0651 60.2092 60.9111 60.9372C60.7991 61.4972 60.8201 61.9802 60.9741 62.3862C61.1281 62.7782 61.4711 62.9742 62.0031 62.9742C62.4091 62.9742 62.8151 62.8832 63.2211 62.7012C63.6271 62.5052 63.9981 62.2392 64.3341 61.9032C64.6701 61.5672 64.9361 61.1892 65.1321 60.7692L65.2791 61.1892C65.0971 61.1192 64.8171 61.0422 64.4391 60.9582C64.0751 60.8742 63.6691 60.8042 63.2211 60.7482C62.7871 60.6922 62.3531 60.6432 61.9191 60.6012C61.4851 60.5592 61.1001 60.5452 60.7641 60.5592L61.2891 58.8162C61.7091 58.8162 62.1501 58.7532 62.6121 58.6272C63.0741 58.4872 63.5151 58.3262 63.9351 58.1442C64.3551 57.9482 64.6981 57.7452 64.9641 57.5352C65.2441 57.3112 65.4051 57.1012 65.4471 56.9052C65.4751 56.7652 65.4121 56.6602 65.2581 56.5902C65.1181 56.5062 64.8941 56.4642 64.5861 56.4642C64.0681 56.4642 63.5781 56.5272 63.1161 56.6532C62.6681 56.7652 62.2551 56.8912 61.8771 57.0312C61.5131 57.1712 61.1701 57.2622 60.8481 57.3042C60.5681 57.3182 60.3441 57.2412 60.1761 57.0732C60.0221 56.9052 59.9731 56.6672 60.0291 56.3592C60.0991 56.0092 60.2951 55.7082 60.6171 55.4562C60.9531 55.1902 61.3381 54.9872 61.7721 54.8472C62.5981 54.5672 63.3751 54.3852 64.1031 54.3012C64.8311 54.2032 65.5031 54.1542 66.1191 54.1542C66.7351 54.1542 67.2671 54.2312 67.7151 54.3852C68.1771 54.5252 68.5201 54.7562 68.7441 55.0782C68.9681 55.3862 69.0311 55.7782 68.9331 56.2542C68.8351 56.6602 68.6251 57.0662 68.3031 57.4722C67.9811 57.8782 67.5471 58.2632 67.0011 58.6272C66.4551 58.9772 65.8181 59.2922 65.0901 59.5722C64.3621 59.8522 63.5571 60.0692 62.6751 60.2232L63.4311 58.7532C64.0891 58.7532 64.7191 58.7812 65.3211 58.8372C65.9231 58.8932 66.4551 59.0122 66.9171 59.1942C67.3791 59.3762 67.7291 59.6352 67.9671 59.9712C68.2051 60.2932 68.2681 60.7272 68.1561 61.2732C68.0721 61.8332 67.8271 62.3582 67.4211 62.8482C67.0151 63.3382 66.5041 63.7792 65.8881 64.1712C65.2721 64.5492 64.5931 64.8432 63.8511 65.0532C63.1231 65.2772 62.3811 65.3892 61.6251 65.3892ZM72.3177 65.3472C71.6037 65.3472 70.9947 65.1722 70.4907 64.8222C70.0007 64.4722 69.6577 63.9892 69.4617 63.3732C69.2657 62.7432 69.2447 62.0292 69.3987 61.2312C69.5527 60.3772 69.6997 59.5442 69.8397 58.7322C69.9937 57.9062 70.1197 57.2062 70.2177 56.6322C70.3297 56.0442 70.3927 55.6872 70.4067 55.5612C70.4627 55.2392 70.5887 54.9592 70.7847 54.7212C70.9807 54.4832 71.2257 54.3012 71.5197 54.1752C71.8277 54.0352 72.1497 53.9652 72.4857 53.9652C72.8497 53.9652 73.1577 54.1052 73.4097 54.3852C73.6757 54.6512 73.7667 55.0502 73.6827 55.5822C73.6267 56.0162 73.5147 56.5412 73.3467 57.1572C73.1787 57.7592 73.0317 58.3682 72.9057 58.9842C72.8917 59.1102 72.8497 59.2992 72.7797 59.5512C72.7097 59.7892 72.6327 60.0412 72.5487 60.3072C72.4787 60.5592 72.4297 60.7832 72.4017 60.9792C72.3317 61.3572 72.3527 61.6652 72.4647 61.9032C72.5767 62.1412 72.7867 62.2602 73.0947 62.2602C73.2627 62.2602 73.4517 62.2252 73.6617 62.1552C73.8717 62.0852 74.0677 61.9872 74.2497 61.8612C74.4317 61.7352 74.5787 61.5952 74.6907 61.4412C74.8167 61.2732 74.8937 61.0982 74.9217 60.9162C74.9497 60.6642 74.8867 60.4542 74.7327 60.2862C74.5927 60.1182 74.3897 59.9782 74.1237 59.8662C73.9557 59.7962 73.7317 59.7192 73.4517 59.6352C73.1717 59.5512 72.8847 59.4742 72.5907 59.4042C72.3107 59.3202 72.0587 59.2642 71.8347 59.2362L72.3597 56.9052C72.8637 56.7792 73.4167 56.6462 74.0187 56.5062C74.6207 56.3522 75.2437 56.1912 75.8877 56.0232C76.5317 55.8412 77.1617 55.6592 77.7777 55.4772C78.4637 55.2672 79.1007 55.0572 79.6887 54.8472C80.2767 54.6232 80.8017 54.4412 81.2637 54.3012C81.7397 54.1472 82.1387 54.0702 82.4607 54.0702C83.2307 54.0702 83.7837 54.2732 84.1197 54.6792C84.4697 55.0852 84.5747 55.6522 84.4347 56.3802C84.3787 56.7022 84.3017 57.0522 84.2037 57.4302C84.1057 57.8082 84.0147 58.2212 83.9307 58.6692C83.8607 59.0332 83.7837 59.4462 83.6997 59.9082C83.6157 60.3562 83.5387 60.8042 83.4687 61.2522C83.4127 61.6862 83.3847 62.0712 83.3847 62.4072C83.3707 62.5892 83.3567 62.8132 83.3427 63.0792C83.3427 63.3312 83.3287 63.5342 83.3007 63.6882C83.2447 63.9542 83.1257 64.2062 82.9437 64.4442C82.7617 64.6822 82.5377 64.8712 82.2717 65.0112C82.0197 65.1652 81.7257 65.2422 81.3897 65.2422C80.9417 65.2422 80.5987 65.0742 80.3607 64.7382C80.1367 64.3882 80.0247 63.9822 80.0247 63.5202C80.0107 62.9462 80.0597 62.2882 80.1717 61.5462C80.2977 60.8042 80.4237 60.0972 80.5497 59.4252C80.6197 59.1172 80.6897 58.8092 80.7597 58.5012C80.8297 58.1792 80.8997 57.8782 80.9697 57.5982C81.0397 57.3182 81.1027 57.0662 81.1587 56.8422C81.2147 56.6182 81.2567 56.4432 81.2847 56.3172L81.8937 56.8422C81.6697 56.9542 81.3057 57.0942 80.8017 57.2622C80.3117 57.4302 79.7377 57.6192 79.0797 57.8292C78.4217 58.0252 77.7147 58.2212 76.9587 58.4172C76.2027 58.5992 75.4537 58.7672 74.7117 58.9212C73.9837 59.0612 73.2977 59.1802 72.6537 59.2782L73.0947 57.6822C73.2347 57.6542 73.4097 57.6332 73.6197 57.6192C73.8437 57.6052 74.1097 57.5982 74.4177 57.5982C74.5857 57.5982 74.8307 57.6262 75.1527 57.6822C75.4747 57.7382 75.8247 57.8362 76.2027 57.9762C76.5807 58.1162 76.9237 58.3052 77.2317 58.5432C77.5537 58.7812 77.8057 59.0822 77.9877 59.4462C78.1697 59.8102 78.2117 60.2512 78.1137 60.7692C77.9877 61.4692 77.7287 62.0992 77.3367 62.6592C76.9447 63.2192 76.4617 63.7022 75.8877 64.1082C75.3277 64.5002 74.7327 64.8012 74.1027 65.0112C73.4727 65.2352 72.8777 65.3472 72.3177 65.3472Z" fill="#1455FD"/>
</svg>
