<svg width="20" height="20" viewBox="0 0 20 20" fill="none" xmlns="http://www.w3.org/2000/svg">
<g clip-path="url(#clip0_131_1561)">
<path d="M10 19.5C15.2467 19.5 19.5 15.2467 19.5 10C19.5 4.75329 15.2467 0.5 10 0.5C4.75329 0.5 0.5 4.75329 0.5 10C0.5 15.2467 4.75329 19.5 10 19.5Z" fill="url(#paint0_linear_131_1561)"/>
<path d="M8.25837 14.3543C7.9506 14.3543 8.00289 14.2381 7.89675 13.9451L6.9917 10.9665L13.9584 6.8335" fill="#C8DAEA"/>
<path d="M8.2583 14.3541C8.4958 14.3541 8.60074 14.2455 8.7333 14.1166L9.99997 12.8849L8.41996 11.9321" fill="#A9C9DD"/>
<path d="M8.41978 11.9325L12.2483 14.7611C12.6852 15.0021 13.0005 14.8773 13.1093 14.3555L14.6677 7.01174C14.8272 6.37206 14.4238 6.08193 14.0059 6.27168L4.85503 9.80021C4.2304 10.0508 4.23404 10.3992 4.74117 10.5545L7.08949 11.2875L12.5261 7.85757C12.7828 7.70193 13.0183 7.7856 12.825 7.95719" fill="url(#paint1_linear_131_1561)"/>
</g>
<defs>
<linearGradient id="paint0_linear_131_1561" x1="13.1673" y1="3.6673" x2="8.4173" y2="14.75" gradientUnits="userSpaceOnUse">
<stop stop-color="#37AEE2"/>
<stop offset="1" stop-color="#1E96C8"/>
</linearGradient>
<linearGradient id="paint1_linear_131_1561" x1="11.1878" y1="9.99999" x2="12.6745" y2="13.383" gradientUnits="userSpaceOnUse">
<stop stop-color="#EFF7FC"/>
<stop offset="1" stop-color="white"/>
</linearGradient>
<clipPath id="clip0_131_1561">
<rect width="19" height="19" fill="white" transform="translate(0.5 0.5)"/>
</clipPath>
</defs>
</svg>
