<svg width="23" height="24" viewBox="0 0 23 24" fill="none" xmlns="http://www.w3.org/2000/svg">
<rect y="0.5" width="23" height="23" rx="11.5" fill="#5484FF"/>
<path d="M10.1369 16.0543C9.80915 16.0543 9.86484 15.9306 9.75181 15.6185L8.78809 12.4468L16.2064 8.0459" fill="#C8DAEA"/>
<path d="M10.137 16.0545C10.3899 16.0545 10.5016 15.9389 10.6428 15.8016L11.9915 14.4901L10.3091 13.4756" fill="#A9C9DD"/>
<path d="M10.3092 13.4756L14.3859 16.4875C14.8511 16.7442 15.1869 16.6113 15.3028 16.0556L16.9622 8.2358C17.1321 7.55465 16.7025 7.24571 16.2575 7.44776L6.51338 11.205C5.84825 11.4718 5.85213 11.8429 6.39214 12.0082L8.8927 12.7887L14.6818 9.13646C14.955 8.97073 15.2059 9.05983 15 9.24254" fill="url(#paint0_linear_5_2399)"/>
<defs>
<linearGradient id="paint0_linear_5_2399" x1="13.2567" y1="11.4178" x2="14.8398" y2="15.0201" gradientUnits="userSpaceOnUse">
<stop stop-color="#EFF7FC"/>
<stop offset="1" stop-color="white"/>
</linearGradient>
</defs>
</svg>
