<svg width="233" height="34" viewBox="0 0 233 34" fill="none" xmlns="http://www.w3.org/2000/svg">
<path d="M4.488 13.7841C3.69467 13.7841 3.043 13.6255 2.533 13.3081C2.03433 12.9795 1.68867 12.5318 1.496 11.9651C1.30333 11.3871 1.275 10.7241 1.411 9.97612C1.479 9.70412 1.547 9.42645 1.615 9.14312C1.683 8.85978 1.75667 8.56512 1.836 8.25912C1.91533 7.95312 1.989 7.63578 2.057 7.30712C2.13633 6.96712 2.21 6.62712 2.278 6.28712C2.33467 6.00378 2.40267 5.69212 2.482 5.35212C2.56133 5.01212 2.64067 4.67212 2.72 4.33212C2.79933 3.98078 2.873 3.67478 2.941 3.41412C3.009 3.14212 3.05433 2.94945 3.077 2.83612L5.627 2.88712C5.593 3.09112 5.53067 3.39145 5.44 3.78812C5.34933 4.18478 5.24733 4.62112 5.134 5.09712C5.032 5.56178 4.93 6.01512 4.828 6.45712C4.726 6.88778 4.65233 7.23912 4.607 7.51112C4.573 7.68112 4.52767 7.88512 4.471 8.12312C4.41433 8.34978 4.352 8.58778 4.284 8.83712C4.216 9.08645 4.15367 9.32445 4.097 9.55112C4.04033 9.76645 3.995 9.94778 3.961 10.0951C3.88167 10.5145 3.927 10.8375 4.097 11.0641C4.267 11.2908 4.56167 11.4041 4.981 11.4041C5.287 11.4041 5.59867 11.3418 5.916 11.2171C6.23333 11.0925 6.53367 10.9338 6.817 10.7411C7.10033 10.5371 7.344 10.3105 7.548 10.0611C7.752 9.80045 7.87667 9.53978 7.922 9.27912C7.99 8.95045 7.86533 8.71245 7.548 8.56512C7.23067 8.40645 6.77167 8.30445 6.171 8.25912C5.58167 8.21378 4.896 8.19112 4.114 8.19112C3.876 8.19112 3.66633 8.15145 3.485 8.07212C3.30367 7.98145 3.17333 7.86245 3.094 7.71512C3.01467 7.56778 2.992 7.40912 3.026 7.23912C3.07133 6.98978 3.179 6.77445 3.349 6.59312C3.53033 6.40045 3.75133 6.24745 4.012 6.13412C4.27267 6.02078 4.56167 5.96412 4.879 5.96412C5.47967 5.96412 6.08033 5.97545 6.681 5.99812C7.293 6.02078 7.85967 6.08312 8.381 6.18512C8.90233 6.28712 9.35 6.45712 9.724 6.69512C10.098 6.92178 10.3643 7.23912 10.523 7.64712C10.693 8.05512 10.71 8.57645 10.574 9.21112C10.4947 9.63045 10.3303 10.0611 10.081 10.5031C9.83167 10.9338 9.51433 11.3418 9.129 11.7271C8.74367 12.1125 8.30167 12.4638 7.803 12.7811C7.31567 13.0871 6.78867 13.3308 6.222 13.5121C5.66667 13.6935 5.08867 13.7841 4.488 13.7841ZM3.043 4.12812C2.54433 4.12812 2.193 3.99778 1.989 3.73712C1.785 3.46512 1.717 3.14778 1.785 2.78512C1.83033 2.49045 1.97767 2.24112 2.227 2.03712C2.47633 1.83312 2.86733 1.69145 3.4 1.61212C3.58133 1.57812 3.91 1.53845 4.386 1.49312C4.87333 1.43645 5.45133 1.39112 6.12 1.35712C6.8 1.31178 7.514 1.28912 8.262 1.28912C9.16867 1.28912 9.88833 1.37412 10.421 1.54412C10.9537 1.71412 11.322 1.94645 11.526 2.24112C11.7413 2.52445 11.8093 2.84745 11.73 3.21012C11.6733 3.50478 11.5317 3.71445 11.305 3.83912C11.0783 3.95245 10.7837 4.00912 10.421 4.00912C10.183 4.00912 9.91667 3.99212 9.622 3.95812C9.32733 3.91278 8.959 3.87312 8.517 3.83912C8.08633 3.79378 7.53667 3.77112 6.868 3.77112C6.19933 3.77112 5.61567 3.79945 5.117 3.85612C4.62967 3.91278 4.216 3.97512 3.876 4.04312C3.54733 4.09978 3.26967 4.12812 3.043 4.12812ZM15.0951 13.6651C14.2791 13.6651 13.5991 13.5575 13.0551 13.3421C12.5224 13.1268 12.1031 12.8321 11.7971 12.4581C11.5024 12.0841 11.3154 11.6535 11.2361 11.1661C11.1567 10.6788 11.1737 10.1631 11.2871 9.61912C11.4004 9.00712 11.6271 8.41212 11.9671 7.83412C12.3184 7.24478 12.7547 6.71212 13.2761 6.23612C13.7974 5.76012 14.3811 5.38045 15.0271 5.09712C15.6844 4.81378 16.3871 4.67212 17.1351 4.67212C17.8037 4.67212 18.3591 4.79112 18.8011 5.02912C19.2431 5.26712 19.5604 5.61278 19.7531 6.06612C19.9457 6.50812 19.9797 7.04645 19.8551 7.68112C19.7531 8.15712 19.5547 8.57078 19.2601 8.92212C18.9767 9.26212 18.6197 9.53978 18.1891 9.75512C17.7697 9.95912 17.3107 10.1121 16.8121 10.2141C16.3247 10.3048 15.8261 10.3501 15.3161 10.3501C14.5341 10.3501 13.9844 10.2368 13.6671 10.0101C13.3611 9.77212 13.2307 9.51712 13.2761 9.24512C13.3101 9.08645 13.3724 8.96745 13.4631 8.88812C13.5651 8.79745 13.7011 8.75212 13.8711 8.75212C13.9844 8.75212 14.1261 8.76912 14.2961 8.80312C14.4661 8.83712 14.6984 8.85412 14.9931 8.85412C15.3557 8.85412 15.7184 8.80312 16.0811 8.70112C16.4437 8.59912 16.7497 8.45745 16.9991 8.27612C17.2597 8.09478 17.4127 7.89078 17.4581 7.66412C17.5034 7.42612 17.4751 7.25045 17.3731 7.13712C17.2711 7.01245 17.0727 6.95012 16.7781 6.95012C16.4267 6.95012 16.0811 7.02945 15.7411 7.18812C15.4011 7.33545 15.0894 7.55078 14.8061 7.83412C14.5341 8.11745 14.2961 8.44612 14.0921 8.82012C13.8994 9.18278 13.7577 9.57378 13.6671 9.99312C13.6217 10.2538 13.6331 10.5031 13.7011 10.7411C13.7691 10.9791 13.9164 11.1661 14.1431 11.3021C14.3697 11.4381 14.6984 11.5061 15.1291 11.5061C15.7637 11.5061 16.2964 11.4495 16.7271 11.3361C17.1577 11.2115 17.5147 11.0698 17.7981 10.9111C18.0927 10.7411 18.3534 10.5938 18.5801 10.4691C18.8067 10.3445 19.0164 10.2821 19.2091 10.2821C19.5377 10.2821 19.7531 10.4011 19.8551 10.6391C19.9571 10.8771 19.9797 11.1378 19.9231 11.4211C19.8551 11.7158 19.6907 11.9991 19.4301 12.2711C19.1694 12.5431 18.8237 12.7811 18.3931 12.9851C17.9624 13.1891 17.4637 13.3535 16.8971 13.4781C16.3417 13.6028 15.7411 13.6651 15.0951 13.6651ZM24.3546 13.6481C23.3686 13.6481 22.5696 13.4668 21.9576 13.1041C21.357 12.7301 20.949 12.2258 20.7336 11.5911C20.5183 10.9565 20.4843 10.2538 20.6316 9.48312C20.779 8.76912 21.051 8.12312 21.4476 7.54512C21.8443 6.95578 22.3316 6.44578 22.9096 6.01512C23.4876 5.58445 24.1223 5.25578 24.8136 5.02912C25.505 4.79112 26.2133 4.67212 26.9386 4.67212C27.3013 4.67212 27.63 4.74012 27.9246 4.87612C28.2306 5.00078 28.4573 5.19345 28.6046 5.45412C28.7633 5.71478 28.803 6.04912 28.7236 6.45712C28.6443 6.87645 28.4856 7.18812 28.2476 7.39212C28.021 7.59612 27.7886 7.69812 27.5506 7.69812C27.3693 7.69812 27.239 7.65845 27.1596 7.57912C27.0803 7.49978 27.0066 7.42612 26.9386 7.35812C26.8706 7.27878 26.7573 7.23912 26.5986 7.23912C26.0546 7.23912 25.539 7.36945 25.0516 7.63012C24.5643 7.87945 24.1563 8.20245 23.8276 8.59912C23.5103 8.99578 23.312 9.40945 23.2326 9.84012C23.176 10.1121 23.176 10.3558 23.2326 10.5711C23.3006 10.7865 23.4366 10.9565 23.6406 11.0811C23.856 11.2058 24.1676 11.2681 24.5756 11.2681C25.029 11.2681 25.3916 11.2115 25.6636 11.0981C25.9356 10.9735 26.151 10.8375 26.3096 10.6901C26.4796 10.5428 26.6326 10.4125 26.7686 10.2991C26.916 10.1745 27.086 10.1121 27.2786 10.1121C27.562 10.1121 27.7716 10.2028 27.9076 10.3841C28.055 10.5541 28.089 10.8601 28.0096 11.3021C27.9076 11.7668 27.681 12.1805 27.3296 12.5431C26.9896 12.8945 26.5646 13.1665 26.0546 13.3591C25.5446 13.5518 24.978 13.6481 24.3546 13.6481ZM36.0759 13.6651C35.7359 13.6651 35.4695 13.5575 35.2769 13.3421C35.0842 13.1155 34.9822 12.8321 34.9709 12.4921C34.9482 12.1521 34.9709 11.7441 35.0389 11.2681C35.1069 10.7921 35.1862 10.2991 35.2769 9.78912C35.3789 9.27912 35.4695 8.80312 35.5489 8.36112C35.6282 7.90778 35.6679 7.55078 35.6679 7.29012C35.6792 7.10878 35.6849 6.94445 35.6849 6.79712C35.6849 6.64978 35.6679 6.45712 35.6339 6.21912L36.1269 6.91612H35.2089C34.8122 6.91612 34.3759 6.93878 33.8999 6.98412C33.4239 7.02945 32.9649 7.08612 32.5229 7.15412C32.0809 7.22212 31.7125 7.29578 31.4179 7.37512L32.4889 5.82812C32.5682 6.47412 32.5682 7.12012 32.4889 7.76612C32.4095 8.41212 32.2962 9.10345 32.1489 9.84012C32.0809 10.1688 32.0072 10.5088 31.9279 10.8601C31.8485 11.2115 31.7692 11.5515 31.6899 11.8801C31.6105 12.1975 31.5255 12.4695 31.4349 12.6961C31.3329 12.9795 31.1572 13.2118 30.9079 13.3931C30.6699 13.5631 30.3695 13.6481 30.0069 13.6481C29.6442 13.6481 29.3665 13.5235 29.1739 13.2741C28.9812 13.0135 28.9245 12.6905 29.0039 12.3051C29.0492 12.0898 29.1115 11.8235 29.1909 11.5061C29.2702 11.1775 29.3552 10.8431 29.4459 10.5031C29.5365 10.1518 29.6102 9.83445 29.6669 9.55112C29.7575 9.05245 29.8199 8.61045 29.8539 8.22512C29.8992 7.83978 29.9332 7.48845 29.9559 7.17112C29.9899 6.85378 30.0352 6.54778 30.0919 6.25312C30.1485 5.94712 30.2619 5.69212 30.4319 5.48812C30.6132 5.27278 30.8739 5.11978 31.2139 5.02912C31.5992 4.92712 32.0525 4.84778 32.5739 4.79112C33.0952 4.73445 33.6335 4.69478 34.1889 4.67212C34.7555 4.63812 35.2882 4.62112 35.7869 4.62112C36.8069 4.62112 37.5265 4.81378 37.9459 5.19912C38.3765 5.57312 38.5182 6.14545 38.3709 6.91612C38.3142 7.18812 38.2405 7.53378 38.1499 7.95312C38.0705 8.36112 37.9912 8.79178 37.9119 9.24512C37.8325 9.69845 37.7645 10.1405 37.7079 10.5711C37.6512 10.9905 37.6172 11.3588 37.6059 11.6761C37.6059 11.8121 37.6059 11.9708 37.6059 12.1521C37.6172 12.3335 37.6059 12.4978 37.5719 12.6451C37.5152 12.9398 37.3452 13.1835 37.0619 13.3761C36.7899 13.5688 36.4612 13.6651 36.0759 13.6651ZM39.3371 13.6991C39.0991 13.6991 38.8837 13.6311 38.6911 13.4951C38.5097 13.3705 38.3794 13.2061 38.3001 13.0021C38.2207 12.7868 38.1981 12.5601 38.2321 12.3221C38.2887 12.0615 38.4304 11.7328 38.6571 11.3361C38.8951 10.9281 39.1727 10.4918 39.4901 10.0271C39.8187 9.55112 40.1417 9.08645 40.4591 8.63312C40.7197 8.24778 41.0031 7.86812 41.3091 7.49412C41.6264 7.10878 41.9381 6.74612 42.2441 6.40612C42.5501 6.05478 42.8391 5.74878 43.1111 5.48812C43.3831 5.21612 43.6777 4.99512 43.9951 4.82512C44.3124 4.64378 44.6524 4.55312 45.0151 4.55312C45.4004 4.55312 45.6781 4.64945 45.8481 4.84212C46.0181 5.03478 46.1597 5.34078 46.2731 5.76012C46.3524 6.05478 46.4261 6.38912 46.4941 6.76312C46.5734 7.13712 46.6527 7.52245 46.7321 7.91912C46.8114 8.31578 46.8907 8.70678 46.9701 9.09212C47.0834 9.56812 47.1854 9.95345 47.2761 10.2481C47.3667 10.5315 47.4517 10.7638 47.5311 10.9451C47.6104 11.1151 47.6841 11.2681 47.7521 11.4041C47.8541 11.5855 47.9164 11.7441 47.9391 11.8801C47.9731 12.0161 47.9731 12.1861 47.9391 12.3901C47.9051 12.6168 47.8087 12.8321 47.6501 13.0361C47.4914 13.2288 47.3044 13.3818 47.0891 13.4951C46.8737 13.6198 46.6527 13.6821 46.4261 13.6821C46.1541 13.6821 45.9217 13.6085 45.7291 13.4611C45.5477 13.3138 45.3947 13.1155 45.2701 12.8661C45.1454 12.6168 45.0321 12.3391 44.9301 12.0331C44.8507 11.7838 44.7601 11.4495 44.6581 11.0301C44.5674 10.5995 44.4767 10.1461 44.3861 9.67012C44.2954 9.18278 44.2104 8.71812 44.1311 8.27612C44.0631 7.83412 44.0234 7.47145 44.0121 7.18812L44.8111 7.10312C44.5957 7.28445 44.3181 7.57912 43.9781 7.98712C43.6494 8.39512 43.2924 8.87112 42.9071 9.41512C42.5217 9.94778 42.1477 10.4861 41.7851 11.0301C41.4224 11.5741 41.1107 12.0785 40.8501 12.5431C40.6347 12.9398 40.3967 13.2345 40.1361 13.4271C39.8867 13.6085 39.6204 13.6991 39.3371 13.6991ZM50.6322 13.6651C50.0542 13.6651 49.5669 13.5348 49.1702 13.2741C48.7849 13.0021 48.5129 12.6451 48.3542 12.2031C48.2069 11.7498 48.1842 11.2568 48.2862 10.7241C48.3996 10.1461 48.6092 9.56812 48.9152 8.99012C49.2326 8.40078 49.6066 7.85112 50.0372 7.34112C50.4792 6.81978 50.9609 6.36078 51.4822 5.96412C52.0149 5.55612 52.5532 5.23878 53.0972 5.01212C53.6526 4.77412 54.1966 4.65512 54.7292 4.65512C55.1486 4.65512 55.4772 4.79112 55.7152 5.06312C55.9532 5.33512 56.0212 5.72045 55.9192 6.21912C55.8852 6.40045 55.8059 6.54212 55.6812 6.64412C55.5566 6.74612 55.4149 6.81412 55.2562 6.84812C54.5082 6.97278 53.8112 7.25612 53.1652 7.69812C52.5306 8.14012 51.9922 8.67278 51.5502 9.29612C51.1082 9.90812 50.8192 10.5485 50.6832 11.2171C50.6492 11.4098 50.6266 11.5911 50.6152 11.7611C50.6152 11.9198 50.6379 12.1238 50.6832 12.3731L49.8672 10.6391C50.1052 10.8431 50.3206 10.9848 50.5132 11.0641C50.7059 11.1321 50.9439 11.1661 51.2272 11.1661C51.8052 11.1661 52.4172 10.7978 53.0632 10.0611C53.7092 9.31312 54.2759 8.23078 54.7632 6.81412C54.8652 6.54212 55.0352 6.33245 55.2732 6.18512C55.5112 6.02645 55.7549 5.94712 56.0042 5.94712C56.4122 5.94712 56.7352 6.08878 56.9732 6.37212C57.2112 6.65545 57.3529 6.97278 57.3982 7.32412C57.4889 7.86812 57.5682 8.36678 57.6362 8.82012C57.7042 9.27345 57.8119 9.71545 57.9592 10.1461C58.1066 10.5655 58.3276 11.0018 58.6222 11.4551C58.7469 11.6251 58.8036 11.8291 58.7922 12.0671C58.7922 12.3051 58.7299 12.5431 58.6052 12.7811C58.4806 13.0191 58.2992 13.2175 58.0612 13.3761C57.8346 13.5348 57.5569 13.6141 57.2282 13.6141C57.0356 13.6141 56.8656 13.5745 56.7182 13.4951C56.5822 13.4045 56.4746 13.2911 56.3952 13.1551C56.2252 12.8718 56.0779 12.5885 55.9532 12.3051C55.8286 12.0218 55.7209 11.7215 55.6302 11.4041C55.5509 11.0755 55.4829 10.7015 55.4262 10.2821C55.3696 9.86278 55.3242 9.38112 55.2902 8.83712L56.2082 8.76912C55.6982 10.0385 55.1259 11.0301 54.4912 11.7441C53.8566 12.4468 53.2049 12.9455 52.5362 13.2401C51.8789 13.5235 51.2442 13.6651 50.6322 13.6651ZM59.632 7.52812C59.2807 7.52812 58.9973 7.40912 58.782 7.17112C58.5667 6.93312 58.493 6.63845 58.561 6.28712C58.6063 6.02645 58.714 5.81112 58.884 5.64112C59.0653 5.47112 59.3033 5.33512 59.598 5.23312C60.0173 5.07445 60.6067 4.92712 61.366 4.79112C62.1253 4.65512 63.0603 4.58712 64.171 4.58712C64.8057 4.58712 65.3723 4.60412 65.871 4.63812C66.3697 4.67212 66.9023 4.72878 67.469 4.80812C67.843 4.86478 68.1263 4.98945 68.319 5.18212C68.523 5.37478 68.5967 5.62978 68.54 5.94712C68.4947 6.15112 68.3983 6.34945 68.251 6.54212C68.115 6.72345 67.9337 6.87645 67.707 7.00112C67.4803 7.12578 67.214 7.18812 66.908 7.18812C66.7153 7.18812 66.4433 7.17112 66.092 7.13712C65.752 7.10312 65.3723 7.06912 64.953 7.03512C64.545 7.00112 64.137 6.98412 63.729 6.98412C62.9583 6.98412 62.318 7.02945 61.808 7.12012C61.3093 7.21078 60.89 7.30145 60.55 7.39212C60.2213 7.48278 59.9153 7.52812 59.632 7.52812ZM62.42 13.6991C62.148 13.6991 61.9157 13.6311 61.723 13.4951C61.5303 13.3705 61.3943 13.1665 61.315 12.8831C61.2357 12.6225 61.2017 12.2825 61.213 11.8631C61.2243 11.4438 61.264 10.9905 61.332 10.5031C61.4 10.0158 61.4793 9.53978 61.57 9.07512C61.7287 8.33845 61.8363 7.72078 61.893 7.22212C61.961 6.71212 62.0233 6.29845 62.08 5.98112L64.681 5.84512C64.6697 5.92445 64.6357 6.10578 64.579 6.38912C64.5337 6.67245 64.477 7.00678 64.409 7.39212C64.3523 7.77745 64.2843 8.17978 64.205 8.59912C64.137 9.00712 64.069 9.38112 64.001 9.72112C63.9217 10.1065 63.8763 10.4465 63.865 10.7411C63.8537 11.0245 63.8537 11.2738 63.865 11.4891C63.8763 11.7045 63.8877 11.8971 63.899 12.0671C63.9103 12.2258 63.899 12.3788 63.865 12.5261C63.8197 12.7188 63.729 12.9058 63.593 13.0871C63.457 13.2685 63.287 13.4158 63.083 13.5291C62.8903 13.6425 62.6693 13.6991 62.42 13.6991ZM69.0814 13.6821C68.7074 13.6821 68.3957 13.5631 68.1464 13.3251C67.9084 13.0871 67.7497 12.7585 67.6704 12.3391C67.6024 11.9085 67.625 11.4041 67.7384 10.8261C67.829 10.3615 67.9594 9.96478 68.1294 9.63612C68.2994 9.29612 68.4807 9.02412 68.6734 8.82012C68.8774 8.60478 69.0644 8.44045 69.2344 8.32712C69.3704 8.23645 69.529 8.17412 69.7104 8.14012C69.8917 8.09478 70.073 8.07212 70.2544 8.07212C71.0817 8.07212 71.9317 8.03245 72.8044 7.95312C73.6884 7.87378 74.527 7.69245 75.3204 7.40912L75.7114 9.44912C75.0994 9.69845 74.4477 9.89112 73.7564 10.0271C73.0764 10.1518 72.385 10.2368 71.6824 10.2821C70.991 10.3161 70.3167 10.3331 69.6594 10.3331L68.2654 9.87412C68.356 9.43212 68.4524 8.98445 68.5544 8.53112C68.6564 8.06645 68.7527 7.61878 68.8434 7.18812C68.9454 6.74612 69.036 6.33245 69.1154 5.94712C69.206 5.58445 69.342 5.26712 69.5234 4.99512C69.716 4.71178 69.9824 4.57012 70.3224 4.57012C70.8777 4.57012 71.2574 4.74012 71.4614 5.08012C71.6654 5.40878 71.7107 5.86778 71.5974 6.45712C71.5407 6.72912 71.467 7.03512 71.3764 7.37512C71.297 7.70378 71.2064 8.04378 71.1044 8.39512C71.0137 8.74645 70.923 9.08078 70.8324 9.39812C70.753 9.70412 70.6907 9.96478 70.6454 10.1801C70.5774 10.5768 70.5037 10.9735 70.4244 11.3701C70.345 11.7555 70.2544 12.1918 70.1524 12.6791C70.107 12.9625 69.9824 13.2005 69.7784 13.3931C69.5744 13.5858 69.342 13.6821 69.0814 13.6821ZM75.1674 13.6821C74.748 13.6821 74.4364 13.5121 74.2324 13.1721C74.0397 12.8321 73.932 12.3788 73.9094 11.8121C73.898 11.2455 73.9604 10.6165 74.0964 9.92512C74.3117 8.83712 74.5157 7.95312 74.7084 7.27312C74.9124 6.59312 75.0824 6.06045 75.2184 5.67512C75.343 5.34645 75.5414 5.07445 75.8134 4.85912C76.0854 4.64378 76.3914 4.53612 76.7314 4.53612C77.0487 4.53612 77.315 4.65512 77.5304 4.89312C77.7457 5.11978 77.825 5.38612 77.7684 5.69212C77.689 6.10012 77.553 6.56478 77.3604 7.08612C77.179 7.59612 77.0147 8.21378 76.8674 8.93912C76.754 9.49445 76.6804 9.98745 76.6464 10.4181C76.6237 10.8488 76.6067 11.2341 76.5954 11.5741C76.584 11.9028 76.55 12.2201 76.4934 12.5261C76.4254 12.8321 76.278 13.1041 76.0514 13.3421C75.836 13.5688 75.5414 13.6821 75.1674 13.6821ZM80.597 13.7841C80.019 13.7841 79.526 13.6425 79.118 13.3591C78.7213 13.0758 78.4437 12.6848 78.285 12.1861C78.1263 11.6761 78.1093 11.0981 78.234 10.4521C78.3587 9.76078 78.4777 9.08645 78.591 8.42912C78.7157 7.76045 78.8177 7.19378 78.897 6.72912C78.9877 6.25312 79.0387 5.96412 79.05 5.86212C79.0953 5.60145 79.1973 5.37478 79.356 5.18212C79.5147 4.98945 79.713 4.84212 79.951 4.74012C80.2003 4.62678 80.461 4.57012 80.733 4.57012C81.0277 4.57012 81.277 4.68345 81.481 4.91012C81.6963 5.12545 81.77 5.44845 81.702 5.87912C81.6567 6.23045 81.566 6.65545 81.43 7.15412C81.294 7.64145 81.175 8.13445 81.073 8.63312C81.0617 8.73512 81.0277 8.88812 80.971 9.09212C80.9143 9.28478 80.852 9.48878 80.784 9.70412C80.7273 9.90812 80.6877 10.0895 80.665 10.2481C80.6083 10.5541 80.6253 10.8035 80.716 10.9961C80.8067 11.1888 80.9767 11.2851 81.226 11.2851C81.362 11.2851 81.515 11.2568 81.685 11.2001C81.855 11.1435 82.0137 11.0641 82.161 10.9621C82.3083 10.8601 82.4273 10.7468 82.518 10.6221C82.62 10.4861 82.6823 10.3445 82.705 10.1971C82.7277 9.99312 82.6767 9.82312 82.552 9.68712C82.4387 9.55112 82.2743 9.43778 82.059 9.34712C81.923 9.29045 81.7417 9.22812 81.515 9.16012C81.2883 9.09212 81.056 9.02978 80.818 8.97312C80.5913 8.90512 80.3873 8.85978 80.206 8.83712L80.631 6.95012C81.039 6.84812 81.4867 6.74045 81.974 6.62712C82.4613 6.50245 82.9657 6.37212 83.487 6.23612C84.0083 6.08878 84.5183 5.94145 85.017 5.79412C85.5723 5.62412 86.088 5.45412 86.564 5.28412C87.04 5.10278 87.465 4.95545 87.839 4.84212C88.2243 4.71745 88.5473 4.65512 88.808 4.65512C89.4313 4.65512 89.879 4.81945 90.151 5.14812C90.4343 5.47678 90.5193 5.93578 90.406 6.52512C90.3607 6.78578 90.2983 7.06912 90.219 7.37512C90.1397 7.68112 90.066 8.01545 89.998 8.37812C89.9413 8.67278 89.879 9.00712 89.811 9.38112C89.743 9.74378 89.6807 10.1065 89.624 10.4691C89.5787 10.8205 89.556 11.1321 89.556 11.4041C89.5447 11.5515 89.5333 11.7328 89.522 11.9481C89.522 12.1521 89.5107 12.3165 89.488 12.4411C89.4427 12.6565 89.3463 12.8605 89.199 13.0531C89.0517 13.2458 88.8703 13.3988 88.655 13.5121C88.451 13.6368 88.213 13.6991 87.941 13.6991C87.5783 13.6991 87.3007 13.5631 87.108 13.2911C86.9267 13.0078 86.836 12.6791 86.836 12.3051C86.8247 11.8405 86.8643 11.3078 86.955 10.7071C87.057 10.1065 87.159 9.53412 87.261 8.99012C87.3177 8.74078 87.3743 8.49145 87.431 8.24212C87.4877 7.98145 87.5443 7.73778 87.601 7.51112C87.6577 7.28445 87.7087 7.08045 87.754 6.89912C87.7993 6.71778 87.8333 6.57612 87.856 6.47412L88.349 6.89912C88.1677 6.98978 87.873 7.10312 87.465 7.23912C87.0683 7.37512 86.6037 7.52812 86.071 7.69812C85.5383 7.85678 84.966 8.01545 84.354 8.17412C83.742 8.32145 83.1357 8.45745 82.535 8.58212C81.9457 8.69545 81.3903 8.79178 80.869 8.87112L81.226 7.57912C81.3393 7.55645 81.481 7.53945 81.651 7.52812C81.8323 7.51678 82.0477 7.51112 82.297 7.51112C82.433 7.51112 82.6313 7.53378 82.892 7.57912C83.1527 7.62445 83.436 7.70378 83.742 7.81712C84.048 7.93045 84.3257 8.08345 84.575 8.27612C84.8357 8.46878 85.0397 8.71245 85.187 9.00712C85.3343 9.30178 85.3683 9.65878 85.289 10.0781C85.187 10.6448 84.9773 11.1548 84.66 11.6081C84.3427 12.0615 83.9517 12.4525 83.487 12.7811C83.0337 13.0985 82.552 13.3421 82.042 13.5121C81.532 13.6935 81.0503 13.7841 80.597 13.7841ZM96.5797 3.56712C96.081 3.56712 95.656 3.45945 95.3047 3.24412C94.9533 3.01745 94.6927 2.73978 94.5227 2.41112C94.364 2.07112 94.313 1.73112 94.3697 1.39112C94.4377 0.949117 94.602 0.62045 94.8627 0.405116C95.1233 0.17845 95.4237 0.0651168 95.7637 0.0651168C95.9903 0.0651168 96.1603 0.133117 96.2737 0.269116C96.3983 0.405116 96.4947 0.592116 96.5627 0.830116C96.6307 1.01145 96.6987 1.18712 96.7667 1.35712C96.846 1.52712 97.0273 1.61212 97.3107 1.61212C97.458 1.61212 97.5997 1.57245 97.7357 1.49312C97.883 1.41378 98.0303 1.31745 98.1777 1.20412C98.325 1.07945 98.4667 0.96045 98.6027 0.847117C98.818 0.677116 99.0277 0.529783 99.2317 0.405116C99.4357 0.269116 99.6623 0.201116 99.9117 0.201116C100.195 0.201116 100.388 0.28045 100.49 0.439117C100.603 0.58645 100.637 0.779116 100.592 1.01712C100.546 1.27778 100.41 1.55545 100.184 1.85012C99.957 2.14478 99.6623 2.42245 99.2997 2.68312C98.9483 2.94378 98.5403 3.15912 98.0757 3.32912C97.611 3.48778 97.1123 3.56712 96.5797 3.56712ZM92.9757 13.6991C92.4997 13.6991 92.1087 13.6085 91.8027 13.4271C91.4967 13.2345 91.27 12.9795 91.1227 12.6621C90.9753 12.3335 90.8903 11.9708 90.8677 11.5741C90.845 11.1661 90.879 10.7468 90.9697 10.3161C91.0377 9.96478 91.1283 9.57945 91.2417 9.16012C91.355 8.72945 91.474 8.30445 91.5987 7.88512C91.7233 7.46578 91.848 7.07478 91.9727 6.71212C92.0973 6.34945 92.1993 6.06045 92.2787 5.84512C92.426 5.44845 92.6073 5.15378 92.8227 4.96112C93.0493 4.75712 93.276 4.65512 93.5027 4.65512C93.7747 4.65512 94.0127 4.71745 94.2167 4.84212C94.432 4.95545 94.5907 5.10845 94.6927 5.30112C94.806 5.49378 94.84 5.70912 94.7947 5.94712C94.7607 6.11712 94.687 6.35512 94.5737 6.66112C94.4717 6.95578 94.3583 7.28445 94.2337 7.64712C94.109 7.99845 93.9843 8.36112 93.8597 8.73512C93.7463 9.09778 93.6557 9.44912 93.5877 9.78912C93.5423 9.99312 93.5083 10.1971 93.4857 10.4011C93.463 10.5938 93.463 10.7581 93.4857 10.8941C93.5197 11.0301 93.599 11.0981 93.7237 11.0981C93.9957 11.0981 94.33 10.8771 94.7267 10.4351C95.1233 9.99312 95.537 9.43212 95.9677 8.75212C96.319 8.24212 96.625 7.74345 96.8857 7.25612C97.1577 6.76878 97.407 6.33245 97.6337 5.94712C97.8717 5.55045 98.104 5.23312 98.3307 4.99512C98.5687 4.75712 98.8407 4.63812 99.1467 4.63812C99.6113 4.63812 99.9343 4.76845 100.116 5.02912C100.308 5.27845 100.393 5.59578 100.371 5.98112C100.359 6.28712 100.348 6.66112 100.337 7.10312C100.337 7.53378 100.337 7.96445 100.337 8.39512C100.348 8.81445 100.359 9.14312 100.371 9.38112C100.416 9.90245 100.484 10.3275 100.575 10.6561C100.677 10.9848 100.762 11.2738 100.83 11.5231C100.909 11.7725 100.926 12.0275 100.881 12.2881C100.835 12.5261 100.733 12.7471 100.575 12.9511C100.416 13.1551 100.223 13.3251 99.9967 13.4611C99.7813 13.5858 99.549 13.6481 99.2997 13.6481C98.8123 13.6481 98.4723 13.3931 98.2797 12.8831C98.0983 12.3731 97.9793 11.6705 97.9227 10.7751C97.8887 10.3558 97.866 9.93078 97.8547 9.50012C97.8547 9.06945 97.8603 8.64445 97.8717 8.22512C97.883 7.80578 97.9 7.41478 97.9227 7.05212L98.8407 7.51112C98.7047 7.78312 98.5063 8.16278 98.2457 8.65012C97.985 9.12612 97.6053 9.77778 97.1067 10.6051C96.778 11.1718 96.3813 11.6931 95.9167 12.1691C95.4633 12.6338 94.9817 13.0078 94.4717 13.2911C93.973 13.5631 93.4743 13.6991 92.9757 13.6991ZM110.42 13.6651C109.933 13.6651 109.445 13.6141 108.958 13.5121C108.471 13.4215 108.029 13.2798 107.632 13.0871C107.247 12.8831 106.952 12.6281 106.748 12.3221C106.544 12.0161 106.476 11.6478 106.544 11.2171C106.589 10.9678 106.708 10.7695 106.901 10.6221C107.105 10.4635 107.309 10.3841 107.513 10.3841C107.728 10.3841 107.91 10.4465 108.057 10.5711C108.204 10.6845 108.374 10.8205 108.567 10.9791C108.76 11.1378 109.02 11.2795 109.349 11.4041C109.678 11.5175 110.114 11.5741 110.658 11.5741C111.089 11.5741 111.429 11.5061 111.678 11.3701C111.939 11.2341 112.08 11.0698 112.103 10.8771C112.114 10.7411 112.052 10.6278 111.916 10.5371C111.791 10.4351 111.593 10.3445 111.321 10.2651C111.049 10.1858 110.709 10.1121 110.301 10.0441C109.814 9.97612 109.479 9.86278 109.298 9.70412C109.128 9.53412 109.071 9.28478 109.128 8.95612C109.173 8.69545 109.321 8.51412 109.57 8.41212C109.831 8.29878 110.227 8.20245 110.76 8.12312C111.338 8.03245 111.774 7.93045 112.069 7.81712C112.364 7.69245 112.522 7.53945 112.545 7.35812C112.568 7.13145 112.466 6.97278 112.239 6.88212C112.012 6.79145 111.706 6.74612 111.321 6.74612C110.766 6.74612 110.295 6.81978 109.91 6.96712C109.536 7.10312 109.219 7.24478 108.958 7.39212C108.697 7.52812 108.459 7.59612 108.244 7.59612C107.983 7.59612 107.791 7.49978 107.666 7.30712C107.553 7.11445 107.519 6.89912 107.564 6.66112C107.632 6.28712 107.802 5.97545 108.074 5.72612C108.357 5.46545 108.703 5.25578 109.111 5.09712C109.519 4.92712 109.955 4.80245 110.42 4.72312C110.885 4.63245 111.344 4.58712 111.797 4.58712C112.998 4.58712 113.894 4.80245 114.483 5.23312C115.072 5.65245 115.299 6.24178 115.163 7.00112C115.118 7.36378 114.959 7.69245 114.687 7.98712C114.415 8.28178 114.058 8.53112 113.616 8.73512C113.185 8.92778 112.687 9.06945 112.12 9.16012V8.83712C112.732 8.85978 113.236 8.96745 113.633 9.16012C114.041 9.34145 114.33 9.60212 114.5 9.94212C114.67 10.2821 114.715 10.7015 114.636 11.2001C114.557 11.6648 114.324 12.0841 113.939 12.4581C113.554 12.8208 113.055 13.1155 112.443 13.3421C111.842 13.5575 111.168 13.6651 110.42 13.6651ZM117.624 13.6651C117.046 13.6651 116.559 13.5348 116.162 13.2741C115.777 13.0021 115.505 12.6451 115.346 12.2031C115.199 11.7498 115.176 11.2568 115.278 10.7241C115.392 10.1461 115.601 9.56812 115.907 8.99012C116.225 8.40078 116.599 7.85112 117.029 7.34112C117.471 6.81978 117.953 6.36078 118.474 5.96412C119.007 5.55612 119.545 5.23878 120.089 5.01212C120.645 4.77412 121.189 4.65512 121.721 4.65512C122.141 4.65512 122.469 4.79112 122.707 5.06312C122.945 5.33512 123.013 5.72045 122.911 6.21912C122.877 6.40045 122.798 6.54212 122.673 6.64412C122.549 6.74612 122.407 6.81412 122.248 6.84812C121.5 6.97278 120.803 7.25612 120.157 7.69812C119.523 8.14012 118.984 8.67278 118.542 9.29612C118.1 9.90812 117.811 10.5485 117.675 11.2171C117.641 11.4098 117.619 11.5911 117.607 11.7611C117.607 11.9198 117.63 12.1238 117.675 12.3731L116.859 10.6391C117.097 10.8431 117.313 10.9848 117.505 11.0641C117.698 11.1321 117.936 11.1661 118.219 11.1661C118.797 11.1661 119.409 10.7978 120.055 10.0611C120.701 9.31312 121.268 8.23078 121.755 6.81412C121.857 6.54212 122.027 6.33245 122.265 6.18512C122.503 6.02645 122.747 5.94712 122.996 5.94712C123.404 5.94712 123.727 6.08878 123.965 6.37212C124.203 6.65545 124.345 6.97278 124.39 7.32412C124.481 7.86812 124.56 8.36678 124.628 8.82012C124.696 9.27345 124.804 9.71545 124.951 10.1461C125.099 10.5655 125.32 11.0018 125.614 11.4551C125.739 11.6251 125.796 11.8291 125.784 12.0671C125.784 12.3051 125.722 12.5431 125.597 12.7811C125.473 13.0191 125.291 13.2175 125.053 13.3761C124.827 13.5348 124.549 13.6141 124.22 13.6141C124.028 13.6141 123.858 13.5745 123.71 13.4951C123.574 13.4045 123.467 13.2911 123.387 13.1551C123.217 12.8718 123.07 12.5885 122.945 12.3051C122.821 12.0218 122.713 11.7215 122.622 11.4041C122.543 11.0755 122.475 10.7015 122.418 10.2821C122.362 9.86278 122.316 9.38112 122.282 8.83712L123.2 8.76912C122.826 9.72112 122.407 10.5145 121.942 11.1491C121.489 11.7725 121.013 12.2711 120.514 12.6451C120.027 13.0191 119.54 13.2855 119.052 13.4441C118.565 13.5915 118.089 13.6651 117.624 13.6651ZM127.481 13.6821C126.971 13.6821 126.603 13.5405 126.376 13.2571C126.161 12.9625 126.11 12.5488 126.223 12.0161C126.28 11.7101 126.382 11.2568 126.529 10.6561C126.688 10.0555 126.903 9.42645 127.175 8.76912C127.628 7.66978 128.036 6.81978 128.399 6.21912C128.773 5.60712 129.124 5.18212 129.453 4.94412C129.782 4.70612 130.11 4.58712 130.439 4.58712C130.79 4.58712 131.079 4.63812 131.306 4.74012C131.544 4.84212 131.731 5.00645 131.867 5.23312C132.003 5.45978 132.099 5.74312 132.156 6.08312C132.19 6.33245 132.247 6.68378 132.326 7.13712C132.417 7.57912 132.519 8.05512 132.632 8.56512C132.745 9.06378 132.87 9.53978 133.006 9.99312C133.142 10.4465 133.278 10.7978 133.414 11.0471L132.037 11.2171C132.4 10.5938 132.757 9.99878 133.108 9.43212C133.471 8.85412 133.828 8.30445 134.179 7.78312C134.53 7.25045 134.87 6.75178 135.199 6.28712C135.562 5.75445 135.924 5.34645 136.287 5.06312C136.65 4.77978 136.973 4.63812 137.256 4.63812C137.528 4.63812 137.766 4.68345 137.97 4.77412C138.185 4.86478 138.35 4.96678 138.463 5.08012C138.667 5.23878 138.809 5.42578 138.888 5.64112C138.979 5.84512 139.001 6.12845 138.956 6.49112C138.854 7.30712 138.786 8.04378 138.752 8.70112C138.729 9.35845 138.724 9.93078 138.735 10.4181C138.735 10.9848 138.792 11.4721 138.905 11.8801C139.018 12.2881 139.052 12.6055 139.007 12.8321C138.95 13.0701 138.797 13.2685 138.548 13.4271C138.299 13.5858 137.987 13.6651 137.613 13.6651C137.273 13.6651 136.978 13.5405 136.729 13.2911C136.491 13.0305 136.332 12.6678 136.253 12.2031C136.219 11.8971 136.185 11.5175 136.151 11.0641C136.128 10.5995 136.128 10.0498 136.151 9.41512C136.174 8.78045 136.242 8.04945 136.355 7.22212L137.154 7.03512C136.905 7.43178 136.633 7.85678 136.338 8.31012C136.043 8.76345 135.749 9.22245 135.454 9.68712C135.171 10.1405 134.887 10.5825 134.604 11.0131C134.332 11.4438 134.088 11.8348 133.873 12.1861C133.703 12.4695 133.505 12.6905 133.278 12.8491C133.063 12.9965 132.802 13.0701 132.496 13.0701C132.156 13.0701 131.884 13.0135 131.68 12.9001C131.487 12.7755 131.329 12.5998 131.204 12.3731C131.091 12.1465 130.977 11.8745 130.864 11.5571C130.807 11.4098 130.734 11.1945 130.643 10.9111C130.564 10.6165 130.473 10.2878 130.371 9.92512C130.28 9.55112 130.195 9.17712 130.116 8.80312C130.048 8.42912 129.997 8.08345 129.963 7.76612C129.929 7.43745 129.918 7.17112 129.929 6.96712L130.83 6.91612C130.615 7.18812 130.388 7.53945 130.15 7.97012C129.923 8.40078 129.714 8.87112 129.521 9.38112C129.328 9.87978 129.175 10.3841 129.062 10.8941C128.994 11.2681 128.937 11.6138 128.892 11.9311C128.858 12.2371 128.824 12.4751 128.79 12.6451C128.733 12.9398 128.58 13.1891 128.331 13.3931C128.082 13.5858 127.798 13.6821 127.481 13.6821ZM143.749 13.6651C142.661 13.6651 141.811 13.4838 141.199 13.1211C140.599 12.7471 140.202 12.2541 140.009 11.6421C139.817 11.0301 139.794 10.3558 139.941 9.61912C140.055 9.00712 140.281 8.41212 140.621 7.83412C140.973 7.24478 141.409 6.71212 141.93 6.23612C142.452 5.76012 143.035 5.38045 143.681 5.09712C144.339 4.81378 145.041 4.67212 145.789 4.67212C146.458 4.67212 147.013 4.79112 147.455 5.02912C147.897 5.26712 148.215 5.61278 148.407 6.06612C148.6 6.50812 148.634 7.04645 148.509 7.68112C148.385 8.31578 148.09 8.83145 147.625 9.22812C147.161 9.62478 146.605 9.91378 145.959 10.0951C145.313 10.2651 144.65 10.3501 143.97 10.3501C143.188 10.3501 142.639 10.2368 142.321 10.0101C142.015 9.77212 141.885 9.51712 141.93 9.24512C141.964 9.08645 142.027 8.96745 142.117 8.88812C142.219 8.79745 142.355 8.75212 142.525 8.75212C142.639 8.75212 142.78 8.76912 142.95 8.80312C143.12 8.83712 143.353 8.85412 143.647 8.85412C144.01 8.85412 144.373 8.80312 144.735 8.70112C145.098 8.59912 145.404 8.45745 145.653 8.27612C145.914 8.09478 146.067 7.89078 146.112 7.66412C146.158 7.42612 146.129 7.25045 146.027 7.13712C145.925 7.01245 145.727 6.95012 145.432 6.95012C145.081 6.95012 144.735 7.02945 144.395 7.18812C144.055 7.33545 143.744 7.55078 143.46 7.83412C143.188 8.11745 142.95 8.44612 142.746 8.82012C142.554 9.18278 142.412 9.57378 142.321 9.99312C142.276 10.2538 142.287 10.5031 142.355 10.7411C142.423 10.9791 142.571 11.1661 142.797 11.3021C143.024 11.4381 143.353 11.5061 143.783 11.5061C144.418 11.5061 144.951 11.4495 145.381 11.3361C145.812 11.2115 146.169 11.0698 146.452 10.9111C146.747 10.7411 147.008 10.5938 147.234 10.4691C147.461 10.3445 147.671 10.2821 147.863 10.2821C148.192 10.2821 148.407 10.4011 148.509 10.6391C148.611 10.8771 148.634 11.1378 148.577 11.4211C148.509 11.7158 148.345 11.9991 148.084 12.2711C147.824 12.5431 147.478 12.7811 147.047 12.9851C146.617 13.1891 146.118 13.3535 145.551 13.4781C144.996 13.6028 144.395 13.6651 143.749 13.6651ZM153.62 13.6481C152.951 13.6481 152.379 13.5291 151.903 13.2911C151.427 13.0531 151.076 12.7415 150.849 12.3561C150.622 11.9595 150.554 11.5345 150.645 11.0811C150.679 10.8771 150.781 10.6958 150.951 10.5371C151.132 10.3785 151.319 10.2991 151.512 10.2991C151.693 10.2991 151.852 10.3445 151.988 10.4351C152.124 10.5145 152.266 10.6108 152.413 10.7241C152.56 10.8261 152.73 10.9168 152.923 10.9961C153.127 11.0755 153.388 11.1151 153.705 11.1151C154.204 11.1151 154.623 11.0131 154.963 10.8091C155.314 10.5938 155.541 10.2368 155.643 9.73812C155.722 9.36412 155.717 9.02412 155.626 8.71812C155.535 8.41212 155.371 8.15145 155.133 7.93612C154.906 7.70945 154.629 7.53945 154.3 7.42612C153.983 7.30145 153.637 7.23912 153.263 7.23912C153.082 7.23912 152.895 7.25612 152.702 7.29012C152.521 7.32412 152.288 7.34112 152.005 7.34112C151.767 7.34112 151.557 7.28445 151.376 7.17112C151.195 7.04645 151.053 6.88778 150.951 6.69512C150.849 6.49112 150.821 6.27012 150.866 6.03212C150.979 5.49945 151.246 5.13678 151.665 4.94412C152.084 4.74012 152.674 4.63812 153.433 4.63812C154.272 4.63812 155.025 4.76845 155.694 5.02912C156.363 5.28978 156.918 5.66378 157.36 6.15112C157.802 6.63845 158.102 7.22212 158.261 7.90212C158.431 8.58212 158.431 9.33012 158.261 10.1461C158.159 10.6675 157.972 11.1378 157.7 11.5571C157.428 11.9765 157.082 12.3448 156.663 12.6621C156.244 12.9681 155.773 13.2118 155.252 13.3931C154.742 13.5631 154.198 13.6481 153.62 13.6481ZM149.625 17.9321C149.398 17.9321 149.194 17.8698 149.013 17.7451C148.832 17.6318 148.696 17.4561 148.605 17.2181C148.503 16.9801 148.492 16.6798 148.571 16.3171C148.616 16.0791 148.673 15.8638 148.741 15.6711C148.798 15.4898 148.86 15.3028 148.928 15.1101C149.007 14.9288 149.081 14.7191 149.149 14.4811C149.228 14.2545 149.302 13.9711 149.37 13.6311C149.506 12.9965 149.597 12.3901 149.642 11.8121C149.687 11.2228 149.71 10.6448 149.71 10.0781C149.721 9.51145 149.738 8.93912 149.761 8.36112C149.784 7.78312 149.835 7.19378 149.914 6.59312C149.937 6.41178 149.993 6.25878 150.084 6.13412C150.186 6.00945 150.311 5.91312 150.458 5.84512C150.605 5.77712 150.764 5.74312 150.934 5.74312C151.251 5.74312 151.54 5.81678 151.801 5.96412C152.073 6.11145 152.277 6.30412 152.413 6.54212C152.549 6.76878 152.594 7.02945 152.549 7.32412C152.413 7.97012 152.328 8.58778 152.294 9.17712C152.26 9.76645 152.237 10.3388 152.226 10.8941C152.226 11.4381 152.209 11.9878 152.175 12.5431C152.152 13.0985 152.084 13.6765 151.971 14.2771C151.869 14.7305 151.756 15.1725 151.631 15.6031C151.518 16.0338 151.37 16.4248 151.189 16.7761C151.008 17.1275 150.787 17.4051 150.526 17.6091C150.277 17.8245 149.976 17.9321 149.625 17.9321ZM168.654 13.6991C167.612 13.6991 166.733 13.4781 166.019 13.0361C165.305 12.5828 164.795 11.9821 164.489 11.2341C164.183 10.4748 164.121 9.64178 164.302 8.73512C164.427 8.15712 164.654 7.61878 164.982 7.12012C165.311 6.62145 165.708 6.18512 166.172 5.81112C166.637 5.43712 167.119 5.14812 167.617 4.94412C168.127 4.72878 168.615 4.62112 169.079 4.62112C169.272 4.62112 169.459 4.65512 169.64 4.72312C169.833 4.77978 169.98 4.87612 170.082 5.01212C170.196 5.13678 170.23 5.31245 170.184 5.53912C170.094 5.94712 169.935 6.30412 169.708 6.61012C169.482 6.91612 169.102 7.15412 168.569 7.32412C168.297 7.41478 168.037 7.55078 167.787 7.73212C167.549 7.91345 167.345 8.12312 167.175 8.36112C167.005 8.59912 166.892 8.85978 166.835 9.14312C166.699 9.78912 166.801 10.3105 167.141 10.7071C167.493 11.1038 168.031 11.3021 168.756 11.3021C169.368 11.3021 169.907 11.1038 170.371 10.7071C170.847 10.3105 171.153 9.78345 171.289 9.12612C171.391 8.55945 171.312 8.10612 171.051 7.76612C170.802 7.41478 170.411 7.23912 169.878 7.23912C169.606 7.23912 169.368 7.30712 169.164 7.44312C168.972 7.57912 168.739 7.76045 168.467 7.98712C168.263 8.15712 168.093 8.29312 167.957 8.39512C167.821 8.49712 167.685 8.57645 167.549 8.63312C167.425 8.67845 167.272 8.70112 167.09 8.70112C166.886 8.70112 166.699 8.59912 166.529 8.39512C166.359 8.19112 166.32 7.86812 166.41 7.42612C166.478 7.10878 166.631 6.79145 166.869 6.47412C167.119 6.15678 167.413 5.87345 167.753 5.62412C168.105 5.37478 168.467 5.17645 168.841 5.02912C169.227 4.87045 169.595 4.79112 169.946 4.79112C170.955 4.79112 171.771 4.98945 172.394 5.38612C173.029 5.78278 173.465 6.32678 173.703 7.01812C173.953 7.69812 173.987 8.47445 173.805 9.34712C173.635 10.2311 173.301 11.0018 172.802 11.6591C172.304 12.3051 171.697 12.8095 170.983 13.1721C170.269 13.5235 169.493 13.6991 168.654 13.6991ZM178.468 13.7331C177.788 13.7331 177.21 13.6198 176.734 13.3931C176.258 13.1665 175.867 12.8548 175.561 12.4581C175.266 12.0501 175.045 11.5798 174.898 11.0471C174.762 10.5145 174.694 9.94212 174.694 9.33012C174.705 8.70678 174.773 8.06645 174.898 7.40912C175.091 6.47978 175.351 5.68645 175.68 5.02912C176.009 4.37178 176.371 3.82212 176.768 3.38012C177.165 2.92678 177.573 2.56978 177.992 2.30912C178.423 2.03712 178.825 1.83312 179.199 1.69712C179.55 1.57245 179.902 1.47045 180.253 1.39112C180.616 1.31178 180.967 1.24945 181.307 1.20412C181.647 1.14745 181.976 1.09078 182.293 1.03412C182.826 0.920783 183.273 0.813117 183.636 0.711117C184.01 0.609117 184.276 0.558117 184.435 0.558117C184.639 0.558117 184.843 0.609117 185.047 0.711117C185.251 0.801783 185.415 0.949117 185.54 1.15312C185.665 1.35712 185.693 1.62345 185.625 1.95212C185.568 2.20145 185.41 2.41678 185.149 2.59812C184.9 2.76812 184.56 2.90978 184.129 3.02312C183.449 3.18178 182.854 3.28945 182.344 3.34612C181.845 3.39145 181.386 3.44245 180.967 3.49912C180.548 3.54445 180.123 3.64645 179.692 3.80512C179.42 3.91845 179.131 4.13378 178.825 4.45112C178.53 4.75712 178.264 5.14245 178.026 5.60712C177.788 6.07178 177.601 6.59312 177.465 7.17112C177.284 8.03245 177.204 8.78045 177.227 9.41512C177.261 10.0385 177.397 10.5201 177.635 10.8601C177.884 11.2001 178.258 11.3701 178.757 11.3701C179.086 11.3701 179.397 11.3021 179.692 11.1661C179.987 11.0301 180.253 10.8601 180.491 10.6561C180.74 10.4521 180.939 10.2198 181.086 9.95912C181.245 9.68712 181.352 9.42078 181.409 9.16012C181.477 8.78612 181.454 8.49145 181.341 8.27612C181.228 8.04945 181.052 7.88512 180.814 7.78312C180.576 7.68112 180.315 7.63012 180.032 7.63012C179.567 7.63012 179.074 7.76045 178.553 8.02112C178.032 8.27045 177.516 8.61045 177.006 9.04112L176.122 8.07212C176.451 7.52812 176.87 7.05212 177.38 6.64412C177.901 6.23612 178.462 5.91878 179.063 5.69212C179.675 5.46545 180.27 5.35212 180.848 5.35212C181.573 5.35212 182.208 5.48812 182.752 5.76012C183.296 6.02078 183.687 6.41745 183.925 6.95012C184.174 7.47145 184.22 8.12312 184.061 8.90512C183.936 9.47178 183.71 10.0441 183.381 10.6221C183.064 11.1888 182.661 11.7101 182.174 12.1861C181.687 12.6508 181.126 13.0248 180.491 13.3081C179.868 13.5915 179.193 13.7331 178.468 13.7331ZM189.199 13.6991C188.406 13.6991 187.765 13.5518 187.278 13.2571C186.802 12.9625 186.473 12.5715 186.292 12.0841C186.111 11.5968 186.071 11.0585 186.173 10.4691C186.218 10.1518 186.315 9.81178 186.462 9.44912C186.609 9.07512 186.768 8.71245 186.938 8.36112C187.108 7.99845 187.267 7.66978 187.414 7.37512C187.561 7.06912 187.652 6.82545 187.686 6.64412L187.958 6.96712C187.675 6.98978 187.369 7.02945 187.04 7.08612C186.723 7.14278 186.417 7.19378 186.122 7.23912C185.839 7.27312 185.601 7.29012 185.408 7.29012C185.113 7.29012 184.87 7.20512 184.677 7.03512C184.484 6.86512 184.416 6.62145 184.473 6.30412C184.575 5.78278 184.972 5.36345 185.663 5.04612C186.354 4.72878 187.329 4.57012 188.587 4.57012C189.154 4.57012 189.567 4.66645 189.828 4.85912C190.089 5.05178 190.247 5.27845 190.304 5.53912C190.372 5.79978 190.383 6.04345 190.338 6.27012C190.281 6.54212 190.174 6.86512 190.015 7.23912C189.868 7.60178 189.703 7.98145 189.522 8.37812C189.341 8.77478 189.176 9.15445 189.029 9.51712C188.882 9.86845 188.785 10.1858 188.74 10.4691C188.706 10.7638 188.757 11.0018 188.893 11.1831C189.04 11.3531 189.278 11.4381 189.607 11.4381C189.834 11.4381 190.055 11.3985 190.27 11.3191C190.485 11.2285 190.684 11.1151 190.865 10.9791C191.046 10.8318 191.194 10.6788 191.307 10.5201C191.42 10.3615 191.483 10.2028 191.494 10.0441C191.528 9.89678 191.432 9.77778 191.205 9.68712C190.978 9.59645 190.627 9.53412 190.151 9.50012C189.686 9.45478 189.103 9.43212 188.4 9.43212C188.06 9.43212 187.777 9.33578 187.55 9.14312C187.335 8.93912 187.261 8.67278 187.329 8.34412C187.397 8.00412 187.573 7.74912 187.856 7.57912C188.139 7.39778 188.457 7.30712 188.808 7.30712C189.023 7.30712 189.301 7.31278 189.641 7.32412C189.992 7.33545 190.366 7.35812 190.763 7.39212C191.16 7.42612 191.539 7.47712 191.902 7.54512C192.276 7.60178 192.593 7.67545 192.854 7.76612C193.364 7.93612 193.721 8.20245 193.925 8.56512C194.129 8.92778 194.191 9.36412 194.112 9.87412C194.044 10.2935 193.874 10.7241 193.602 11.1661C193.341 11.6081 192.996 12.0218 192.565 12.4071C192.134 12.7925 191.636 13.1041 191.069 13.3421C190.502 13.5801 189.879 13.6991 189.199 13.6991ZM198.306 13.6651C197.218 13.6651 196.368 13.4838 195.756 13.1211C195.155 12.7471 194.759 12.2541 194.566 11.6421C194.373 11.0301 194.351 10.3558 194.498 9.61912C194.611 9.00712 194.838 8.41212 195.178 7.83412C195.529 7.24478 195.966 6.71212 196.487 6.23612C197.008 5.76012 197.592 5.38045 198.238 5.09712C198.895 4.81378 199.598 4.67212 200.346 4.67212C201.015 4.67212 201.57 4.79112 202.012 5.02912C202.454 5.26712 202.771 5.61278 202.964 6.06612C203.157 6.50812 203.191 7.04645 203.066 7.68112C202.941 8.31578 202.647 8.83145 202.182 9.22812C201.717 9.62478 201.162 9.91378 200.516 10.0951C199.87 10.2651 199.207 10.3501 198.527 10.3501C197.745 10.3501 197.195 10.2368 196.878 10.0101C196.572 9.77212 196.442 9.51712 196.487 9.24512C196.521 9.08645 196.583 8.96745 196.674 8.88812C196.776 8.79745 196.912 8.75212 197.082 8.75212C197.195 8.75212 197.337 8.76912 197.507 8.80312C197.677 8.83712 197.909 8.85412 198.204 8.85412C198.567 8.85412 198.929 8.80312 199.292 8.70112C199.655 8.59912 199.961 8.45745 200.21 8.27612C200.471 8.09478 200.624 7.89078 200.669 7.66412C200.714 7.42612 200.686 7.25045 200.584 7.13712C200.482 7.01245 200.284 6.95012 199.989 6.95012C199.638 6.95012 199.292 7.02945 198.952 7.18812C198.612 7.33545 198.3 7.55078 198.017 7.83412C197.745 8.11745 197.507 8.44612 197.303 8.82012C197.11 9.18278 196.969 9.57378 196.878 9.99312C196.833 10.2538 196.844 10.5031 196.912 10.7411C196.98 10.9791 197.127 11.1661 197.354 11.3021C197.581 11.4381 197.909 11.5061 198.34 11.5061C198.975 11.5061 199.507 11.4495 199.938 11.3361C200.369 11.2115 200.726 11.0698 201.009 10.9111C201.304 10.7411 201.564 10.5938 201.791 10.4691C202.018 10.3445 202.227 10.2821 202.42 10.2821C202.749 10.2821 202.964 10.4011 203.066 10.6391C203.168 10.8771 203.191 11.1378 203.134 11.4211C203.066 11.7158 202.902 11.9991 202.641 12.2711C202.38 12.5431 202.035 12.7811 201.604 12.9851C201.173 13.1891 200.675 13.3535 200.108 13.4781C199.553 13.6028 198.952 13.6651 198.306 13.6651ZM211.355 13.7161C211.015 13.7161 210.613 13.6198 210.148 13.4271C209.695 13.2231 209.23 12.9738 208.754 12.6791C208.29 12.3731 207.859 12.0501 207.462 11.7101C207.066 11.3701 206.76 11.0641 206.544 10.7921C206.374 10.5768 206.244 10.3445 206.153 10.0951C206.074 9.84578 206.063 9.59078 206.119 9.33012C206.165 9.11478 206.25 8.89378 206.374 8.66712C206.51 8.42912 206.703 8.19678 206.952 7.97012C207.111 7.82278 207.36 7.61312 207.7 7.34112C208.052 7.05778 208.454 6.75745 208.907 6.44012C209.361 6.12278 209.837 5.82245 210.335 5.53912C210.845 5.24445 211.344 5.00645 211.831 4.82512C212.33 4.64378 212.783 4.55312 213.191 4.55312C213.441 4.55312 213.645 4.62112 213.803 4.75712C213.962 4.88178 214.07 5.04045 214.126 5.23312C214.194 5.41445 214.211 5.60145 214.177 5.79412C214.121 6.12278 213.939 6.41178 213.633 6.66112C213.327 6.91045 212.976 7.10878 212.579 7.25612C211.888 7.50545 211.259 7.77745 210.692 8.07212C210.126 8.36678 209.678 8.63312 209.349 8.87112C209.021 9.09778 208.845 9.25645 208.822 9.34712C208.811 9.41512 208.885 9.52278 209.043 9.67012C209.202 9.80612 209.423 9.96478 209.706 10.1461C209.99 10.3161 210.324 10.4918 210.709 10.6731C211.095 10.8431 211.497 11.0075 211.916 11.1661C212.12 11.2455 212.302 11.3475 212.46 11.4721C212.63 11.5968 212.761 11.7498 212.851 11.9311C212.942 12.1125 212.965 12.3165 212.919 12.5431C212.874 12.7698 212.778 12.9738 212.63 13.1551C212.494 13.3365 212.319 13.4725 212.103 13.5631C211.888 13.6651 211.639 13.7161 211.355 13.7161ZM205.15 13.6651C204.754 13.6651 204.465 13.5348 204.283 13.2741C204.102 13.0135 204.006 12.6338 203.994 12.1351C203.994 11.6365 204.074 11.0301 204.232 10.3161C204.334 9.80612 204.448 9.31878 204.572 8.85412C204.697 8.37812 204.816 7.93045 204.929 7.51112C205.043 7.08045 205.128 6.70078 205.184 6.37212C205.207 6.28145 205.224 6.18512 205.235 6.08312C205.258 5.96978 205.281 5.86212 205.303 5.76012C205.36 5.48812 205.473 5.26145 205.643 5.08012C205.813 4.89878 206 4.76845 206.204 4.68912C206.42 4.59845 206.624 4.55312 206.816 4.55312C207.236 4.55312 207.525 4.70612 207.683 5.01212C207.853 5.31812 207.893 5.70912 207.802 6.18512C207.723 6.57045 207.621 6.97278 207.496 7.39212C207.372 7.81145 207.247 8.21945 207.122 8.61612C207.009 9.00145 206.918 9.35278 206.85 9.67012C206.737 10.2255 206.663 10.6901 206.629 11.0641C206.607 11.4268 206.595 11.7328 206.595 11.9821C206.595 12.2315 206.578 12.4525 206.544 12.6451C206.488 12.8718 206.391 13.0645 206.255 13.2231C206.131 13.3705 205.972 13.4781 205.779 13.5461C205.587 13.6255 205.377 13.6651 205.15 13.6651ZM215.116 7.52812C214.765 7.52812 214.482 7.40912 214.266 7.17112C214.051 6.93312 213.977 6.63845 214.045 6.28712C214.091 6.02645 214.198 5.81112 214.368 5.64112C214.55 5.47112 214.788 5.33512 215.082 5.23312C215.502 5.07445 216.091 4.92712 216.85 4.79112C217.61 4.65512 218.545 4.58712 219.655 4.58712C220.29 4.58712 220.857 4.60412 221.355 4.63812C221.854 4.67212 222.387 4.72878 222.953 4.80812C223.327 4.86478 223.611 4.98945 223.803 5.18212C224.007 5.37478 224.081 5.62978 224.024 5.94712C223.979 6.15112 223.883 6.34945 223.735 6.54212C223.599 6.72345 223.418 6.87645 223.191 7.00112C222.965 7.12578 222.698 7.18812 222.392 7.18812C222.2 7.18812 221.928 7.17112 221.576 7.13712C221.236 7.10312 220.857 7.06912 220.437 7.03512C220.029 7.00112 219.621 6.98412 219.213 6.98412C218.443 6.98412 217.802 7.02945 217.292 7.12012C216.794 7.21078 216.374 7.30145 216.034 7.39212C215.706 7.48278 215.4 7.52812 215.116 7.52812ZM217.904 13.6991C217.632 13.6991 217.4 13.6311 217.207 13.4951C217.015 13.3705 216.879 13.1665 216.799 12.8831C216.72 12.6225 216.686 12.2825 216.697 11.8631C216.709 11.4438 216.748 10.9905 216.816 10.5031C216.884 10.0158 216.964 9.53978 217.054 9.07512C217.213 8.33845 217.321 7.72078 217.377 7.22212C217.445 6.71212 217.508 6.29845 217.564 5.98112L220.165 5.84512C220.154 5.92445 220.12 6.10578 220.063 6.38912C220.018 6.67245 219.961 7.00678 219.893 7.39212C219.837 7.77745 219.769 8.17978 219.689 8.59912C219.621 9.00712 219.553 9.38112 219.485 9.72112C219.406 10.1065 219.361 10.4465 219.349 10.7411C219.338 11.0245 219.338 11.2738 219.349 11.4891C219.361 11.7045 219.372 11.8971 219.383 12.0671C219.395 12.2258 219.383 12.3788 219.349 12.5261C219.304 12.7188 219.213 12.9058 219.077 13.0871C218.941 13.2685 218.771 13.4158 218.567 13.5291C218.375 13.6425 218.154 13.6991 217.904 13.6991ZM224.778 13.6651C224.2 13.6651 223.713 13.5348 223.316 13.2741C222.931 13.0021 222.659 12.6451 222.5 12.2031C222.353 11.7498 222.33 11.2568 222.432 10.7241C222.545 10.1461 222.755 9.56812 223.061 8.99012C223.378 8.40078 223.752 7.85112 224.183 7.34112C224.625 6.81978 225.107 6.36078 225.628 5.96412C226.161 5.55612 226.699 5.23878 227.243 5.01212C227.798 4.77412 228.342 4.65512 228.875 4.65512C229.294 4.65512 229.623 4.79112 229.861 5.06312C230.099 5.33512 230.167 5.72045 230.065 6.21912C230.031 6.40045 229.952 6.54212 229.827 6.64412C229.702 6.74612 229.561 6.81412 229.402 6.84812C228.654 6.97278 227.957 7.25612 227.311 7.69812C226.676 8.14012 226.138 8.67278 225.696 9.29612C225.254 9.90812 224.965 10.5485 224.829 11.2171C224.795 11.4098 224.772 11.5911 224.761 11.7611C224.761 11.9198 224.784 12.1238 224.829 12.3731L224.013 10.6391C224.251 10.8431 224.466 10.9848 224.659 11.0641C224.852 11.1321 225.09 11.1661 225.373 11.1661C225.951 11.1661 226.563 10.7978 227.209 10.0611C227.855 9.31312 228.422 8.23078 228.909 6.81412C229.011 6.54212 229.181 6.33245 229.419 6.18512C229.657 6.02645 229.901 5.94712 230.15 5.94712C230.558 5.94712 230.881 6.08878 231.119 6.37212C231.357 6.65545 231.499 6.97278 231.544 7.32412C231.635 7.86812 231.714 8.36678 231.782 8.82012C231.85 9.27345 231.958 9.71545 232.105 10.1461C232.252 10.5655 232.473 11.0018 232.768 11.4551C232.893 11.6251 232.949 11.8291 232.938 12.0671C232.938 12.3051 232.876 12.5431 232.751 12.7811C232.626 13.0191 232.445 13.2175 232.207 13.3761C231.98 13.5348 231.703 13.6141 231.374 13.6141C231.181 13.6141 231.011 13.5745 230.864 13.4951C230.728 13.4045 230.62 13.2911 230.541 13.1551C230.371 12.8718 230.224 12.5885 230.099 12.3051C229.974 12.0218 229.867 11.7215 229.776 11.4041C229.697 11.0755 229.629 10.7015 229.572 10.2821C229.515 9.86278 229.47 9.38112 229.436 8.83712L230.354 8.76912C229.98 9.72112 229.561 10.5145 229.096 11.1491C228.643 11.7725 228.167 12.2711 227.668 12.6451C227.181 13.0191 226.693 13.2855 226.206 13.4441C225.719 13.5915 225.243 13.6651 224.778 13.6651ZM3.621 33.8181C3.009 33.8181 2.48767 33.7218 2.057 33.5291C1.63767 33.3365 1.30333 33.0645 1.054 32.7131C0.804667 32.3505 0.640333 31.9368 0.561 31.4721C0.493 30.9961 0.515667 30.4748 0.629 29.9081C0.719667 29.4661 0.85 28.9561 1.02 28.3781C1.19 27.8001 1.39967 27.2391 1.649 26.6951C1.89833 26.1398 2.17033 25.6751 2.465 25.3011C2.58967 25.1425 2.754 25.0065 2.958 24.8931C3.162 24.7798 3.383 24.6948 3.621 24.6381C3.87033 24.5701 4.10833 24.5361 4.335 24.5361C4.573 24.5361 4.74867 24.6098 4.862 24.7571C4.98667 24.8931 5.02067 25.1198 4.964 25.4371C4.91867 25.6411 4.81667 25.8961 4.658 26.2021C4.49933 26.4968 4.318 26.8481 4.114 27.2561C3.91 27.6528 3.71167 28.1005 3.519 28.5991C3.32633 29.0865 3.16767 29.6248 3.043 30.2141C2.95233 30.6675 2.96933 31.0585 3.094 31.3871C3.21867 31.7045 3.49633 31.8631 3.927 31.8631C4.25567 31.8631 4.58433 31.7895 4.913 31.6421C5.24167 31.4835 5.542 31.2681 5.814 30.9961C6.086 30.7241 6.30133 30.4181 6.46 30.0781L6.579 30.4181C6.43167 30.3615 6.205 30.2991 5.899 30.2311C5.60433 30.1631 5.27567 30.1065 4.913 30.0611C4.56167 30.0158 4.21033 29.9761 3.859 29.9421C3.50767 29.9081 3.196 29.8968 2.924 29.9081L3.349 28.4971C3.689 28.4971 4.046 28.4461 4.42 28.3441C4.794 28.2308 5.151 28.1005 5.491 27.9531C5.831 27.7945 6.10867 27.6301 6.324 27.4601C6.55067 27.2788 6.681 27.1088 6.715 26.9501C6.73767 26.8368 6.68667 26.7518 6.562 26.6951C6.44867 26.6271 6.26733 26.5931 6.018 26.5931C5.59867 26.5931 5.202 26.6441 4.828 26.7461C4.46533 26.8368 4.131 26.9388 3.825 27.0521C3.53033 27.1655 3.25267 27.2391 2.992 27.2731C2.76533 27.2845 2.584 27.2221 2.448 27.0861C2.32333 26.9501 2.28367 26.7575 2.329 26.5081C2.38567 26.2248 2.54433 25.9811 2.805 25.7771C3.077 25.5618 3.38867 25.3975 3.74 25.2841C4.40867 25.0575 5.03767 24.9101 5.627 24.8421C6.21633 24.7628 6.76033 24.7231 7.259 24.7231C7.75767 24.7231 8.18833 24.7855 8.551 24.9101C8.925 25.0235 9.20267 25.2104 9.384 25.4711C9.56533 25.7205 9.61633 26.0378 9.537 26.4231C9.45767 26.7518 9.28767 27.0805 9.027 27.4091C8.76633 27.7378 8.415 28.0495 7.973 28.3441C7.531 28.6275 7.01533 28.8825 6.426 29.1091C5.83667 29.3358 5.185 29.5115 4.471 29.6361L5.083 28.4461C5.61567 28.4461 6.12567 28.4688 6.613 28.5141C7.10033 28.5595 7.531 28.6558 7.905 28.8031C8.279 28.9505 8.56233 29.1601 8.755 29.4321C8.94767 29.6928 8.99867 30.0441 8.908 30.4861C8.84 30.9395 8.64167 31.3645 8.313 31.7611C7.98433 32.1578 7.57067 32.5148 7.072 32.8321C6.57333 33.1381 6.02367 33.3761 5.423 33.5461C4.83367 33.7275 4.233 33.8181 3.621 33.8181ZM16.1001 27.5281C15.7487 27.5281 15.4654 27.4091 15.2501 27.1711C15.0347 26.9331 14.9611 26.6385 15.0291 26.2871C15.0744 26.0265 15.1821 25.8111 15.3521 25.6411C15.5334 25.4711 15.7714 25.3351 16.0661 25.2331C16.4854 25.0745 17.0747 24.9271 17.8341 24.7911C18.5934 24.6551 19.5284 24.5871 20.6391 24.5871C21.2737 24.5871 21.8404 24.6041 22.3391 24.6381C22.8377 24.6721 23.3704 24.7288 23.9371 24.8081C24.3111 24.8648 24.5944 24.9894 24.7871 25.1821C24.9911 25.3748 25.0647 25.6298 25.0081 25.9471C24.9627 26.1511 24.8664 26.3495 24.7191 26.5421C24.5831 26.7235 24.4017 26.8765 24.1751 27.0011C23.9484 27.1258 23.6821 27.1881 23.3761 27.1881C23.1834 27.1881 22.9114 27.1711 22.5601 27.1371C22.2201 27.1031 21.8404 27.0691 21.4211 27.0351C21.0131 27.0011 20.6051 26.9841 20.1971 26.9841C19.4264 26.9841 18.7861 27.0295 18.2761 27.1201C17.7774 27.2108 17.3581 27.3015 17.0181 27.3921C16.6894 27.4828 16.3834 27.5281 16.1001 27.5281ZM18.8881 33.6991C18.6161 33.6991 18.3837 33.6311 18.1911 33.4951C17.9984 33.3705 17.8624 33.1665 17.7831 32.8831C17.7037 32.6225 17.6697 32.2825 17.6811 31.8631C17.6924 31.4438 17.7321 30.9905 17.8001 30.5031C17.8681 30.0158 17.9474 29.5398 18.0381 29.0751C18.1967 28.3385 18.3044 27.7208 18.3611 27.2221C18.4291 26.7121 18.4914 26.2984 18.5481 25.9811L21.1491 25.8451C21.1377 25.9245 21.1037 26.1058 21.0471 26.3891C21.0017 26.6725 20.9451 27.0068 20.8771 27.3921C20.8204 27.7775 20.7524 28.1798 20.6731 28.5991C20.6051 29.0071 20.5371 29.3811 20.4691 29.7211C20.3897 30.1065 20.3444 30.4465 20.3331 30.7411C20.3217 31.0245 20.3217 31.2738 20.3331 31.4891C20.3444 31.7045 20.3557 31.8971 20.3671 32.0671C20.3784 32.2258 20.3671 32.3788 20.3331 32.5261C20.2877 32.7188 20.1971 32.9058 20.0611 33.0871C19.9251 33.2685 19.7551 33.4158 19.5511 33.5291C19.3584 33.6425 19.1374 33.6991 18.8881 33.6991ZM27.78 33.6651C26.964 33.6651 26.284 33.5575 25.74 33.3421C25.2073 33.1268 24.788 32.8321 24.482 32.4581C24.1873 32.0841 24.0003 31.6535 23.921 31.1661C23.8417 30.6788 23.8587 30.1631 23.972 29.6191C24.0853 29.0071 24.312 28.4121 24.652 27.8341C25.0033 27.2448 25.4397 26.7121 25.961 26.2361C26.4823 25.7601 27.066 25.3805 27.712 25.0971C28.3693 24.8138 29.072 24.6721 29.82 24.6721C30.4887 24.6721 31.044 24.7911 31.486 25.0291C31.928 25.2671 32.2453 25.6128 32.438 26.0661C32.6307 26.5081 32.6647 27.0465 32.54 27.6811C32.438 28.1571 32.2397 28.5708 31.945 28.9221C31.6617 29.2621 31.3047 29.5398 30.874 29.7551C30.4547 29.9591 29.9957 30.1121 29.497 30.2141C29.0097 30.3048 28.511 30.3501 28.001 30.3501C27.219 30.3501 26.6693 30.2368 26.352 30.0101C26.046 29.7721 25.9157 29.5171 25.961 29.2451C25.995 29.0865 26.0573 28.9675 26.148 28.8881C26.25 28.7975 26.386 28.7521 26.556 28.7521C26.6693 28.7521 26.811 28.7691 26.981 28.8031C27.151 28.8371 27.3833 28.8541 27.678 28.8541C28.0407 28.8541 28.4033 28.8031 28.766 28.7011C29.1287 28.5991 29.4347 28.4575 29.684 28.2761C29.9447 28.0948 30.0977 27.8908 30.143 27.6641C30.1883 27.4261 30.16 27.2505 30.058 27.1371C29.956 27.0125 29.7577 26.9501 29.463 26.9501C29.1117 26.9501 28.766 27.0295 28.426 27.1881C28.086 27.3355 27.7743 27.5508 27.491 27.8341C27.219 28.1175 26.981 28.4461 26.777 28.8201C26.5843 29.1828 26.4427 29.5738 26.352 29.9931C26.3067 30.2538 26.318 30.5031 26.386 30.7411C26.454 30.9791 26.6013 31.1661 26.828 31.3021C27.0547 31.4381 27.3833 31.5061 27.814 31.5061C28.4487 31.5061 28.9813 31.4495 29.412 31.3361C29.8427 31.2115 30.1997 31.0698 30.483 30.9111C30.7777 30.7411 31.0383 30.5938 31.265 30.4691C31.4917 30.3445 31.7013 30.2821 31.894 30.2821C32.2227 30.2821 32.438 30.4011 32.54 30.6391C32.642 30.8771 32.6647 31.1378 32.608 31.4211C32.54 31.7158 32.3757 31.9991 32.115 32.2711C31.8543 32.5431 31.5087 32.7811 31.078 32.9851C30.6473 33.1891 30.1487 33.3535 29.582 33.4781C29.0267 33.6028 28.426 33.6651 27.78 33.6651ZM35.7693 31.1831C35.1913 31.1831 34.7267 31.0471 34.3753 30.7751C34.024 30.5031 33.786 30.1405 33.6613 29.6871C33.5367 29.2338 33.5197 28.7351 33.6103 28.1911C33.6897 27.7265 33.7917 27.2788 33.9163 26.8481C34.0523 26.4175 34.211 26.0321 34.3923 25.6921C34.585 25.3521 34.8003 25.0858 35.0383 24.8931C35.2877 24.7005 35.5767 24.6041 35.9053 24.6041C36.1207 24.6041 36.3247 24.6608 36.5173 24.7741C36.71 24.8761 36.8573 25.0235 36.9593 25.2161C37.0613 25.3975 37.0953 25.6015 37.0613 25.8281C37.0387 25.9641 36.982 26.1171 36.8913 26.2871C36.812 26.4571 36.7213 26.6385 36.6193 26.8311C36.5287 27.0125 36.4437 27.2051 36.3643 27.4091C36.285 27.6018 36.234 27.8115 36.2113 28.0381C36.1887 28.1741 36.1887 28.2875 36.2113 28.3781C36.234 28.4688 36.285 28.5368 36.3643 28.5821C36.4437 28.6275 36.5457 28.6501 36.6703 28.6501C36.9197 28.6501 37.1803 28.5991 37.4523 28.4971C37.7243 28.3838 37.9963 28.2251 38.2683 28.0211C38.5517 27.8171 38.8237 27.5678 39.0843 27.2731C39.345 26.9671 39.5943 26.6271 39.8323 26.2531L40.5293 28.1401C40.0307 28.7181 39.5263 29.2338 39.0163 29.6871C38.5177 30.1405 38.002 30.5031 37.4693 30.7751C36.9367 31.0471 36.37 31.1831 35.7693 31.1831ZM39.7133 33.7331C39.362 33.7331 39.107 33.6368 38.9483 33.4441C38.801 33.2401 38.699 32.9965 38.6423 32.7131C38.597 32.4978 38.5743 32.2258 38.5743 31.8971C38.5743 31.5571 38.5913 31.1945 38.6253 30.8091C38.6707 30.4125 38.7273 30.0385 38.7953 29.6871C38.852 29.4151 38.9313 29.1035 39.0333 28.7521C39.1353 28.3895 39.243 28.0211 39.3563 27.6471C39.4697 27.2731 39.5773 26.9275 39.6793 26.6101C39.7813 26.2928 39.8663 26.0435 39.9343 25.8621C40.0703 25.4541 40.2743 25.1481 40.5463 24.9441C40.8183 24.7401 41.1073 24.6381 41.4133 24.6381C41.7307 24.6381 41.997 24.7911 42.2123 25.0971C42.4277 25.3918 42.4957 25.7601 42.4163 26.2021C42.3597 26.4515 42.2577 26.7915 42.1103 27.2221C41.9743 27.6415 41.8327 28.0778 41.6853 28.5311C41.538 28.9731 41.436 29.3585 41.3793 29.6871C41.266 30.2198 41.2093 30.6845 41.2093 31.0811C41.2207 31.4665 41.2377 31.8008 41.2603 32.0841C41.2603 32.1975 41.2547 32.2938 41.2433 32.3731C41.2433 32.4525 41.2433 32.5261 41.2433 32.5941C41.1867 32.8661 41.0223 33.1268 40.7503 33.3761C40.4783 33.6141 40.1327 33.7331 39.7133 33.7331ZM46.4581 33.6651C45.3701 33.6651 44.5201 33.4838 43.9081 33.1211C43.3074 32.7471 42.9107 32.2541 42.7181 31.6421C42.5254 31.0301 42.5027 30.3558 42.6501 29.6191C42.7634 29.0071 42.9901 28.4121 43.3301 27.8341C43.6814 27.2448 44.1177 26.7121 44.6391 26.2361C45.1604 25.7601 45.7441 25.3805 46.3901 25.0971C47.0474 24.8138 47.7501 24.6721 48.4981 24.6721C49.1667 24.6721 49.7221 24.7911 50.1641 25.0291C50.6061 25.2671 50.9234 25.6128 51.1161 26.0661C51.3087 26.5081 51.3427 27.0465 51.2181 27.6811C51.0934 28.3158 50.7987 28.8315 50.3341 29.2281C49.8694 29.6248 49.3141 29.9138 48.6681 30.0951C48.0221 30.2651 47.3591 30.3501 46.6791 30.3501C45.8971 30.3501 45.3474 30.2368 45.0301 30.0101C44.7241 29.7721 44.5937 29.5171 44.6391 29.2451C44.6731 29.0865 44.7354 28.9675 44.8261 28.8881C44.9281 28.7975 45.0641 28.7521 45.2341 28.7521C45.3474 28.7521 45.4891 28.7691 45.6591 28.8031C45.8291 28.8371 46.0614 28.8541 46.3561 28.8541C46.7187 28.8541 47.0814 28.8031 47.4441 28.7011C47.8067 28.5991 48.1127 28.4575 48.3621 28.2761C48.6227 28.0948 48.7757 27.8908 48.8211 27.6641C48.8664 27.4261 48.8381 27.2505 48.7361 27.1371C48.6341 27.0125 48.4357 26.9501 48.1411 26.9501C47.7897 26.9501 47.4441 27.0295 47.1041 27.1881C46.7641 27.3355 46.4524 27.5508 46.1691 27.8341C45.8971 28.1175 45.6591 28.4461 45.4551 28.8201C45.2624 29.1828 45.1207 29.5738 45.0301 29.9931C44.9847 30.2538 44.9961 30.5031 45.0641 30.7411C45.1321 30.9791 45.2794 31.1661 45.5061 31.3021C45.7327 31.4381 46.0614 31.5061 46.4921 31.5061C47.1267 31.5061 47.6594 31.4495 48.0901 31.3361C48.5207 31.2115 48.8777 31.0698 49.1611 30.9111C49.4557 30.7411 49.7164 30.5938 49.9431 30.4691C50.1697 30.3445 50.3794 30.2821 50.5721 30.2821C50.9007 30.2821 51.1161 30.4011 51.2181 30.6391C51.3201 30.8771 51.3427 31.1378 51.2861 31.4211C51.2181 31.7158 51.0537 31.9991 50.7931 32.2711C50.5324 32.5431 50.1867 32.7811 49.7561 32.9851C49.3254 33.1891 48.8267 33.3535 48.2601 33.4781C47.7047 33.6028 47.1041 33.6651 46.4581 33.6651ZM53.5748 33.6821C53.2008 33.6821 52.8892 33.5631 52.6398 33.3251C52.4018 33.0871 52.2432 32.7585 52.1638 32.3391C52.0958 31.9085 52.1185 31.4041 52.2318 30.8261C52.3225 30.3615 52.4528 29.9648 52.6228 29.6361C52.7928 29.2961 52.9742 29.0241 53.1668 28.8201C53.3708 28.6048 53.5578 28.4405 53.7278 28.3271C53.8638 28.2365 54.0225 28.1741 54.2038 28.1401C54.3852 28.0948 54.5665 28.0721 54.7478 28.0721C55.5752 28.0721 56.4252 28.0325 57.2978 27.9531C58.1818 27.8738 59.0205 27.6925 59.8138 27.4091L60.2048 29.4491C59.5928 29.6985 58.9412 29.8911 58.2498 30.0271C57.5698 30.1518 56.8785 30.2368 56.1758 30.2821C55.4845 30.3161 54.8102 30.3331 54.1528 30.3331L52.7588 29.8741C52.8495 29.4321 52.9458 28.9845 53.0478 28.5311C53.1498 28.0665 53.2462 27.6188 53.3368 27.1881C53.4388 26.7461 53.5295 26.3325 53.6088 25.9471C53.6995 25.5845 53.8355 25.2671 54.0168 24.9951C54.2095 24.7118 54.4758 24.5701 54.8158 24.5701C55.3712 24.5701 55.7508 24.7401 55.9548 25.0801C56.1588 25.4088 56.2042 25.8678 56.0908 26.4571C56.0342 26.7291 55.9605 27.0351 55.8698 27.3751C55.7905 27.7038 55.6998 28.0438 55.5978 28.3951C55.5072 28.7465 55.4165 29.0808 55.3258 29.3981C55.2465 29.7041 55.1842 29.9648 55.1388 30.1801C55.0708 30.5768 54.9972 30.9735 54.9178 31.3701C54.8385 31.7555 54.7478 32.1918 54.6458 32.6791C54.6005 32.9625 54.4758 33.2005 54.2718 33.3931C54.0678 33.5858 53.8355 33.6821 53.5748 33.6821ZM59.6608 33.6821C59.2415 33.6821 58.9298 33.5121 58.7258 33.1721C58.5332 32.8321 58.4255 32.3788 58.4028 31.8121C58.3915 31.2455 58.4538 30.6165 58.5898 29.9251C58.8052 28.8371 59.0092 27.9531 59.2018 27.2731C59.4058 26.5931 59.5758 26.0605 59.7118 25.6751C59.8365 25.3465 60.0348 25.0745 60.3068 24.8591C60.5788 24.6438 60.8848 24.5361 61.2248 24.5361C61.5422 24.5361 61.8085 24.6551 62.0238 24.8931C62.2392 25.1198 62.3185 25.3861 62.2618 25.6921C62.1825 26.1001 62.0465 26.5648 61.8538 27.0861C61.6725 27.5961 61.5082 28.2138 61.3608 28.9391C61.2475 29.4945 61.1738 29.9875 61.1398 30.4181C61.1172 30.8488 61.1002 31.2341 61.0888 31.5741C61.0775 31.9028 61.0435 32.2201 60.9868 32.5261C60.9188 32.8321 60.7715 33.1041 60.5448 33.3421C60.3295 33.5688 60.0348 33.6821 59.6608 33.6821ZM64.5525 33.6991C64.0765 33.6991 63.6855 33.6085 63.3795 33.4271C63.0735 33.2345 62.8468 32.9795 62.6995 32.6621C62.5521 32.3335 62.4671 31.9708 62.4445 31.5741C62.4218 31.1661 62.4558 30.7468 62.5465 30.3161C62.6145 29.9648 62.7051 29.5795 62.8185 29.1601C62.9318 28.7295 63.0508 28.3045 63.1755 27.8851C63.3001 27.4658 63.4248 27.0748 63.5495 26.7121C63.6741 26.3495 63.7761 26.0605 63.8555 25.8451C64.0028 25.4485 64.1841 25.1538 64.3995 24.9611C64.6261 24.7571 64.8528 24.6551 65.0795 24.6551C65.3515 24.6551 65.5895 24.7175 65.7935 24.8421C66.0088 24.9555 66.1675 25.1085 66.2695 25.3011C66.3828 25.4938 66.4168 25.7091 66.3715 25.9471C66.3375 26.1171 66.2638 26.3551 66.1505 26.6611C66.0485 26.9558 65.9351 27.2845 65.8105 27.6471C65.6858 27.9985 65.5611 28.3611 65.4365 28.7351C65.3231 29.0978 65.2325 29.4491 65.1645 29.7891C65.1191 29.9931 65.0851 30.1971 65.0625 30.4011C65.0398 30.5938 65.0398 30.7581 65.0625 30.8941C65.0965 31.0301 65.1758 31.0981 65.3005 31.0981C65.5725 31.0981 65.9068 30.8771 66.3035 30.4351C66.7001 29.9931 67.1138 29.4321 67.5445 28.7521C67.8958 28.2421 68.2018 27.7435 68.4625 27.2561C68.7345 26.7688 68.9838 26.3325 69.2105 25.9471C69.4485 25.5504 69.6808 25.2331 69.9075 24.9951C70.1455 24.7571 70.4175 24.6381 70.7235 24.6381C71.1881 24.6381 71.5111 24.7685 71.6925 25.0291C71.8851 25.2785 71.9701 25.5958 71.9475 25.9811C71.9361 26.2871 71.9248 26.6611 71.9135 27.1031C71.9135 27.5338 71.9135 27.9645 71.9135 28.3951C71.9248 28.8145 71.9361 29.1431 71.9475 29.3811C71.9928 29.9025 72.0608 30.3275 72.1515 30.6561C72.2535 30.9848 72.3385 31.2738 72.4065 31.5231C72.4858 31.7725 72.5028 32.0275 72.4575 32.2881C72.4121 32.5261 72.3101 32.7471 72.1515 32.9511C71.9928 33.1551 71.8001 33.3251 71.5735 33.4611C71.3581 33.5858 71.1258 33.6481 70.8765 33.6481C70.3891 33.6481 70.0491 33.3931 69.8565 32.8831C69.6751 32.3731 69.5561 31.6705 69.4995 30.7751C69.4655 30.3558 69.4428 29.9308 69.4315 29.5001C69.4315 29.0695 69.4371 28.6445 69.4485 28.2251C69.4598 27.8058 69.4768 27.4148 69.4995 27.0521L70.4175 27.5111C70.2815 27.7831 70.0831 28.1628 69.8225 28.6501C69.5618 29.1261 69.1821 29.7778 68.6835 30.6051C68.3548 31.1718 67.9581 31.6931 67.4935 32.1691C67.0401 32.6338 66.5585 33.0078 66.0485 33.2911C65.5498 33.5631 65.0511 33.6991 64.5525 33.6991ZM77.1232 33.6651C76.0352 33.6651 75.1852 33.4838 74.5732 33.1211C73.9725 32.7471 73.5758 32.2541 73.3832 31.6421C73.1905 31.0301 73.1678 30.3558 73.3152 29.6191C73.4285 29.0071 73.6552 28.4121 73.9952 27.8341C74.3465 27.2448 74.7828 26.7121 75.3042 26.2361C75.8255 25.7601 76.4092 25.3805 77.0552 25.0971C77.7125 24.8138 78.4152 24.6721 79.1632 24.6721C80.1605 24.6721 80.9085 24.9384 81.4072 25.4711C81.9058 26.0038 82.0645 26.7405 81.8832 27.6811C81.7585 28.3158 81.4638 28.8315 80.9992 29.2281C80.5345 29.6248 79.9792 29.9138 79.3332 30.0951C78.6872 30.2651 78.0242 30.3501 77.3442 30.3501C76.5622 30.3501 76.0125 30.2368 75.6952 30.0101C75.3892 29.7721 75.2588 29.5171 75.3042 29.2451C75.3382 29.0865 75.4005 28.9675 75.4912 28.8881C75.5932 28.7975 75.7292 28.7521 75.8992 28.7521C76.0125 28.7521 76.1542 28.7691 76.3242 28.8031C76.4942 28.8371 76.7265 28.8541 77.0212 28.8541C77.3838 28.8541 77.7465 28.8031 78.1092 28.7011C78.4718 28.5991 78.7778 28.4575 79.0272 28.2761C79.2878 28.0948 79.4408 27.8908 79.4862 27.6641C79.5315 27.4261 79.5032 27.2505 79.4012 27.1371C79.2992 27.0125 79.1008 26.9501 78.8062 26.9501C78.4548 26.9501 78.1092 27.0295 77.7692 27.1881C77.4292 27.3355 77.1175 27.5508 76.8342 27.8341C76.5622 28.1175 76.3242 28.4461 76.1202 28.8201C75.9275 29.1828 75.7858 29.5738 75.6952 29.9931C75.6498 30.2538 75.6612 30.5031 75.7292 30.7411C75.7972 30.9791 75.9445 31.1661 76.1712 31.3021C76.3978 31.4381 76.7265 31.5061 77.1572 31.5061C77.7918 31.5061 78.3245 31.4495 78.7552 31.3361C79.1858 31.2115 79.5428 31.0698 79.8262 30.9111C80.1208 30.7411 80.3815 30.5938 80.6082 30.4691C80.8348 30.3445 81.0445 30.2821 81.2372 30.2821C81.5658 30.2821 81.7812 30.4011 81.8832 30.6391C81.9852 30.8771 82.0078 31.1378 81.9512 31.4211C81.8832 31.7158 81.7188 31.9991 81.4582 32.2711C81.1975 32.5431 80.8518 32.7811 80.4212 32.9851C79.9905 33.1891 79.4918 33.3535 78.9252 33.4781C78.3698 33.6028 77.7692 33.6651 77.1232 33.6651ZM89.2507 33.8351C88.6613 33.8351 88.259 33.6538 88.0437 33.2911C87.8283 32.9285 87.7717 32.4638 87.8737 31.8971C87.9417 31.5685 88.0437 31.3248 88.1797 31.1661C88.3157 30.9961 88.4687 30.8658 88.6387 30.7751C89.8287 30.0951 90.86 29.4888 91.7327 28.9561C92.6053 28.4235 93.325 27.9418 93.8917 27.5111C94.4697 27.0691 94.9117 26.6611 95.2177 26.2871C95.5237 25.9018 95.7163 25.5165 95.7957 25.1311C95.8637 24.7798 95.8183 24.5021 95.6597 24.2981C95.501 24.0828 95.2063 23.9751 94.7757 23.9751C94.2997 23.9751 93.8463 24.0488 93.4157 24.1961C92.985 24.3321 92.594 24.4908 92.2427 24.6721C91.8913 24.8534 91.574 25.0178 91.2907 25.1651C91.0187 25.3011 90.7807 25.3691 90.5767 25.3691C90.2253 25.3691 89.9533 25.2218 89.7607 24.9271C89.568 24.6325 89.5113 24.2925 89.5907 23.9071C89.636 23.6691 89.7153 23.4708 89.8287 23.3121C89.9533 23.1421 90.1573 22.9721 90.4407 22.8021C91.234 22.3035 92.0273 21.9408 92.8207 21.7141C93.6253 21.4874 94.3903 21.3741 95.1157 21.3741C96.079 21.3741 96.8213 21.5441 97.3427 21.8841C97.8753 22.2128 98.2153 22.6661 98.3627 23.2441C98.5213 23.8221 98.5213 24.4908 98.3627 25.2501C98.2833 25.7148 98.1133 26.1851 97.8527 26.6611C97.592 27.1371 97.201 27.6358 96.6797 28.1571C96.1583 28.6671 95.4613 29.2168 94.5887 29.8061C93.716 30.3841 92.6167 31.0075 91.2907 31.6761L90.8827 30.9791C91.0753 31.0358 91.268 31.0811 91.4607 31.1151C91.6647 31.1378 91.8687 31.1491 92.0727 31.1491C92.4013 31.1491 92.7867 31.1321 93.2287 31.0981C93.6707 31.0528 94.1523 31.0131 94.6737 30.9791C95.195 30.9338 95.7503 30.9111 96.3397 30.9111C97.1217 30.9111 97.6373 31.0528 97.8867 31.3361C98.136 31.6195 98.221 31.9765 98.1417 32.4071C98.0737 32.6905 97.9037 32.9455 97.6317 33.1721C97.3597 33.3875 97.0197 33.4951 96.6117 33.4951C95.6483 33.4951 94.7813 33.5121 94.0107 33.5461C93.2513 33.5801 92.5713 33.6198 91.9707 33.6651C91.3813 33.7105 90.86 33.7501 90.4067 33.7841C89.9647 33.8181 89.5793 33.8351 89.2507 33.8351ZM100.416 30.3841C99.8951 30.3841 99.4645 30.3105 99.1245 30.1631C98.7958 30.0045 98.5578 29.8118 98.4105 29.5851C98.2745 29.3585 98.2348 29.1205 98.2915 28.8711C98.3255 28.7011 98.3878 28.5595 98.4785 28.4461C98.5805 28.3328 98.7561 28.2421 99.0055 28.1741C99.7648 27.9815 100.49 27.8625 101.181 27.8171C101.884 27.7718 102.587 27.7491 103.289 27.7491C103.901 27.7491 104.372 27.8398 104.7 28.0211C105.029 28.2025 105.244 28.4178 105.346 28.6671C105.46 28.9165 105.494 29.1431 105.448 29.3471C105.403 29.5965 105.29 29.8005 105.108 29.9591C104.938 30.1065 104.717 30.1801 104.445 30.1801C103.607 30.1801 102.927 30.1971 102.405 30.2311C101.884 30.2651 101.47 30.2991 101.164 30.3331C100.858 30.3671 100.609 30.3841 100.416 30.3841ZM105.528 33.7671C105.279 33.7671 105.075 33.6821 104.916 33.5121C104.757 33.3535 104.689 33.1211 104.712 32.8151C104.723 32.5091 104.854 32.1351 105.103 31.6931C105.364 31.2398 105.715 30.7468 106.157 30.2141C106.599 29.6701 107.115 29.1148 107.704 28.5481C108.293 27.9815 108.934 27.4261 109.625 26.8821C110.328 26.3268 111.059 25.8225 111.818 25.3691C112.101 25.1991 112.351 25.0688 112.566 24.9781C112.781 24.8761 112.98 24.8081 113.161 24.7741C113.342 24.7288 113.518 24.7061 113.688 24.7061C113.971 24.7061 114.221 24.8081 114.436 25.0121C114.663 25.2161 114.736 25.5221 114.657 25.9301C114.6 26.2021 114.481 26.4288 114.3 26.6101C114.13 26.7915 113.926 26.9501 113.688 27.0861C112.872 27.5168 112.084 28.0381 111.325 28.6501C110.577 29.2508 109.863 29.9081 109.183 30.6221C108.503 31.3248 107.846 32.0445 107.211 32.7811C106.916 33.1438 106.639 33.3988 106.378 33.5461C106.129 33.6935 105.845 33.7671 105.528 33.7671ZM112.141 33.7501C111.858 33.7501 111.608 33.6821 111.393 33.5461C111.178 33.4101 110.974 33.1495 110.781 32.7641C110.566 32.3221 110.294 31.8518 109.965 31.3531C109.648 30.8545 109.302 30.3615 108.928 29.8741C108.554 29.3755 108.174 28.9108 107.789 28.4801C107.404 28.0381 107.041 27.6528 106.701 27.3241C106.452 27.0975 106.265 26.8595 106.14 26.6101C106.027 26.3608 105.998 26.0775 106.055 25.7601C106.134 25.4201 106.282 25.1538 106.497 24.9611C106.724 24.7684 107.001 24.6721 107.33 24.6721C107.557 24.6721 107.766 24.7231 107.959 24.8251C108.152 24.9158 108.384 25.0971 108.656 25.3691C108.849 25.5505 109.092 25.8225 109.387 26.1851C109.682 26.5365 109.999 26.9331 110.339 27.3751C110.679 27.8058 111.008 28.2591 111.325 28.7351C111.654 29.1998 111.954 29.6418 112.226 30.0611C112.498 30.4691 112.713 30.8261 112.872 31.1321C113.11 31.6195 113.252 31.9935 113.297 32.2541C113.342 32.5035 113.348 32.7075 113.314 32.8661C113.269 33.1495 113.138 33.3648 112.923 33.5121C112.719 33.6708 112.458 33.7501 112.141 33.7501ZM122.137 31.1831C121.559 31.1831 121.095 31.0471 120.743 30.7751C120.392 30.5031 120.154 30.1405 120.029 29.6871C119.905 29.2338 119.888 28.7351 119.978 28.1911C120.058 27.7265 120.16 27.2788 120.284 26.8481C120.42 26.4175 120.579 26.0321 120.76 25.6921C120.953 25.3521 121.168 25.0858 121.406 24.8931C121.656 24.7005 121.945 24.6041 122.273 24.6041C122.489 24.6041 122.693 24.6608 122.885 24.7741C123.078 24.8761 123.225 25.0235 123.327 25.2161C123.429 25.3975 123.463 25.6015 123.429 25.8281C123.407 25.9641 123.35 26.1171 123.259 26.2871C123.18 26.4571 123.089 26.6385 122.987 26.8311C122.897 27.0125 122.812 27.2051 122.732 27.4091C122.653 27.6018 122.602 27.8115 122.579 28.0381C122.557 28.1741 122.557 28.2875 122.579 28.3781C122.602 28.4688 122.653 28.5368 122.732 28.5821C122.812 28.6275 122.914 28.6501 123.038 28.6501C123.288 28.6501 123.548 28.5991 123.82 28.4971C124.092 28.3838 124.364 28.2251 124.636 28.0211C124.92 27.8171 125.192 27.5678 125.452 27.2731C125.713 26.9671 125.962 26.6271 126.2 26.2531L126.897 28.1401C126.399 28.7181 125.894 29.2338 125.384 29.6871C124.886 30.1405 124.37 30.5031 123.837 30.7751C123.305 31.0471 122.738 31.1831 122.137 31.1831ZM126.081 33.7331C125.73 33.7331 125.475 33.6368 125.316 33.4441C125.169 33.2401 125.067 32.9965 125.01 32.7131C124.965 32.4978 124.942 32.2258 124.942 31.8971C124.942 31.5571 124.959 31.1945 124.993 30.8091C125.039 30.4125 125.095 30.0385 125.163 29.6871C125.22 29.4151 125.299 29.1035 125.401 28.7521C125.503 28.3895 125.611 28.0211 125.724 27.6471C125.838 27.2731 125.945 26.9275 126.047 26.6101C126.149 26.2928 126.234 26.0435 126.302 25.8621C126.438 25.4541 126.642 25.1481 126.914 24.9441C127.186 24.7401 127.475 24.6381 127.781 24.6381C128.099 24.6381 128.365 24.7911 128.58 25.0971C128.796 25.3918 128.864 25.7601 128.784 26.2021C128.728 26.4515 128.626 26.7915 128.478 27.2221C128.342 27.6415 128.201 28.0778 128.053 28.5311C127.906 28.9731 127.804 29.3585 127.747 29.6871C127.634 30.2198 127.577 30.6845 127.577 31.0811C127.589 31.4665 127.606 31.8008 127.628 32.0841C127.628 32.1975 127.623 32.2938 127.611 32.3731C127.611 32.4525 127.611 32.5261 127.611 32.5941C127.555 32.8661 127.39 33.1268 127.118 33.3761C126.846 33.6141 126.501 33.7331 126.081 33.7331ZM131.04 33.6651C130.462 33.6651 129.975 33.5348 129.578 33.2741C129.193 33.0021 128.921 32.6451 128.762 32.2031C128.615 31.7498 128.592 31.2568 128.694 30.7241C128.808 30.1461 129.017 29.5681 129.323 28.9901C129.641 28.4008 130.015 27.8511 130.445 27.3411C130.887 26.8198 131.369 26.3608 131.89 25.9641C132.423 25.5561 132.961 25.2388 133.505 25.0121C134.061 24.7741 134.605 24.6551 135.137 24.6551C135.557 24.6551 135.885 24.7911 136.123 25.0631C136.361 25.3351 136.429 25.7204 136.327 26.2191C136.293 26.4004 136.214 26.5421 136.089 26.6441C135.965 26.7461 135.823 26.8141 135.664 26.8481C134.916 26.9728 134.219 27.2561 133.573 27.6981C132.939 28.1401 132.4 28.6728 131.958 29.2961C131.516 29.9081 131.227 30.5485 131.091 31.2171C131.057 31.4098 131.035 31.5911 131.023 31.7611C131.023 31.9198 131.046 32.1238 131.091 32.3731L130.275 30.6391C130.513 30.8431 130.729 30.9848 130.921 31.0641C131.114 31.1321 131.352 31.1661 131.635 31.1661C132.213 31.1661 132.825 30.7978 133.471 30.0611C134.117 29.3131 134.684 28.2308 135.171 26.8141C135.273 26.5421 135.443 26.3325 135.681 26.1851C135.919 26.0265 136.163 25.9471 136.412 25.9471C136.82 25.9471 137.143 26.0888 137.381 26.3721C137.619 26.6555 137.761 26.9728 137.806 27.3241C137.897 27.8681 137.976 28.3668 138.044 28.8201C138.112 29.2735 138.22 29.7155 138.367 30.1461C138.515 30.5655 138.736 31.0018 139.03 31.4551C139.155 31.6251 139.212 31.8291 139.2 32.0671C139.2 32.3051 139.138 32.5431 139.013 32.7811C138.889 33.0191 138.707 33.2175 138.469 33.3761C138.243 33.5348 137.965 33.6141 137.636 33.6141C137.444 33.6141 137.274 33.5745 137.126 33.4951C136.99 33.4045 136.883 33.2911 136.803 33.1551C136.633 32.8718 136.486 32.5885 136.361 32.3051C136.237 32.0218 136.129 31.7215 136.038 31.4041C135.959 31.0755 135.891 30.7015 135.834 30.2821C135.778 29.8628 135.732 29.3811 135.698 28.8371L136.616 28.7691C136.242 29.7211 135.823 30.5145 135.358 31.1491C134.905 31.7725 134.429 32.2711 133.93 32.6451C133.443 33.0191 132.956 33.2855 132.468 33.4441C131.981 33.5915 131.505 33.6651 131.04 33.6651ZM143.53 33.6481C142.544 33.6481 141.745 33.4668 141.133 33.1041C140.532 32.7301 140.124 32.2258 139.909 31.5911C139.694 30.9565 139.66 30.2538 139.807 29.4831C139.954 28.7691 140.226 28.1231 140.623 27.5451C141.02 26.9558 141.507 26.4458 142.085 26.0151C142.663 25.5845 143.298 25.2558 143.989 25.0291C144.68 24.7911 145.389 24.6721 146.114 24.6721C146.477 24.6721 146.805 24.7401 147.1 24.8761C147.406 25.0008 147.633 25.1935 147.78 25.4541C147.939 25.7148 147.978 26.0491 147.899 26.4571C147.82 26.8765 147.661 27.1881 147.423 27.3921C147.196 27.5961 146.964 27.6981 146.726 27.6981C146.545 27.6981 146.414 27.6585 146.335 27.5791C146.256 27.4998 146.182 27.4261 146.114 27.3581C146.046 27.2788 145.933 27.2391 145.774 27.2391C145.23 27.2391 144.714 27.3695 144.227 27.6301C143.74 27.8795 143.332 28.2025 143.003 28.5991C142.686 28.9958 142.487 29.4095 142.408 29.8401C142.351 30.1121 142.351 30.3558 142.408 30.5711C142.476 30.7865 142.612 30.9565 142.816 31.0811C143.031 31.2058 143.343 31.2681 143.751 31.2681C144.204 31.2681 144.567 31.2115 144.839 31.0981C145.111 30.9735 145.326 30.8375 145.485 30.6901C145.655 30.5428 145.808 30.4125 145.944 30.2991C146.091 30.1745 146.261 30.1121 146.454 30.1121C146.737 30.1121 146.947 30.2028 147.083 30.3841C147.23 30.5541 147.264 30.8601 147.185 31.3021C147.083 31.7668 146.856 32.1805 146.505 32.5431C146.165 32.8945 145.74 33.1665 145.23 33.3591C144.72 33.5518 144.153 33.6481 143.53 33.6481ZM152.717 33.6991C151.674 33.6991 150.796 33.4781 150.082 33.0361C149.368 32.5828 148.858 31.9821 148.552 31.2341C148.246 30.4748 148.184 29.6418 148.365 28.7351C148.49 28.1571 148.716 27.6188 149.045 27.1201C149.374 26.6215 149.77 26.1851 150.235 25.8111C150.7 25.4371 151.181 25.1481 151.68 24.9441C152.19 24.7288 152.677 24.6211 153.142 24.6211C153.335 24.6211 153.522 24.6551 153.703 24.7231C153.896 24.7798 154.043 24.8761 154.145 25.0121C154.258 25.1368 154.292 25.3124 154.247 25.5391C154.156 25.9471 153.998 26.3041 153.771 26.6101C153.544 26.9161 153.165 27.1541 152.632 27.3241C152.36 27.4148 152.099 27.5508 151.85 27.7321C151.612 27.9135 151.408 28.1231 151.238 28.3611C151.068 28.5991 150.955 28.8598 150.898 29.1431C150.762 29.7891 150.864 30.3105 151.204 30.7071C151.555 31.1038 152.094 31.3021 152.819 31.3021C153.431 31.3021 153.969 31.1038 154.434 30.7071C154.91 30.3105 155.216 29.7835 155.352 29.1261C155.454 28.5595 155.375 28.1061 155.114 27.7661C154.865 27.4148 154.474 27.2391 153.941 27.2391C153.669 27.2391 153.431 27.3071 153.227 27.4431C153.034 27.5791 152.802 27.7605 152.53 27.9871C152.326 28.1571 152.156 28.2931 152.02 28.3951C151.884 28.4971 151.748 28.5765 151.612 28.6331C151.487 28.6785 151.334 28.7011 151.153 28.7011C150.949 28.7011 150.762 28.5991 150.592 28.3951C150.422 28.1911 150.382 27.8681 150.473 27.4261C150.541 27.1088 150.694 26.7915 150.932 26.4741C151.181 26.1568 151.476 25.8735 151.816 25.6241C152.167 25.3748 152.53 25.1765 152.904 25.0291C153.289 24.8705 153.658 24.7911 154.009 24.7911C155.018 24.7911 155.834 24.9895 156.457 25.3861C157.092 25.7828 157.528 26.3268 157.766 27.0181C158.015 27.6981 158.049 28.4745 157.868 29.3471C157.698 30.2311 157.364 31.0018 156.865 31.6591C156.366 32.3051 155.76 32.8095 155.046 33.1721C154.332 33.5235 153.556 33.6991 152.717 33.6991ZM161.58 33.8181C160.968 33.8181 160.447 33.7218 160.016 33.5291C159.597 33.3365 159.263 33.0645 159.013 32.7131C158.764 32.3505 158.6 31.9368 158.52 31.4721C158.452 30.9961 158.475 30.4748 158.588 29.9081C158.679 29.4661 158.809 28.9561 158.979 28.3781C159.149 27.8001 159.359 27.2391 159.608 26.6951C159.858 26.1398 160.13 25.6751 160.424 25.3011C160.549 25.1425 160.713 25.0065 160.917 24.8931C161.121 24.7798 161.342 24.6948 161.58 24.6381C161.83 24.5701 162.068 24.5361 162.294 24.5361C162.532 24.5361 162.708 24.6098 162.821 24.7571C162.946 24.8931 162.98 25.1198 162.923 25.4371C162.878 25.6411 162.776 25.8961 162.617 26.2021C162.459 26.4968 162.277 26.8481 162.073 27.2561C161.869 27.6528 161.671 28.1005 161.478 28.5991C161.286 29.0865 161.127 29.6248 161.002 30.2141C160.912 30.6675 160.929 31.0585 161.053 31.3871C161.178 31.7045 161.456 31.8631 161.886 31.8631C162.215 31.8631 162.544 31.7895 162.872 31.6421C163.201 31.4835 163.501 31.2681 163.773 30.9961C164.045 30.7241 164.261 30.4181 164.419 30.0781L164.538 30.4181C164.391 30.3615 164.164 30.2991 163.858 30.2311C163.564 30.1631 163.235 30.1065 162.872 30.0611C162.521 30.0158 162.17 29.9761 161.818 29.9421C161.467 29.9081 161.155 29.8968 160.883 29.9081L161.308 28.4971C161.648 28.4971 162.005 28.4461 162.379 28.3441C162.753 28.2308 163.11 28.1005 163.45 27.9531C163.79 27.7945 164.068 27.6301 164.283 27.4601C164.51 27.2788 164.64 27.1088 164.674 26.9501C164.697 26.8368 164.646 26.7518 164.521 26.6951C164.408 26.6271 164.227 26.5931 163.977 26.5931C163.558 26.5931 163.161 26.6441 162.787 26.7461C162.425 26.8368 162.09 26.9388 161.784 27.0521C161.49 27.1655 161.212 27.2391 160.951 27.2731C160.725 27.2845 160.543 27.2221 160.407 27.0861C160.283 26.9501 160.243 26.7575 160.288 26.5081C160.345 26.2248 160.504 25.9811 160.764 25.7771C161.036 25.5618 161.348 25.3975 161.699 25.2841C162.368 25.0575 162.997 24.9101 163.586 24.8421C164.176 24.7628 164.72 24.7231 165.218 24.7231C165.717 24.7231 166.148 24.7855 166.51 24.9101C166.884 25.0235 167.162 25.2104 167.343 25.4711C167.525 25.7205 167.576 26.0378 167.496 26.4231C167.417 26.7518 167.247 27.0805 166.986 27.4091C166.726 27.7378 166.374 28.0495 165.932 28.3441C165.49 28.6275 164.975 28.8825 164.385 29.1091C163.796 29.3358 163.144 29.5115 162.43 29.6361L163.042 28.4461C163.575 28.4461 164.085 28.4688 164.572 28.5141C165.06 28.5595 165.49 28.6558 165.864 28.8031C166.238 28.9505 166.522 29.1601 166.714 29.4321C166.907 29.6928 166.958 30.0441 166.867 30.4861C166.799 30.9395 166.601 31.3645 166.272 31.7611C165.944 32.1578 165.53 32.5148 165.031 32.8321C164.533 33.1381 163.983 33.3761 163.382 33.5461C162.793 33.7275 162.192 33.8181 161.58 33.8181Z" fill="#FFF5BE"/>
</svg>
