<svg width="20" height="20" viewBox="0 0 20 20" fill="none" xmlns="http://www.w3.org/2000/svg">
<g clip-path="url(#clip0_5_2372)">
<mask id="mask0_5_2372" style="mask-type:luminance" maskUnits="userSpaceOnUse" x="0" y="0" width="20" height="20">
<path d="M19.5 0.5H0.5V19.5H19.5V0.5Z" fill="white"/>
</mask>
<g mask="url(#mask0_5_2372)">
<path fill-rule="evenodd" clip-rule="evenodd" d="M7.08666 0.5C12.4066 0.5 7.59334 0.5 12.9134 0.5C18.2334 0.5 19.5 1.76666 19.5 7.08666C19.5 12.4066 19.5 7.59334 19.5 12.9134C19.5 18.2334 18.2334 19.5 12.9134 19.5C7.59334 19.5 12.4066 19.5 7.08666 19.5C1.76666 19.5 0.5 18.2334 0.5 12.9134C0.5 7.59334 0.5 10.0574 0.5 7.08666C0.5 1.76666 1.76666 0.5 7.08666 0.5Z" fill="#5181B8"/>
<path fill-rule="evenodd" clip-rule="evenodd" d="M16.0596 7.04589C16.1477 6.75233 16.0596 6.53662 15.6407 6.53662H14.2553C13.903 6.53662 13.7406 6.72296 13.6525 6.92844C13.6525 6.92844 12.9479 8.64574 11.9499 9.76118C11.627 10.0841 11.4802 10.1869 11.3041 10.1869C11.216 10.1869 11.0886 10.0841 11.0886 9.79056V7.04589C11.0886 6.69362 10.9863 6.53662 10.6928 6.53662H8.51569C8.29551 6.53662 8.16316 6.70012 8.16316 6.85507C8.16316 7.18901 8.66213 7.26602 8.71358 8.20538V10.2455C8.71358 10.6928 8.63283 10.774 8.45671 10.774C7.98705 10.774 6.84458 9.04905 6.167 7.07523C6.03421 6.69159 5.90102 6.53662 5.54695 6.53662H4.16153C3.7657 6.53662 3.68652 6.72296 3.68652 6.92844C3.68652 7.29539 4.15621 9.1154 5.87347 11.5225C7.01829 13.1663 8.6313 14.0574 10.099 14.0574C10.9796 14.0574 11.0886 13.8596 11.0886 13.5187V12.2762C11.0886 11.8803 11.172 11.8013 11.4509 11.8013C11.6564 11.8013 12.0086 11.9041 12.8306 12.6967C13.7699 13.6361 13.9248 14.0574 14.4532 14.0574H15.8386C16.2344 14.0574 16.4323 13.8596 16.3182 13.469C16.1932 13.0797 15.7448 12.5149 15.1496 11.8454C14.8267 11.4638 14.3423 11.0528 14.1956 10.8473C13.9901 10.5832 14.0488 10.4657 14.1956 10.2309C14.1956 10.2309 15.8835 7.85315 16.0596 7.04589Z" fill="white"/>
</g>
</g>
<defs>
<clipPath id="clip0_5_2372">
<rect width="19" height="19" fill="white" transform="translate(0.5 0.5)"/>
</clipPath>
</defs>
</svg>
