<svg width="23" height="24" viewBox="0 0 23 24" fill="none" xmlns="http://www.w3.org/2000/svg">
<rect y="0.5" width="23" height="23" rx="11.5" fill="white"/>
<path fill-rule="evenodd" clip-rule="evenodd" d="M11.6 17.2167C10.6531 17.2167 9.76359 16.9747 8.98968 16.55L6 17.5L6.9746 14.6251C6.48302 13.8176 6.19983 12.8706 6.19983 11.8583C6.19983 8.89898 8.61751 6.5 11.6001 6.5C14.5823 6.5 17 8.89898 17 11.8583C17 14.8177 14.5824 17.2167 11.6 17.2167ZM11.6 7.35336C9.09638 7.35336 7.05991 9.3743 7.05991 11.8583C7.05991 12.8441 7.38123 13.7569 7.92463 14.4997L7.35752 16.1727L9.10212 15.6181C9.81908 16.0888 10.6778 16.3633 11.6 16.3633C14.1032 16.3633 16.14 14.3425 16.14 11.8585C16.14 9.37442 14.1032 7.35336 11.6 7.35336ZM14.3268 13.0924C14.2935 13.0378 14.2053 13.0048 14.0731 12.9392C13.9407 12.8735 13.2897 12.5556 13.1686 12.512C13.0471 12.4682 12.9587 12.4461 12.8706 12.5776C12.7825 12.7091 12.5287 13.0048 12.4514 13.0924C12.3741 13.1802 12.297 13.1912 12.1646 13.1254C12.0324 13.0598 11.6058 12.9211 11.1001 12.4736C10.7067 12.1255 10.4409 11.6958 10.3638 11.5642C10.2866 11.4328 10.3556 11.3618 10.4219 11.2964C10.4814 11.2375 10.5542 11.143 10.6205 11.0663C10.6867 10.9896 10.7087 10.935 10.7527 10.8472C10.797 10.7596 10.7749 10.6829 10.7417 10.6171C10.7086 10.5514 10.4438 9.90511 10.3335 9.64209C10.2233 9.37931 10.1131 9.42307 10.0358 9.42307C9.95853 9.42307 9.87029 9.41207 9.78204 9.41207C9.6938 9.41207 9.55031 9.44494 9.42894 9.57633C9.3077 9.70784 8.96584 10.0256 8.96584 10.6718C8.96584 11.3181 9.43994 11.9426 9.50631 12.0301C9.57243 12.1176 10.4218 13.487 11.7673 14.0129C13.1133 14.5387 13.1133 14.3633 13.3561 14.3414C13.5984 14.3195 14.1389 14.0238 14.2495 13.7171C14.3596 13.4102 14.3596 13.1472 14.3268 13.0924Z" fill="black"/>
</svg>
