<svg width="24" height="24" viewBox="0 0 24 24" fill="none" xmlns="http://www.w3.org/2000/svg">
<rect y="-0.00976562" width="24" height="24" rx="12" fill="#25D366"/>
<rect x="0.461538" y="0.451773" width="23.0769" height="23.0769" rx="11.5385" stroke="url(#paint0_linear_48_521)" stroke-opacity="0.08" stroke-width="0.923077"/>
<path fill-rule="evenodd" clip-rule="evenodd" d="M17.2338 6.75275C15.8461 5.36981 13.9975 4.60818 12.0302 4.60596C7.97698 4.60596 4.67579 7.8885 4.67579 11.9238C4.67579 13.2132 5.01374 14.4736 5.65831 15.5827L4.61536 19.3752L8.51413 18.3575C9.58842 18.9409 10.797 19.2483 12.0279 19.2483H12.0302C16.0834 19.2483 19.3823 15.9657 19.3846 11.9304C19.3868 9.97517 18.6236 8.1357 17.2338 6.75275ZM12.0324 18.0123H12.0302C10.9335 18.0123 9.85699 17.7183 8.91922 17.1638L8.69541 17.0324L6.38122 17.6359L6.99893 15.3911L6.85346 15.1618C6.24246 14.193 5.91793 13.0751 5.91793 11.9238C5.92017 8.56995 8.66184 5.84192 12.0347 5.84192C13.6685 5.84192 15.2016 6.47661 16.3564 7.62572C17.5113 8.77484 18.1469 10.3048 18.1447 11.9282C18.1447 15.2843 15.4008 18.0123 12.0324 18.0123ZM15.3851 13.4559C15.2016 13.3646 14.2974 12.9214 14.1295 12.8613C13.9617 12.8012 13.8386 12.77 13.7155 12.9526C13.5924 13.1352 13.241 13.5472 13.1336 13.6697C13.0261 13.7922 12.9187 13.8078 12.7352 13.7165C12.5517 13.6252 11.9586 13.4314 11.258 12.8079C10.7119 12.3224 10.3427 11.7233 10.2352 11.5407C10.1278 11.3581 10.224 11.2579 10.3158 11.1666C10.3986 11.0842 10.4993 10.9528 10.5911 10.8459C10.6828 10.739 10.7142 10.6633 10.7746 10.5408C10.835 10.4183 10.8059 10.3114 10.7589 10.2201C10.7119 10.1288 10.3449 9.22914 10.1927 8.86169C10.0428 8.50537 9.8928 8.55437 9.77865 8.54768C9.67123 8.54323 9.54813 8.541 9.42727 8.541C9.30418 8.541 9.10499 8.58777 8.93713 8.77038C8.76927 8.95299 8.29479 9.39616 8.29479 10.2959C8.29479 11.1955 8.9528 12.0663 9.04456 12.1865C9.13632 12.309 10.3404 14.1552 12.1846 14.948C12.6233 15.1373 12.9657 15.2486 13.232 15.3332C13.6729 15.4735 14.0736 15.4535 14.3891 15.4067C14.7428 15.3533 15.4769 14.9636 15.6291 14.5382C15.7812 14.1106 15.7812 13.7454 15.7365 13.6697C15.6917 13.594 15.5686 13.5494 15.3851 13.4559Z" fill="white"/>
<defs>
<linearGradient id="paint0_linear_48_521" x1="0" y1="-0.00976562" x2="27.3404" y2="2.28686" gradientUnits="userSpaceOnUse">
<stop stop-color="white"/>
<stop offset="0.46" stop-color="white" stop-opacity="0"/>
<stop offset="1" stop-color="white"/>
</linearGradient>
</defs>
</svg>
