<svg width="28" height="20" viewBox="0 0 28 20" fill="none" xmlns="http://www.w3.org/2000/svg">
<g clip-path="url(#clip0_5_2379)">
<path d="M26.8381 3.41717C26.5293 2.21763 25.6249 1.27184 24.4779 0.948891C22.3823 0.349121 13.9999 0.349121 13.9999 0.349121C13.9999 0.349121 5.61758 0.349121 3.52199 0.925824C2.39699 1.24877 1.47052 2.21763 1.1617 3.41717C0.610229 5.60863 0.610229 10.153 0.610229 10.153C0.610229 10.153 0.610229 14.7205 1.1617 16.8889C1.47052 18.0884 2.37494 19.0342 3.52199 19.3572C5.63963 19.9569 13.9999 19.9569 13.9999 19.9569C13.9999 19.9569 22.3823 19.9569 24.4779 19.3803C25.6249 19.0573 26.5293 18.1115 26.8381 16.912C27.3896 14.7205 27.3896 10.1761 27.3896 10.1761C27.3896 10.1761 27.4117 5.60863 26.8381 3.41717Z" fill="#FF0000"/>
<path d="M18.3014 10.153L11.3308 5.95459V14.3513L18.3014 10.153Z" fill="white"/>
</g>
<defs>
<clipPath id="clip0_5_2379">
<rect width="27" height="20" fill="white" transform="translate(0.5)"/>
</clipPath>
</defs>
</svg>
